<mxfile host="app.diagrams.net" modified="2021-02-16T09:24:53.112Z" agent="5.0 (Windows NT 10.0; Win64; x64) AppleWebKit/537.36 (KHTML, like Gecko) Chrome/88.0.4324.150 Safari/537.36" etag="eEg9lAgwt2YTFgRD7mcl" version="14.2.4" type="github">
  <diagram id="SGP0-K7Ieo4u0JSzEDuj" name="Page-1">
    <mxGraphModel dx="2249" dy="762" grid="1" gridSize="10" guides="1" tooltips="1" connect="1" arrows="1" fold="1" page="1" pageScale="1" pageWidth="827" pageHeight="1169" math="0" shadow="0">
      <root>
        <mxCell id="0" />
        <mxCell id="1" parent="0" />
        <mxCell id="GWbPV3JY_pYgFVm3MeyI-1" value="循环依赖&lt;br&gt;1.一级缓存，里面的都是实例对象&lt;br&gt;&lt;div&gt;private final Map&amp;lt;String, Object&amp;gt; singletonObjects = new ConcurrentHashMap&amp;lt;&amp;gt;(256);&lt;/div&gt;&lt;div&gt;&lt;br&gt;&lt;/div&gt;&lt;div&gt;2.二级缓存，提前暴露的对象&lt;/div&gt;&lt;div&gt;&lt;span&gt;	&lt;/span&gt;private final Map&amp;lt;String, ObjectFactory&amp;lt;?&amp;gt;&amp;gt; singletonFactories = new HashMap&amp;lt;&amp;gt;(16);&lt;/div&gt;&lt;div&gt;&lt;br&gt;&lt;/div&gt;&lt;div&gt;3.三级缓存，获取bean的方法，value是函数式接口&lt;/div&gt;&lt;div&gt;&lt;span&gt;	&lt;/span&gt;private final Map&amp;lt;String, Object&amp;gt; earlySingletonObjects = new HashMap&amp;lt;&amp;gt;(16);&lt;/div&gt;" style="rounded=0;whiteSpace=wrap;html=1;" vertex="1" parent="1">
          <mxGeometry x="150" y="30" width="580" height="180" as="geometry" />
        </mxCell>
        <mxCell id="GWbPV3JY_pYgFVm3MeyI-2" value="A" style="rounded=0;whiteSpace=wrap;html=1;" vertex="1" parent="1">
          <mxGeometry x="130" y="290" width="120" height="60" as="geometry" />
        </mxCell>
        <mxCell id="GWbPV3JY_pYgFVm3MeyI-3" value="B" style="rounded=0;whiteSpace=wrap;html=1;" vertex="1" parent="1">
          <mxGeometry x="570" y="300" width="120" height="60" as="geometry" />
        </mxCell>
        <mxCell id="GWbPV3JY_pYgFVm3MeyI-4" value="" style="shape=flexArrow;endArrow=classic;html=1;exitX=0.333;exitY=0;exitDx=0;exitDy=0;exitPerimeter=0;entryX=0.592;entryY=-0.05;entryDx=0;entryDy=0;entryPerimeter=0;" edge="1" parent="1" source="GWbPV3JY_pYgFVm3MeyI-2" target="GWbPV3JY_pYgFVm3MeyI-3">
          <mxGeometry width="50" height="50" relative="1" as="geometry">
            <mxPoint x="390" y="470" as="sourcePoint" />
            <mxPoint x="690" y="290" as="targetPoint" />
            <Array as="points">
              <mxPoint x="440" y="230" />
            </Array>
          </mxGeometry>
        </mxCell>
        <mxCell id="GWbPV3JY_pYgFVm3MeyI-5" value="" style="shape=flexArrow;endArrow=classic;html=1;entryX=0.5;entryY=1;entryDx=0;entryDy=0;exitX=0.5;exitY=1;exitDx=0;exitDy=0;" edge="1" parent="1" source="GWbPV3JY_pYgFVm3MeyI-3" target="GWbPV3JY_pYgFVm3MeyI-2">
          <mxGeometry width="50" height="50" relative="1" as="geometry">
            <mxPoint x="390" y="470" as="sourcePoint" />
            <mxPoint x="440" y="420" as="targetPoint" />
            <Array as="points">
              <mxPoint x="420" y="460" />
            </Array>
          </mxGeometry>
        </mxCell>
        <mxCell id="GWbPV3JY_pYgFVm3MeyI-6" value="A和B相互依赖" style="text;html=1;align=center;verticalAlign=middle;resizable=0;points=[];autosize=1;" vertex="1" parent="1">
          <mxGeometry x="355" y="310" width="90" height="20" as="geometry" />
        </mxCell>
        <mxCell id="GWbPV3JY_pYgFVm3MeyI-8" value="" style="rounded=1;whiteSpace=wrap;html=1;" vertex="1" parent="1">
          <mxGeometry x="160" y="500" width="40" height="590" as="geometry" />
        </mxCell>
        <mxCell id="GWbPV3JY_pYgFVm3MeyI-9" value="" style="rounded=1;whiteSpace=wrap;html=1;" vertex="1" parent="1">
          <mxGeometry x="440" y="500" width="40" height="590" as="geometry" />
        </mxCell>
        <mxCell id="GWbPV3JY_pYgFVm3MeyI-10" value="" style="rounded=1;whiteSpace=wrap;html=1;" vertex="1" parent="1">
          <mxGeometry x="680" y="500" width="40" height="600" as="geometry" />
        </mxCell>
        <mxCell id="GWbPV3JY_pYgFVm3MeyI-11" value="" style="endArrow=classic;html=1;entryX=0;entryY=0.211;entryDx=0;entryDy=0;entryPerimeter=0;" edge="1" parent="1" target="GWbPV3JY_pYgFVm3MeyI-10">
          <mxGeometry width="50" height="50" relative="1" as="geometry">
            <mxPoint x="20" y="640" as="sourcePoint" />
            <mxPoint x="440" y="760" as="targetPoint" />
          </mxGeometry>
        </mxCell>
        <mxCell id="GWbPV3JY_pYgFVm3MeyI-12" value="A先从缓存中取，取不到就开始实例化bean" style="text;html=1;align=center;verticalAlign=middle;resizable=0;points=[];autosize=1;" vertex="1" parent="1">
          <mxGeometry x="-80" y="575" width="240" height="20" as="geometry" />
        </mxCell>
        <mxCell id="GWbPV3JY_pYgFVm3MeyI-13" value="" style="endArrow=classic;html=1;" edge="1" parent="1" source="GWbPV3JY_pYgFVm3MeyI-12">
          <mxGeometry width="50" height="50" relative="1" as="geometry">
            <mxPoint x="10" y="520" as="sourcePoint" />
            <mxPoint x="60" y="470" as="targetPoint" />
          </mxGeometry>
        </mxCell>
        <mxCell id="GWbPV3JY_pYgFVm3MeyI-14" value="缓存中取是指DefaultSingletonBeanRegistry#getSingleton(java.lang.String)&lt;br&gt;分别从一级缓存取，二级缓存取，三级缓存取" style="whiteSpace=wrap;html=1;" vertex="1" parent="1">
          <mxGeometry x="-190" y="410" width="340" height="60" as="geometry" />
        </mxCell>
        <mxCell id="GWbPV3JY_pYgFVm3MeyI-15" value="A在populateBean方法中填充属性B&lt;br&gt;B又会创建对象" style="text;html=1;align=center;verticalAlign=middle;resizable=0;points=[];autosize=1;" vertex="1" parent="1">
          <mxGeometry x="540" y="580" width="200" height="30" as="geometry" />
        </mxCell>
        <mxCell id="GWbPV3JY_pYgFVm3MeyI-16" value="将A放入到三级缓存中去" style="text;html=1;align=center;verticalAlign=middle;resizable=0;points=[];autosize=1;" vertex="1" parent="1">
          <mxGeometry x="310" y="580" width="140" height="20" as="geometry" />
        </mxCell>
        <mxCell id="GWbPV3JY_pYgFVm3MeyI-17" value="" style="endArrow=classic;html=1;entryX=1.15;entryY=0.33;entryDx=0;entryDy=0;entryPerimeter=0;exitX=-0.025;exitY=0.333;exitDx=0;exitDy=0;exitPerimeter=0;" edge="1" parent="1" source="GWbPV3JY_pYgFVm3MeyI-10" target="GWbPV3JY_pYgFVm3MeyI-8">
          <mxGeometry width="50" height="50" relative="1" as="geometry">
            <mxPoint x="390" y="770" as="sourcePoint" />
            <mxPoint x="440" y="720" as="targetPoint" />
            <Array as="points" />
          </mxGeometry>
        </mxCell>
        <mxCell id="GWbPV3JY_pYgFVm3MeyI-18" value="B创建对象" style="text;html=1;align=center;verticalAlign=middle;resizable=0;points=[];autosize=1;" vertex="1" parent="1">
          <mxGeometry x="185" y="680" width="70" height="20" as="geometry" />
        </mxCell>
        <mxCell id="GWbPV3JY_pYgFVm3MeyI-19" value="" style="endArrow=classic;html=1;exitX=1;exitY=0.556;exitDx=0;exitDy=0;exitPerimeter=0;entryX=0;entryY=0.556;entryDx=0;entryDy=0;entryPerimeter=0;" edge="1" parent="1" source="GWbPV3JY_pYgFVm3MeyI-8" target="GWbPV3JY_pYgFVm3MeyI-10">
          <mxGeometry width="50" height="50" relative="1" as="geometry">
            <mxPoint x="390" y="770" as="sourcePoint" />
            <mxPoint x="440" y="720" as="targetPoint" />
          </mxGeometry>
        </mxCell>
        <mxCell id="GWbPV3JY_pYgFVm3MeyI-20" value="将B自身放入到三级缓存中去" style="text;html=1;align=center;verticalAlign=middle;resizable=0;points=[];autosize=1;" vertex="1" parent="1">
          <mxGeometry x="329" y="810" width="170" height="20" as="geometry" />
        </mxCell>
        <mxCell id="GWbPV3JY_pYgFVm3MeyI-21" value="B在populateBean方法中填充属性A&lt;br&gt;会去创建 A" style="text;html=1;align=center;verticalAlign=middle;resizable=0;points=[];autosize=1;" vertex="1" parent="1">
          <mxGeometry x="550" y="800" width="200" height="30" as="geometry" />
        </mxCell>
        <mxCell id="GWbPV3JY_pYgFVm3MeyI-22" value="" style="endArrow=classic;html=1;entryX=0.975;entryY=0.702;entryDx=0;entryDy=0;entryPerimeter=0;exitX=-0.1;exitY=0.698;exitDx=0;exitDy=0;exitPerimeter=0;" edge="1" parent="1" source="GWbPV3JY_pYgFVm3MeyI-10" target="GWbPV3JY_pYgFVm3MeyI-8">
          <mxGeometry width="50" height="50" relative="1" as="geometry">
            <mxPoint x="390" y="860" as="sourcePoint" />
            <mxPoint x="440" y="810" as="targetPoint" />
          </mxGeometry>
        </mxCell>
        <mxCell id="GWbPV3JY_pYgFVm3MeyI-23" value="创建A" style="text;html=1;align=center;verticalAlign=middle;resizable=0;points=[];autosize=1;" vertex="1" parent="1">
          <mxGeometry x="220" y="930" width="50" height="20" as="geometry" />
        </mxCell>
        <mxCell id="GWbPV3JY_pYgFVm3MeyI-24" value="" style="endArrow=classic;html=1;exitX=1;exitY=0.833;exitDx=0;exitDy=0;exitPerimeter=0;entryX=-0.125;entryY=0.838;entryDx=0;entryDy=0;entryPerimeter=0;" edge="1" parent="1" source="GWbPV3JY_pYgFVm3MeyI-8" target="GWbPV3JY_pYgFVm3MeyI-9">
          <mxGeometry width="50" height="50" relative="1" as="geometry">
            <mxPoint x="390" y="860" as="sourcePoint" />
            <mxPoint x="440" y="810" as="targetPoint" />
          </mxGeometry>
        </mxCell>
        <mxCell id="GWbPV3JY_pYgFVm3MeyI-25" value="A从缓存中得到，在这里结束了" style="text;html=1;align=center;verticalAlign=middle;resizable=0;points=[];autosize=1;" vertex="1" parent="1">
          <mxGeometry x="330" y="1010" width="180" height="20" as="geometry" />
        </mxCell>
        <mxCell id="GWbPV3JY_pYgFVm3MeyI-26" value="" style="shape=image;verticalLabelPosition=bottom;labelBackgroundColor=#ffffff;verticalAlign=top;aspect=fixed;imageAspect=0;image=data:image/png,iVBORw0KGgoAAAANSUhEUgAAAggAAAERCAYAAAAezV+tAAAgAElEQVR4Xuy9d5BkyX3f+Xm+vK/uau+7p8f73Vm/WOzCEUsDQOJR9Ly7YMSFgnfSuZBC+v8iTneKOypO1IkUCZKieKQoQxAEsICwDpjZ8bZ7pr3vrqou7+vVe+/ivZ6ZHT+z2Jl16IzY6J3utN/Ml/nNzN/vm8JzL75ssR22EdhGYBuBbQS2EdhG4J4IeL0eLOvJLJUCUKnWPjbkZUmiZRj3LF+4F0Fwe3zUquV7JggE/ZQKJR4VKkEQEbEwBRGPS70JhObSaNYbKKoLWRZpNFu4NBm92aSltxBk1fl3rVpF1VzU63VcbjemriNrqvOz3tR/YlD9Xg+lSvW29Hb+jUYDyzQfmK8gCHi8Pirl0n3jiZKCYuk0bstKIBDwUiqWHxm/WwsQJRWZJk0DZFnGNE3nPzt4fH6qD6jPrfkoqurgbAdRlFBEi0brwW2+kV7VNKd/TPPeA+phHSKpXtArGHcMIJfLTbPZ2GqPICLsfQ4h1o05ex4WJpxsVVmi2XpwuYKkoVgNmnc0R1I9GM0qgig+tH9vtkGUcQstancUaU8W9Vod4z7jRHN7sJpVp5/uDC6XC8Mw0PWffOw+DOPtv28jsI3AB0dA8IjI/Sr6RP2uxH6/j1Jpa0205097HrSDvRaUi8V7L66iiGCZmA9ZLKORMJls7v08bMYgAveZ6sSIhL2AmAUDbpnnVFXF6/U6c2i5XHbmmVuDJggodt5A1bRuJnW7NGr1xtY64vE46e311mnfb/39/8mqJOfwxgZZX5mnf7CTaqZKVhcY7Y1w8eJlduwco5xeZWopxdf+zleZuTTLxNwiRw7s4srMKsMdXhaTBcLhdmanL3Hg0FGunn+Pig47n/sKrctvs9BoMTS0m9baSaazAv/Nb/8q//ZffpN9n3udkE9ifqXKaIfJSirN8slzuHa/xu4uk3dPnObXfuXr/D//77/lF1//HJfPTDL+/FNcOv4ul6eXCXcNkVCrlAnjZRPNHyZTaSFVqli+IJG2MDPnJxjf2c/FqwscGB/m1OkzDA/20hS9yM08wXicuSszZGtV3B4vtWrloaPLHiQtXb8vq7QHjmATo1sGh6x5+NyIxvcu3zIYHlrS+xG8kQHi5jwL+a3f+YMhSgX7HyLPfPGL/Pg7336k3Dw+H9Xy1mAPtXfTKqxTrt8YTAIvff2XePMv//S+eX0QMnLwlS9x9gd/u1VWdJB6cZGGbtyTILndHmq1KsKuYxj+KHpmA/fAOOb3/thJf/ALP8/Z7/4H5/8tSyTe08PmyuLt9XQI6d0fZWj0WcqLF3im3eLtpXv3byjRQ35jeevDkELsaytwacO6jczYhPeXno4iaT6++eb8XRjZm4z9r71CW7yDN/7tn9zy0St8eVhnOePC8ASYWEk9Ul9tR9pGYBuBjwABEbw/G0Kfa9C8cPdu/laCEO/ovFmhRr1OMZele2AnUvYaq1YfY7EGV+ZWsTcKml6h2Lq+Kt+nGXcSBNEn4vlykOp3i1sk4JYgRWW0p72IAYnGqQr6zNbCbodnnnmGp596ih+++SbFYpHZ2dnb0n7D7+agpjq/+918mdXrm61bCcJ//zu/4xCLU6dPO0RB+Oe/93vW7KVJKhtJ2of6UTWDUjNIwdCQzSL9PQlKa7O0+QSubVTYuX8Xa0tFQq4GpabIZlPmwGiCpYlJkpkcrVyeF3/+K7z9w7dw+YIMJRLk1ud568ocuw4epbV6ic5jP8dAm4vv/Lt/x8CRV+nuCHHm/BJtrjQFXSF97gzuPV8kKi6ia228+vQuLr3zLfK+YcRCms7Rfo6/fZy29nY8sQ7CsoXfI1Lxj9DnyzKxWkJIZplNp9gT11nxHWHQW2F5ZZUDe3fyb/7kL3jtpWNk6hp9/Z0k2lz8q9/9Q+otA83lplHfGiADfQNoXhe1uki2mCOsGSB4WFqZR5QkhxzYpw2d/UN0BV1ER3cyeWme/pjI1cVNgvkyObdC29AomflrHByJIDUK5IoNNoQYIz0xrszVUV1uJL1ET9BE1zzM5WX6hAqFYoZgzMVKTmbs8B5O/vA0T/VrvHV+klrTIBiOUMhlHYLwwldfZ2F6naNDLjYLdaZWS+zZsxNZK7GxnCa32cIj5bh8bRlZUZz22QQnMTCOUK+z6+BeytfOczVd4NnXv4axdJYz03mGQgJT63n6fSIpS2BlJY3NVJvXTyBGd+4jFggRHQ9TSRfZPD9NBZkdI2HOLprs3TPA9OQVxoc6OX8tB5qfvf4cp5dLDAd0JlMtEHTy2bzDypuNBsKBl9EFEavZROscwPzeN5G1GK+9fIDC5job52eQUGiN9tHhMVhONnn6+QHy5SZzSReB9CLzhTyHdo2SSS7i9nlYNbpIDPbS62myvDpLNlUgvSbj9lk8PSzy1kSeXXGFS8sb7Np3iFq9glrJ0VxOs6ypJMQmyu49yJLCztYSm952ljY0PHqahjfK07sV3vvWBIWGQcdLnyN99jh6vUVwcJDUwiaJdpl+a4XNZjuL+TyxfS9wZTKJJ3cZ98hTiPMnKMUOsCduUjQqmOvraAOjZE+/Q8MXJdSqIOx+ics/+OtbNw0fwcy5XcQ2Ap99BARV4MYJguiXqL9z+wn6bScIwTC6vHWC4NNrlIsFEu1d9I3vQKulWFzK4OvqJ6JvcOl8Ef9ABKOywVq66Jz8fulLP8PMzBSTk1sno/ciCN6fD2PVTKrfK2IW3ycJypgLbbcbs7T1O/vvN8LRo0d5/rnn+Od/8n8hRmX0ydtPQn7R7+aQa4sg/PPcvQnCP/wH/+Bmfv/ybArhH/3jf2StJkt0xcNcmZzE7RYwRB9NU0JvlgkFw7z83FE2Jt7lu6dmGd+1E79b49q1RfbuHWN+vUB3m4/1pSUyuaJzHbB71winT56mqhtIsotIMIzX78br1sgVi6yvrTGwYxSlWqNsymRyeRKxKL097aytLtPZ2cm1qRRjYx2UMuucn1rm6J4RRFeQ5dlpukZHqaZXuXRtgf0HDlLPbyIG42h6njx+4n6Z1OIaS6k0x44d5eq1RcbHuliaXaerJ4bRqBCLRJhL11AwcLkFTp26iCRJzuJps0I79Pb1IDQb5KoGxUKJgcE+ZMFkenYWXyDoDAw72Dv5sM/PruefZ/rcScqFCtliGV/LIG/oBONddIZ9tLtLLCwnqTVbCP52PJpCKtPAMAUkq4nXLaCoCmvpAooi41EF3IEomE0Ur5+VhTU6QzKlWo1coYoky84iDwLDe/YhtKoUig00alRaLiIhLwg18oU6rSaEvTC/tIHb66VW2dpFu7wBNLefWNhHMZXG5dUwA+1Y1QKqDJnNHKVinld+/ud45z/+R1qC6DDjWmXrA2pP9KBJImpUoV6zqK2soiPhb+9EUS2qDZGA0nCO4pbX8ri9IVR0XD6FTHKTcqWK5lbRG01Ul4t6tQqygnD4NQRfGGtjDuvyj/F3jVJbnSI2NE6MKhsLq2iJNpDdmGaDUsuPShPqBVTLYqOQc0jJ+moGb2cvomGS8FQ4O11ix2iYxdUSrZqMYTWIRQOoboX0RoZYUEJyh6hUS/hUN6X1JO6OBNlMFnfYi6R56XFDIV+iaojoDZ1YdwKPW2fxwqJzpeTq7iI5t8DoaC9muUKyKpKIefCJOutLG2zUDdoHx8gsrdPTEyabzJLoCLG0VqStLegc74lGE8kbpJFZwRXpppDPoQRjZJbnPvuz9XYLtxH4mBAQFAHtmNdZlJvn3z9JuJUguENhDEFyari6Z4LgiRAJTwcVQyJACbzt9HVFoZ5h6nIBw2vgcUE6u7WYK4pCq9W6efp8J0GwiYq600Xzcg2rfvv9hNypoB3yYlYMVj2LuN7W8BS9Tr72xu3rX/sab0//iPxwmdpbJYz1968yX/ZojCqyE/ffl2tsGlv3E7eeIHzjG9/AMC2O5xWWclUcGwTV7YdGmeY9Lktc3jCD3VEmrs18TF32+Iv1xHoYDVmcn1m5LXOb3dkdd+8gMDo2xurCFNWm5Sx4N+7/t+ILdPR0sb58e572XyxBZufYAJNXpx9bY0RRvKP8R8/6g6YVJdk5Qdoo6A4pMe6L0aPX4c6YNjHbIjvbYRuBbQS2EfgYEZDsKwHrNhuAYCBA4R62BlO/Okn3X/TiqW0t0j9JiEUjbGbsk+BHC4JXxD7lmN45QfhKlHAycltCMXSLjcIjZHkrQdhaygSMjnEEQ98iCI+Qx3aUbQS2EdhGYBuBbQR+KhFQVQWP2/1E2l6uVGg9xPj6iRT8CJkKu/fsdQiC2+Vydofb4aNBQBBsD4KPpqztUj5+BOw9ibTd30+sIx7RCeeJlb+d8TYCn0UEhD379t8kCLax3HZ4NARse4U73UgeLeVWLEkwUeTtFeODYPZpjisK4N6yD9oOTwCByvvG3E8g9+0stxH46UTgngShb3DkNjQW5+5/dx4MeCkUH+4W+HHCa9+5j46O0NXVzfzcPHPz7xt62QYjhw8fvlm9hYUF1tfXb6vu4OAgkigyPfO+HYYiy+jX7+IdXQSPhx07dnD+/PlHIg63EQRBwGrrc8oU0svwE2gMSLKCadhulx8GaYFgyOcY4N0vCJKKRpObXpEftDjFhRXrhmYNIbN639ShUJh8/lZ3UAHNrdCoXddvUH0IevkuPQW3IlHTDUTRhWXWfyK9iYc3ScAjC1Q/wLb1NoIgyhg2BoKIlF78QP3t2MkYLeeK9NYQDXnJ5D/4d/hJtP3QFJWGvtXPjxpuJQjO+FJcCJkVaN7t076Vp4BXFancQ6xCcXkdQ+aH+a8/at0+jngeTaXa+GAYunwhmpX8Y2237e0lWiatDwCmLF0f48jIkknrujHd48bRZevrNO43Ph5Smj1nhxPg8kFuHaF2b90gOxefx0W5enc5kqIhmg30n0xS5nHDcc/8hN/4r3/bOn3qhHPFcOMEYf8zL5C93iCfLDFx+jj+QBtj42MsTF+gXK5hCjKi1aK7K8bSWg7BbDm/k0QZj1skm9uy2LQXTnsBtQWI7m8A+GTbart/zM3NsWvnTpZXVhwCUKu9b6Fq1++1V1/lxHvvUShseSbcCJqmEQqFnPi2a98NAYlbCcLY2BgvvfiiY8Ti83r517//+7flYYtX3AiV694D7xMEAePgq5i+MIIoIeaSiBd+gC82ysFRP6nlFNPrKWRBx0J2riWaLROXqtCyLCTLcAR52jq7Sa8ubbkK6jqqLFOtN/C47Y+ggeqJ8eqhTnJZixNXLqMoInrLQpEFTFHG1FtIokBPfwdLc/bCbdIeDbOWzqPZk02tgUsVaQoeQmaRuuJ1CJKtwGULYdleF7Xa1kdgeznYQkp6445tnShhPPd1x03Paev8RcTFyxz50jdo5dZIz51nswKNWo22nmFyG8tYrTqmYdklMHJ0J83FZbpdGU7k+1DqG5iWRNfYDuYmJtBEneF4kLlsFUkapFadRlEFxof7UVQ37527hC1yZLfFrUrUmyZul8LQsVex1q4wMbOCbJMK1Y0seYlrRZJ1hVa16ghKybJAo2Vgz1ftmkQexfEwaegmomXh9nq40b8uj5dWs+kIM+nNBrcShObYMfRYP5gmcjmDdun7jqvqy69+kTff+DaCJKJoATq9NdaqMka1iiFKjpeN36eRz1VwaSItU0IwGwial1/8wm7+9Ptpdg8pXDg/i9ujoRs6MpZTP5em0rI8eIU8dcGFJWiIRgkkBcsSaFQqyKqGrjcYP/oaejXD7JWLaLKBIapYRgtJUbB0nef372YtnWZqNY0sWTQNCck0CHd20b3rEL7aCid+dBrDEtBcCtVKzZkH6rUGmmaPOxNFsa3AZZrNGormRq9WkWUJ3TQIuP2Um00kdGes29oTmuPhUnF4kaLZ5M/CJsWN6xPzDYJg4145+rNYhk6PXmDjvTecNF6Ph6ZuICuS46VklxmTWmQNEaNZR1RdSFaLSq1J5/gR6mtXyBWruNwe9IZdRw+NehWXy0Pd/ul2U61UERUXzz37LFfO/Ji66mPPYA9nT58lMDjKvu4gb751kv2v/yYBI8/KZpGQvsHs1XVytSyvPHOIufl1SqZITCjTTOwnpiTJb5rIqsCVq1e35lCvXXYDe0Gr1LbGkiQJW67WtuqH3nAwsdtlG5xVq1XaQkGy1Qai2QRBJrLzZTrr1zg7tXBzExEfPUBz6SK4IwwEodL9NJsXf0ChbOfjJtI3TmbhsrNA24bKzXoV1eUhEOukkVlk55HPceqdLXwlxUNfu4eFVAnR0B1CYH/jLpeKWa9hOcTWHuUWo+NHkcQq1yavOHWxZxBbBM1WE/S4ZLxakIpeoVbxEQtVqTRbKIrK4OAIy/PXKDcMmo0t4bxatY7breEKJdjd7ePHpydQ7HmqZaGpLgZ7IlybTzontrpuotrie7U69qYxHAyRL5VR7THcMpx1SlZsAb+qQ5LsK3dJUhAl0Rl7twabHBgHPu+4Yjv98eO/AsNwxrktgmYTeWdsKxrtYR8buQoYOqaoOJ5wtjBRqGOIcGuVpYw9Hj209AY2aWg1aqiaLRxX3xIJrFax7DXqcy9w4fx5cjWL/eMjzFy6SCMQ58COfs6++yPiB75Ab8hkZTVFbwQuXlyhrBc59NSz5DeWWE6XODgUYjLlZrhTIJ2q4/GpXLlyBdOevzweGrU6bo+baq1u2yoi/N2/9+vWxOXztxGEvqMvshzud/CIpmZJn3sXf7Cd/Qf3sp4uYuSW6O4KkpZ66JPWaKkdjsuGZKR44+1ZYjEXm5tbVpm7d+3i85//PH/4R39EPn9d4efJ8oG7cv/Z119nbn6eqakpnnrqKU6fPu18RDeCfTpw+MgRlpaW7jo9GB4eJh6PO1Ft8QkbTDvcShASiQQvPP883/qbv+FLX/wi//6v/uq2Ohw7duzmv48fP+78/02CIMkYL/xdjEYdyW2rDDaQ3v5zhyB461OogQGee+0ZzKbJ6uR7ZAwPltxBZ8SDv81gfmaNXLJGo1VBjuxkd0JBZoPTExtI/iFys28TC3bgHx7Gtfgms+ZuXnu+n2pd5Np0moXZs4y1eZktuBnvMkmMj+DOrZDReklNXKao9pBNL+INdOM15kk2Q3RUN+l66llSZZOInGViKs2R55/n7b/+c2wfEEcgRHNTzGdu7wvNg/H819EzKZRIG0IhjXj6bzn06uuc/t5fs/cLf4cRY516+iLHN2N0tPvYORzn3F+8ga6G0PYM4U1ewy+VOGM9y3O7Xbz3xpsMvvQ6m0sX+fzRIa6cmyVp61asq7z+Xx2hUmqxPHkWl9fPxXU/RwY0shtn6B7azfEfpWlpAvsODFBevExJlHn1uUHe/dZJriRN9vaomLUCg6++TnHyNJumzPJEmmy9wICkEdg/TnsixtqZk1zLWux9/jUWvv//YbfanmxC0TbymTSWZd5GEGov/DKFK2cI7j7i4ON+65u428fwNLPkijliHWFiiV7cmQXMZp3oM1/m1HdO0BsN0xtP8e0zFm3hMvue/yKFZpjS8d/n0EtHWVxYZWGhQrEepyjKfO6r4yzPL5Ocq9GoziMIcYLCGp7hl1GWLjKVWyc8/DLqxrt0H/4ykeQJUpsFrNHPU12fYfTpo0hKjLf/9m/o8Sow2IE/EMK3scz88hKutjbm56s89wtP81/+4JtEh/fTNTKGK3ONsKdJ2ohw8uQ0z/QKHJ9K8sLPfQ3J1Jg8PcHa2hVePLyXH06U6FUX6Tz8Cl3CAv/+u5fpCHTh6vRx6NAOLn/3B2S1OMH2UfTJH7Jw/QTJH2mjUshi2qcptlTtdS666+DTvD27QvjwS4yKdRbf/M+4fB66FB1rx+fYOH+GPf0+FmaX8Ekumj0JPPFhxKkf8tRLR3j3fB7R5SY7d40dCQWxcxdrGxlargjR/AzT6TRKZA8RaZ21nECINEuFJn19HczPr7L/qRe4cPJtZ+Hbv2ec85cmOfT6bzKQPc6Zegc9QpoLV1Yp1rK8+sIxpuZXKGvddA51cuXkKZ4bCbGRaeH2qmRaUEk1aPeXyNRtBdslPKEdWPUSAz1BNpdnGenz8f0plS8dG0ST80ycmmBqs8xIohsz5GfPeDcaVb59Gcz0EgFrk/XCjc2RwM7xflJmJ50DneiVBhtXznBgR5S1mQWsHa9iltMUp0/j6d1DX3OZmWIDMzxEK79MTDPJFwqILj++WAdBuYFf0skGhqjMzeANthEL1HjvxArBmMDIgWcw1SD5s9/m3HKWQKyXfaMDZAQ/165M0heqMbZnL1dPXiGZTRL299C/b4CAy8XCxI8Jd+9iZi7DkX29NIrLZJpBklNJ1KhIe3uEgGJybmaJ5188xszpq1yeneWVZ3fQrLdYbfnw1fMsrycxq2BpOpFwB03J4rnnD7F4+hTrZXDFewnmpjg5n3TGVSAcdRboZuN28SRz17PORtkztMvZBIjn3kAt59jXE2WZdlzlFfoHuqglFzBcYaqWiuGKkhDXcXWMMDe97BA8uWS7OrdhuNop5jLkTDcDSp6ltQ2acoJIVGByJkN/VGRyKUV/Tw9zi4uM7H+WxcvHHQK9d99+Ll04T9/BL3CwvcGbl1Mc7nfz7pl5dL3I4WMvUEwustmwiVScjdlLPLN7iNmNMu0RD/PJEpqu055QWE6b5NJLdLf10xRaCH//t3/LevP4mdsIQu/eIyybWxemUb3E5rWLaJoXXa/iiXQjltfoGNiBaFTpjNussUWtmMEf62B9apJYIsbc8oaT3p4ofT5bpvL+x9ZPmi/YJwBjY6MMDgySSqV58603b14D2EzPPgGIRCLO6cHq6iqZzPsLm13/z738ssM4v/+DH9z0Xb2VINjt6+vrc1Ss3vj+9x2i8bBwkyDYLiUHX8N0B7A1sb/QGeR7f/Z7aL4Eu4ZizMwsEO0eoJWZoae7zxFB2qwYtAVV8Crks1UEUyIacjO9mGGkJ0S2VKZQqNgKD/S3qwiBXtavXmDHjn7mFtYQ3CH8Uo1sTaQ/JlMXPGwkCyiNddpHx+hRW1xbrmBKMqWq6fjmzy9kkIw08ZH9SAuzqL19jmBUJOijYfqI+F1cm7zoqIPau217UbxLu9w+QXj+65iGSdSj0SvqXP7OnzO47ylceo6VxVUGRwa5enkSwRdjbLQf08jh1jVWpubR2wK0qS6CIQ9XlnTcUg2vS0T3xomFvSjWJhuLBWcXNb9UIdIZwt1KYYpubJXGqaVNdgy0U2qYRIIqV69sYlh1+oe7mbpyif3PPIfHVSC73iSZTNMRDiAFA9TWVjGaeZYqLl7Y30XGdFM6N41//y5q1XVUNcrVqTS7htqZu3QW+7DR/vhNw7gp7XzbCcKOZ9HD3Y4M6554mPUf/jlBr0S5ZjIWgaJvkEolSUh2Y3h96Ml1TE+EaqVAtZKnVFbwKgXi/Xupbs7S0z2Iz93kwmwdzecit5SladTZdWyIjfUizVKdLltRdGqGWKyDtrYIG7MzRDo9rOShp7OdzOI6biNtVxy59yCN/AqGGkGrLeAJ9VNOpzETIQQ5iDh3lsVSi56+cWSlQUl3I5dXcEU7qRoGqdkZdrRLrDXidHZHWZ2bo6tvwBm7IbVKKt9ipDdMoa6Qy6aJdyQorK4QVgtUQkPo6xUCgz1oapFyxcXyzDyjw/1sTF1k09YQceSyLWdnZ2N8K0GwVT6Lh76CpTd5oTPM3PE32Ewl2XvgCIYvhpibZW15g3xuk6jipmlrW7gjJHwKz+yJ8Xt/+ibBzgF6Y15WZ6ZoGxhldXmdkaF+civzrOVyKN4wO4Z6OHPugoPX2I6drKxu0h3TUD1BJudS7BjptJXIWFhcI9g/yubSPN22XobQZGF+g96BLmSrRTGfwx3wsL5eQPQF6QqKpDN1An43k1NTzu7/8IHdzCyu052IMzWzyOjICOVintTGAgNju1heWKG3v4elhXkGhsepNEvI2TJiewJJKCMWNlhoRKkl5+jecRipOEMyW3NOpIK+EP6wh6XlDNHeIXxSjdWFZbr7h1nKN4h4JFZmrrJn7x7yy9PI0S4yhSp9UYmZxTRDHWGqUoBaJYvXE3QEzsRagaKuIhhlGvaYLYlILp1I5yBGaYO61kaHu0XVVJGNFmrvXsTCDPlSi3hUY35ymY7eDuan1vBG3MTDLhYW1xkcGmZxfoHu/j7Sa8v09PYyd3UNS64TbouTW50lOHiI9jCszKVwaRCItGN7CWiWTiqdYbNQ5PWvvsapC9cIIGD6Q/h9LVIpnVxyndGxYbLL0yymC87a5axhtkv5HbLFVqQTY9/LmI06e9ojtK6dZO7qZXbtPUTNlInJBRYXNjAamw5RqjQtTMVDLBJkeKCD73zre2jBNkb74iQX5gl29ZNcTzIwPEQ1s0xyPYXo8tHVP8TVS2dpGgKjO8bJpDeJRAKEfD5m5pYIdXYTVgWWl5cxfQmqmTXiiYSjBTQ3s0T3wIBz+qBXChiSi81UCkFz0xMPktrMEw0Hmbw2iWmJ7N23j6X5ebp7upmfnad/eBTh//zH/631B986eRtBCMe2dsw3Qm4zfc/1TlQ9JDwia/n73788bKH8qP7udrsJBAKkUqnbFi574e/o6LhZDZsk2DrWDwu3EgQ7rp2PfR1x69XFg/K4ywahYwhNc3FsbIS3vrMlJ3xnaAuopIof7F7RzqOzM87a2r378M4yBFGmJ9Bi6T6HPeFEN8WNlfvJhD8MNlDdWO39dEfDDMRjvPvGf354mk9IjEA4Tj2XxvDFUZtFas1Ht4y7zQbBvmNtG0BWVJ4aHWXm0ikyybv1Mz4hzf5oq6EGCHtlco5C6KOH22wQ2vudcfb8+CiptWWmLp91Mor0jJBfmb7HHbtIb1c3em2T9ezt77M8eg0+QTFVP1GPSCZ/+3WpXUNZ1GiZ749bzeNCr9Y/VnXOSNeQs7h/KPOpR4TfvkKIuAVSNYH2sJdkavMRU94RzbZBiHWBO8DhgRrZ82YAACAASURBVF5qhSwT5086kbzhBGZ5g9pdsi4CHd29qGaZxbU7Tld/slo88VTCP/lf/wfrO9/7IcgayvUHKJ54qdsFIAkWsiPIsR1+GhCw77J7+wZ/Gpr6sbRx+tqEc2q1HbYR2Ebg8SEg/M7v/EOrK1ziL//24k0jxQ+T/fie/Vw1NUJGndzVC87xzNDIbrytIk1XmGjcw2h/B7l0hvnFDWZWUrT37uHZ/RHO/uAETZ+PYrVOXQywN1omJXZjpuaxChtULIuaEnd26c8/d4xINMz09CXqeEieOoneNUQjvUBseC8JWswvL9PmdpHS60RjbUzPPD4lww+DkZ22Xqs9krfDQ8sxDecVxIeFR1JPFGUw76ckuVWCINjXBx+92a2kRNmzu4vz5y4+rKnbf38MCNinYfbLk/cK9nXhDRVR+4rOPqp+ksE2+rpdtXSrtKhqkWluk+wPg/2D1WM/TM7baT8LCAi/9lu/bZ09fbsXw4dpmE0Qsv2TCPNRNi6vOZasRw4eYG1+Bl1xE4wlnGeahcIy1ZaAO9LNUFcQC4lKsUQ2tUKwd4SAP4aZX8EbTVDYTDE5n2J0LIHfFaSYS+EPxpm79C7a0AvI5UXSU8sMHzvKyROnGNq7F1exhOKTOX/+Erv37qWcyzO9cPfrex+mrR8m7TZB+DDobad90gg4r5Fev4O9s6x7LdZPuj7b+T8ZBLYJwpPB9bOSq/DqKy9bG5u522wQPkzjom3tjguKJMnksx/PPUu8rY2a/RBU2TaMFIjH26lVc5Q/QWoqn2mCIEjs2L3PcZWcvnz+Lq2CG+PLE2wnqNYcz5hHDwJ9/W0sLmxZGd87CPT2tbG0eP84gqgwODLK/PQE5gfw0fZ4bfe2u5+DfVD9NS1Io3H3ffCtaTRXmO5QgpWNqzTucRvrc7kpX39l9NGx2orp83sol6oM7tiNpqosXj5L9T6n8ZboZqA3ysLCB7OJ6O5PsLKwZZh8Z5CjblrZGr5hL+Xph2s1iIoHWluuZvcLiuZFU8Tr3/ijIyIpbgz90fovEapRq6gUdIFev8FSaesV1BtBlg12x2tcWPfd7LFQoMawv8V02kOhee+TFUUy2RWvcXHD+4Hu/jV3g2ZNu+dd/Ui8wlrWQyBQp1zSaIoGcRVyLZPxaJOrSQ8jbVVWN72kmu8LtG0ThEcfO5/UmD39I46nyszC3boyVqiXsJ4kf8fa15loY20jRaStm3x61XFzdILi5nBfgNMzW3On8Ju//svWqXOXHxtB+KSC+Emr1w2C0N43RH1zBVl10WxaKF4NnyaytPygBfCW1nxCrxhCiQEqmVV6DzxLOZvFqJQIR8MsTl+hZ3gvtXKGzgMvk12aolSs0RFRWFpJEo+EWJiaxBuJIGph3L4I8SBsVH1ElBLrM1f5u7/6Ff7gd/+Y7h0HqVc2URIHCMllLr77XWfy9Efa+aVf/jL/5l/8CZ5IO4ovQmJ4Jy49w9xykc6wRLLYoJGap1QqMjB+kFopQ3j0KbxmlrwukVxJYmRX6entZGriAj07j6EXU/QP95BaTZJp+uiKSswupuiM+1mdvEDtustdW/8oGgbLC1vvscfb9+MVdJaSV+mK76DWyNPCTSIUoalEcembpOstVD3HWnaRrvgIjVYNQWkjpJnUagX6Yh2cWZyhOxRjZmOCzrZ96I0skieBpYZILnzPabsr0sdgXxeT508wuPMQ5eIm47tGnJdAF2auERo8hNks0simaBU36Tn4PJXsOoKnk0hARBp8ntSpb1HIZBjsSzB5/iRD+5+lnFtHitheCkHMSp6emMzs0ibdcS8rl0/xi//db/Gf//Q/obSNEvKLpFoJ2tUs0+/9gOirYda/l0MI+9FaZXwWtComeeve1wMdI3uppxcpE0Kv1VFVEb9HoZjZwB8KUykVcLkDNGoVDMlNKBIiV6gQ8igU8hlEo46mKZiy3/F0qNQEgkGPM+ZiHd2kl2bwBMJUCjk0d9DRFinYz7m7BbLl60bAosFvDJd5b91DWauhVry4uzNQ0kjqAkM+k6urAQ7uX+HNM70MRMvIEkxlXLwSbPFjs4lYU4kr0OZrsZLXcHkb2OKpWbNFtexyNCR2xBtcS7kZC+ks5zR0yUCTTEomjMbrnFtzc7StSTLn4um9Sd672IngamCbL63VYCjcwL5l8egKXR6L6ZxKpwzTDYNuTeZUEQbbKiyvhtjXm+fcYpiK8T7u2wThk7YyfPD6HH7qWUcUa3FhhY6Yl2wuj9/nIVcyaBvZTWv1CpKmks/k8HoVlldTvPqVrzJx8gQHXnyFt//LO0SibgqpLNGuDnYHG5xZa1Ir5RFef/klaz6bf2wEwRY06e4bYMee/fzNX/7ZA1urqBpuTaZYqjI20sW16Q+2a/ngUH5yUtwgCF5/kHDUQ6PYRG/plOtNxGaNJo94t/oJJQi+aDflzCpaeJifOezlnVmDcnqFpg7PfemrrEyeI7LzMJNv/S3jL36FlblVWqV1cusLWKbJeGcCJWAQPvpLmMuXWWjEWXj7jxGMFr/8m1/gj/71d3jpF/4eK5NnMdoPs3Tir7Aaxa3dlSjzK7/+Gn/8B9/mmf27qTZySDt+hpoVIeBroqWnuba4SnbuMs2mSfvgMJYrQcfYOEUjytJb/5FfOCby7rKb4Y4Ix996Ay06QC21SPdAGyvzaxz5lf8ZV3KSc1dXKC6eRbbV4uw34CwYOfICXqvBhTPv3SQIleIq1Xqeo+OvsZqcpL3zICF3GxldZzk5h2RkKWYnaeh1Do5+nly1ghbqYXH2B9RqGUY7eikIcYr5Feq1TVRPB3o1SdwT49n+MH91ZQJV0Wjb8wy5xRmq2VWe++ovsnjlHC6tyszVFUe8KjR4mPz8NX75lS7+5PtXHct+2wd7/wsvoS9dotV9gCt/9X8THtxDaW2eenYFT6wby9uFVszw4kvtLHhfxpO8zPnpJJWF9xx3vl/4ja/yF//mWzz7K/8jrdWrLEvjrP3wdxH0Konnvay+U8ESFXzRFvWMhW1PeD+Twu7eBKtLG8TGjmILKspCjVoh5zxnHg6FSCdXUf1RaoUM0eG92AcrslB3Fnw9n6Yj6CJVqRLv20GjkKaudVBavoRgtUh0xMlVWsTDYdIbq47Lb71ge/hYTufdOLRQZRO/q4lfFMm7KmiFID9zOM23JjV2dlZYynrJpQP8xqEs/8eJGK/v3SCV9XAh6yJgynQMbFAoeFBaMqWyC0k0OTiYJZnxIkWLXJ2LMzyQYTPjRjFkskWXQww6VR3NI+BqyxJsqpwqQX4tSt0Q+bVDGf7VqRg/uyfJRtbNplJnejHGL4+WOVey6BJUkkKDmfUALU+FXsPNog5fiLc4UZTwBcqUN4Nsbp8gfHIWgsdQk127duMNt+GK9+Crr7OZLdIRj5JqWEwuZDk82o7brDF7dZqJ+a1r9t1jIwzs3s27p+fYs6ufKydOcuCp3UyeneDYiJ9mcIi5qUs89rcYhsd3OmIqnT191wmCwIEjh1maniTSMYRVXAFPO2GvyanzVzlw+AjnTp9meLCNVstD0CswvVxgfLSbyStXqDYebDT3GPD9WLK4QRA0tx+pVUFwB7CaNUdlziYKjxw+oQRBcQfQa0UsS6R/71PUKhXa2mJcO/0WAzuPkF++RFNN0O4uMrNhsmu0ndnlLLVyHnv16B3fzeqlM3jig3T4KyStbnLzW+5qvQdeZuPKj+jfcZD8ymWa/mHyi+dvg8yOs375R4x9/pe48u0/5Nlf/0fkj/8hE4s19ox1cvHKLEeePsaZ428xsvcpNhcuIHfsom64yU29Q2dnN+sbKY4ce4azx99E9ETQyxlUb9gR1Tr+7nvs29XN5GKORn7tgd3l8SboinQxu3KW/sRe8vkpJM8gCAqiIlIs20qkNaqVrSP6HT2HWc6sIQkC7a4G05lNxvufZXLhJHv79nFp8TSiEsDQi4QiYxQzVzEFgXhbp/Pm/Ms/8w3e/E9/xPiBZ0gvnKfYcnHgwAFOvPUGrnAn9dwae7/xv3DxL/439n7hl9g48y1acox2b5mJhToH9/Rw7sI0h449zZkfvYXLHwbFj6a0MDNJipaHg3t6mVgqoRds4mER7N+H3ypRbUC7t8oqQ5TmfuQQJu/hNiqnk7R9pYPU32ywp0Pk6oaJfp8rBG8wiqZARVcYHO+gmU5TKNTJZPN0dPWwsbJAMNZJrbCBoYRxW0Ukt9tRxqyXiiS6B1hfWSAc76KWX0eLxCgkUw627T19pFZX6ejqZmNlEcXjplGpOi6ntvqicf1ew74+eKW/wJtzIV4ZyZIqaYgtlWWrxmsdcC2tcGLdy8G+HGspH4lIlfVNP2ULdF1AcDf41f153rsWJhKo8OPFMDs7ik4c01UnZqnMNEwOhnVmixrluogkWgzEqkwlffgDNdotlZqnwfKG1yGfB3pzzK8HGGgvs7bpxxeqMbvh5fWeKmuGTq2uMtxe4UdzYQ7350gX3FzLaJR1GZe7wa6AwZmk57axun2C8Mgz7U9lxMdOEGwjxWlZJmCz4osnHHnWwfYIgtaB31OgKLWzZzTOheksWXuS33uEuaUNntkbIb2ap2C6QYuwliniLs+yeVP169PfP/a7D/YOyA5Li4sY5mNwy/qEEoSbvSVIeNwKuimi1z96H/NQOEA+V8QbaaeSfcRrm0/RUNMUhYZ+K6EUCUej5DIP1r2ItYXZTOWQVJcjNfxEg30YZpOB6z+9MlQegffbdVNoOUkbzUdI8EQb8X7mcZdBuv5gzw1VMQjKFuWmRO2WI/0nUUW/u4XZEqnoH/zxt22C8CR65LOTp/DzX/u6NTMz89iuGA489Qw5eR65EmTm/FXbL46ORIJSLoPsCUKzwrFXXuLMO++Syhbxen3gDnK0z0WharG4lsZyR9i7cwdnjv8XSnerTXxq0bddx9quyzZPT039dBCET21vbVd8G4HPPgLbBOGz38cfpoXCf/hPf23903/6Tx4bQfgwlfmsp70XQVBUF4KlY9rPmDivOIqOFoHxqLJin9ATBLfCPZTEbu9h+1GkykAc37WHS1N/1sfGdvu2Efg4ENgmCB8H6p+eMoU//OafWP/sn/3vj5UgyLKCoirUbnkQ6dMDyZOr6b0IQjTRRT69TtCt0TRltKAft2aw8kA3vq3TWq/H5fiq269k3vkK5Z2t+EiFkgT41T0StjfgnAnjbji+apIqW6iW7Xq1VTsjGMHMZ1Du42//5HpiO+dtBLYRsBHYJgjb4+BBCDx2G4SewSH8/iADI2MP9WLo7B+mLxHi+InTPxW9dC+CYD8p2tbVRjWVwxQktKDXeap5bflun9ZbQXKuc00Dv3/rISz7KeoHhY+UIABdAYG1osW+QYkL84bj3vUPdoj8i2sm5esEwQyEMAq5bYLwUzH6txv5SURgmyB8Envlk1Onx04QxnbvJSV6iGoyM6fedXa4Y7sOYFXKaF6LuuWlp6+d1dVNVqeuMDQywvmLl3nmlc+RWkvhNe1XBg0MLYrYKqHUN5hff7DIzCcHzgfX5J5XDJrbeffesiTHDU2QFUSrRb3xcE8Gl6bZ75E50tOfNIKgydDuFiiakK9s3Zf82lGJb540brqSWbJKbSCBZ3r7iuHTMoa36/nZQmCbIHy2+vNxt+axEwTbi2E1uomWDZC+OIEkK+wa6qVQMvCHNeo67Ny7g5mpBRSjSSaXoyZ4OXRwnMW5BaxKjpV0GW+8F59LRKssc3X5g73s9rhBelz5PQkjRRGL+iMo7H3UJwh3YSZAvwcWHi6k97jg3s5nG4FtBB6CwDZB2B4iD7xieO7Fl53tXbNeeyyPNe3af4hCPuc8fTx7bfIeZQs8/cwBTvx4y6d9K9haCQc5d+rMzd/Y/toHRnq5eOEklcZjcAf8BIyD2wnC1bveGP+Jqtj/Cnpg+KFJhWYBSw0+OJ5RB+neD/TcTGjL1CruB+ZjtaoI8u3+1g+t4HaEbQS2EfjIEZCNKi1p+1v9yIH/lBQoPG6C8Clp98dSzXsRhK0HcW44ib9fLeuGNvbDavopJgg3Wr5FESEWctPtszi3crtf/q3x7gVHXFHY1PVbXe1vuNzf/DnodhHG4mxt6+XLW9zy6VdFFppbJPQOl/17on9nHLsL7e5yfi8IPD8W5p2rWdvD1/m9k68AtuzF0fE4swsZsnXzrrJu5nNLukB7lGIy837cW8u6o3bB3iUKS73Iqkyr2bqZ5lHaFU8E2dwo3I7hjbKu/+xs95PTBWrZ4iPV50b1bsXB/l0soJApNrEQ7qpjrCNEcSNP4waet/SJrCrIZou9wzHmlrNsVoy7MbTjiwIxTaKISL12XZP0ujCp0093tOtenTyUcDO7cfubDbf1uyCyfyDAhdmck+ENpyOnmDv6/dZPOR5UyRQa2L1/W36iQbRvg8x818O+eIKqSOGO8XpnokRAoVJrUbqfGtX1BHcShEHXedKNMbrkKlf1KAPaAnVDYb318HrZWSb8MhulR9esiMhZVCFNSh9lt/skzVYfGVMi04phCjaUAmPu4+QbB9gwXWAZdNiS660tPRnLqhCTBTKGB7sX7DE1qm4w1Uww4rpMTR9ixXjwhsbuP78qUHrARtSep/tiblY2q7Qe4GF251wl24pfuk7rlj3u/eazgJRkp5rmRG0nL3omeLu663ovbaWw23bQ8yPWG4dYN1xOeyUxw5f975HTe3i3uvd6/K0Kbn1fW+n2uM+QbOwhbSo3f38jzs3v9HrcrdEsIIsZnghBsFUUB0d38O4PvvvQwf5BI4S8HvKVj15w54PW817x7yYIJs99+edYPvU9Qv4ghYaH9n4PkjvBj7//vUcr8lNMEHaMtqN5NZYWs3SFXVyey/AbR0L8wXs5YjEvyCqRoEbEK/PeuS0Zbp9PY3eXjzMzWfTrvqD7/V7sZ3TWdAMPFguNJnFZJKmb9GgyhiXQpmlUmnVWDYsOWXLiBgWL9ZbBq36Vt8tN4i4XUUlkzbDwmiZ5w0A3Deq2Ot71WX5gtAtNFmjoJh50ljbr+C2d9UKDnjY/liygNOvMpRuM7uqmXK5TLdYd0ZylzSrhiAcUlZBPI+SVMRVbNajGfLJKSDZZ3qwy0BGgKYioXjexiI+1bJUgOulSE5/ZYi5Zdsqqmyay10uszcPFk/OOsp6sJIjJFrMbJbriPlqiiOL1ojar6F4/vladiZm7RZQOHupHFizWii1CQovZ5TwdAYXlVJm+dj8NQWRsR4wLS03quQL9cQ9Go4zoj5K/sogY8aELAusp+4G094Pq1ugOqaykyrjcKqgaIxFY2Kjh7WonKhtYuSyCP4SxnCIZb6e4skF7b7vzRoIuygTFFsl8nZgK6+kyYwMRsoUaTcWF1yOzlKzQ3+Z1HqQJWAZL6TKfe6qDd68UESyLRLufgbjFxIqAUak6ksarmxXiQTf5uk6+dLuBr0uVeHV/lO+eTRN1ywgulVDYiySLZJsCYcmk2myRXc9RbUF/1E3FhGDYiyxLlJFo1hrolQZhu86bFXqjbop1k1hEZWmtgtoRc/JZzzXo0Cyy6SJreglN1fDreVQjyJql3nMO6Ay5HAJVa+FgWq01iXkkypUmIU2kXNfxRoPUcxUqooTfa9sqGZg1A9HSEQXBUagtI+MxquR1+WY5hzznmGrEeVHLsqonaIot8qbOqt73wPlIVBR6/BKK0aKKiM1fdMd126JmCoRcAtVSHVFTKFXexzshF3DLC6w3+jnknudcbQddylVmmnt4xj1D2RRIWSDqw+Ski+xQs9T0g0zq1wmCuE6YKHHlCn45xfnKa/TKGRZaMQ66L7NY30nGerCAlKpKxDSRjCGhWS38ioBPFag0LRp2WkmgrAsY9QaWLJHwyegNnYhHolg3qNkicAg0DPC5ZKc/7Dim3kIOekmuF3DbY18UyNct/KpIs95AUSRylfdtzZ7z/Jj5xi7WTYmf8SxzqlVjj2RgCBYJUWVdDzJNAZp7KYvTxJUUucZROtRZJptdvKA0MMUyTaFAzTKZ133ElBQ1I0KIdlYMkRfcSxRaEQxxk5plMddyY9HCg4ceJY/e6mSfe4Z0K8K8lX/8BGFwbByfP0BP/+BNL4bO3j5q5QqaaFCzXIj1NK5QwgHZfoPh/MQKHooMDfQ5vvOTMyt0t/lZy+uENYOKoTgPqSyupQh7/bjCYWiUyNdloj6JtfWND/Qq2qOtvE82Vr1aca4YeoaG2bmznbXJdRqtFhXZi7++xtWV/KNV4FNMEBJRHwfDLbKBMJIh8qOLa/z6sQjf/FGGRCKA4lKdyZ1yhfcmtqRyVVWmw15w0tWbWhF7fF5nF9eyLMSWTto0CQgCi40WPsVWvBNpV2WmK1X2+d2IJsw1WzTtycy0eN6n8k65ybDXg2Rr7xsW69WKs8P7qk/l2+UmoaiHXKZK+3A3a3Nr7DvUh5QrcmWtzEjMzcRKkbaoF0FT0BoVVrJNTFHha0MybxVU2mSTKyslolEfiqbQ1RHAKlcRw37ymxWK5Tpx2WRitYQ/5MFSXPR2+JBUDUs0kLMF1msmmc0qer3hlFVtGoRk2Bc0+dZ8A3+kitfbTatUJ1OosWswQqZYB1mhtyNAQ9NYn02STBXxihUqpvfmGNuzv5eWpCBJoOULbNZ1ArLE1GIWt98NikZnV4CELNJ0mVg1gXIxQ0qIE5hfQOsJky7USWcLWKaMcd11ta8vSFCSmVrKEvS7EFwaAanJwnqNHUeGqObt9lQZt5q8vVxF7EwgbCRxd8RJraTZdWgAV7FI0mZp1Qblcg23R8P2/okm/JjVBv42D2IDVrNVspkKgt5E9voIaxCOu5FlF13hBm9cMOjxGiiWwcRKgd42H7WWxUY6h2XJbJ25bIXPH4zxg7ObvLY7yuRSAW8iQlNUcHlVXKUSqbqJWaxQrLcIu2Vaiorb76JsyiQXN/n5nR6O5yW6VZOrayU8qsRmqclIj4/l1QoDB+x2lVgoGui5PJWmSUso4tLcUG8hWfb7fPde2NqCGoIk4vapyHqLhiRhNgwaDZ16reX0oa1CGXQJGKqES5VRGzXW6jJuS0e2LNKlBqIi06wWaQq3XzF0apOEzBhNS2OmFXikeSgYdKOZLefkKuDTKNVbmKJINKDRECVqhSq5UhOPS7mv+N2gkmJBjzHseYP56ku85LnEciuBILRYanSxN/hnWEaYueqXSJnvkxq7goc97+CR07xT/IV7vnb5oEbIkoAmCii+rTbQMsCwDcYlNLeK3jIwVQ3dPn2UJBTTwGoZ6E0d1bbGllVkm4C5XA7ByNYsrFqdSstiZ2+Qy4sFeuMeJ5+6oJDPlZ062mOiYrOK66FXWaFXneFk7eD/z96bB8lx5fednzzrvqurq+8bjW6cxMF7SA6HnEOa0czIkteypZEjbK0ka1YbG2v/sRvev7wbsesNrzfk8J62pLVsy7Y08lBzcWY4PIYHSJAEiKuBbjT6Puu+q7KqMnMjswGSuJuDgwCYj4EAUfXq5Xufl8c33/sdPK5WqIpraIZOj+Sl3OqnSYO2vMp0bS/j/h8SJcib1acYc01xoZVgn+jDEKuYQpq2UANpgzB+VnUZlzFIzlDpxU1b0NCECrqQZ7nZxfP+83zQktghKpzR+ukVQrzXVtnr+eD2CwTLSHEalZCuk596345xPhBxUXAPEG6vc+CRAxTyReaWCwTdbkS/i4mRTtbWsrRqNfump7m7cQkaZm2DWCTM4rpGXVSprZ3GL0eJDXVQMQI81NviQtnHyVde4sZOfts6x+9qpS2B0MYf7kDS8ijBDtq1Eo2WTqPxCULf3scCwaVaN7Y2otdN3Cfbb3XRmB+xXEX2e6hW6rRFhbCis17+6EK6cqJiioJitNnUISkLbOomvYrEcrONbD+oBNyiQFnXUUSRiCSQaun0KTKrrTYuScLS0TUTAoJJ2Vqa1reO90jAyzvlGrGoh0Kubt9EGpU6gijSF1FZzjcZ6fQyt1GhM+qjUq7bb0zDCS+z62UCHoVivc1wp4/5jQpD3UE202X7oR2SDXp2D7Axs8pyTtuqs1lBVmRMQcQlWi/cKrlijcGowmbNpNlsY+gG3fGtY3lDXlKbZTsXgy+xSTWdZDjpZ269bNcpl+tY3iJR1WCx0GYwqrKYrfP7oXf5P4sPf4iyozOIq1FnuaTbdZYLLQY6PCxuVpCsNIWiiNslEfDIpApNYn6VhtZAQ0Wu1gjGto41aK4y1Uyytfhv5c2S6I97WNqskIz5KBVrNASJ/qibuc0a/RGFlbJBWDIoaDoj3UG0aoNNTUCrazYHa+yLuSaDnX5W0xX6OwOkshVMSSYgG6Q10e6PlehMa+oIhmF7T1nnl83SygfhNkkVTVs8dMe9LKSqtkDIl2oMm0uc03rQPiYQYlEf5WKNffu6OfHBKjsmusmvplkpthmwVgGyTQYSXnv1ottavSjULPVK2xTQag1Cboliw2Ag4WEpXUOVRLS2YW//9EZczKdqDERU1qylB2sJ2jQJ9qxTXu1mt7rEotZrb5Fcq8QCKtVaC0OU7KyhNVMk4JYwmm2qra2tK1EUUBXR7o8siUh6m5Yg2SGro36FTKmJ3yPTqJZoiZcLhIBYo0tZ4YI29uE83uzmaF0Pcb+VdEojFHBRrm49PGVdp9SGkGq9PesErayctcs9tKzVjT5lgYaRRBeqDKhrXKhPklDnWWuOYAg1RtRVZpqdDCklLmiDdm6Kj5dOeQUJwd4K2W6MuUu/t86VRFAhVzMYT3pY3qxibQ0Uq03cLhmj3UYzBQKyQEEziHpl+5o2dWOLrSLZwsgSRAEFaoaA3tSx7iBWmHmz1UZSttoxJYl6Y6v3PtflAqFXWaBldOCV54lIbTaavdRMg5hoLT7kWWqNIotF+uUC860oXaLJfDtCSCxRMVW+EfwxxyrP0OmaYl7bS9Fs2XUWdQ+jSorzzR4mG18K4QAAIABJREFU3OeY1Xbaz1dJ0KgaXgKCRN5oM6qmWWglUE0V6/XIJ2Vuv0CwjRR7TmMuxVg9ZSWxEZjcu4f0Zpp6fo1gzyTt1FkSw3vJrS+hhhJUNHBVF/AlRjDqRVYLDcZ7gmRbbgKSxspGkbYg0tfhpZE3GD60h/mTb1N39bJ7tJOf//Qlbu4UeLNT/O5+f0kg3PJR+56iFRi6aTNCs4ypBm5cT7cUsuvGddrWG+mNDRlNvY4g3WTf76Y9dio4BBwCd5qAbFgi3LlW7zTn+7X9226DYCUksrK7WS9uVoS/21lEa+3MNG0jJL2t26sTomDYb1X3W7mUzfGW+21C87JkPddu0XqjsOblhkWUwA73fP0iCCKmlav3huVqo8tbHqfTgEPAIXDbCVg2E21rSd0pDoFrELjtAsGhvD0ClwSCNxBG0us0TRmzrWGKKrTrHxrg3ag1y9jI63WTy2ZvetC7HQeh2d+NunTjNMg37bRTwSHgELijBJw4CHcU733f+G0XCOFojI5kNzsmd1831HIkGsIb7MCFxtzC8nUhDg91Mzf/YD5kLgmEjp5+GoVNREPAEBTcEQ+SqLKxvGW1f6OiyiLVahWv12v/fUMxIYoYN0svLcp2oqgbFUGQMM2bv3G0o1EMt4y6tmVc6BSHgEPg3iPgCIR7b07upR7ddoEwNrkbvAE64x288eJfYy1J79y1E7VZpWD46Aq5GZsYZXElTT6XYXFxg/17dnD0+CkO7t/J/Pw68WiQU2fOsGOsl1bLhc8js7Beobc3xubiDDnLMvs+L5cEgpXNMdYZolxsIhot1IAbSVBIra3f+EFt52Jo2+KgVqvdc6GW2/EocubBiIB5n59qTvcdAtcl4AgE5+S44Qvh7Q6UZHkxXHCJ+Ntuch+8ZdsJ9IUUOnv7yTVEVtfX+NwT+8nmNFbSOTrMFlNLiwwf/gJuvYCYTXMhXcQVjrFvUCWTqpPXBNRwL+nUBqHWKktX+Frfj1N8O2wQQsGg5VpLtVqhUqncQysIAtquMVxnZu7HqXH67BD4zBBwBMJnZqp/oYHe9hWEw08+Ta66ikvwM3XsAwRR4vGHD1MvpTh5fsUOxmL5h9tRoKxEQ80WXrebutayXUqaWhPdMBF9ER4fCpGt68wtr+OK9PDInp28/cZPKVkRQu7zcjsEgo3A0Gk2t6ID3qjcbRuEm/XH+d4h4BD49Ak4AuHTn4N7uQe3XSDcy4O9l/rmCIR7aTZurS+mYhmWtuyofU5xCNxPBByBcD/N1t3v6x0RCP5gCMtYcWVh7hONyKUoaNtw2ftEjd6jlS8JBI8/iNGsIYiyHVlRkFW0+vZSHqqqYhkioDUatG7C7W6vIFgBxvwi5NvQ4YKSDt8YEvnLGYOgW6DeNJnoE1lcN8h8bAEkcDBK5YMik4efobC5QGp9E6/colSHSMhDqdrEOr+KmQ1C0QRaNc/go78K2bMsrazRajZp1crEEp1kUxsEI3G0Sh4l1GkHpBI9MXq7w5w9M8fI/sNMH32VYDRBo5JDDSWRmznyxYuhvAWReEeCbHoDSXEjSgp0ChjLJTvY2qXS7tqNvHF6K8GDUxwC9xEBRyDcR5P1KXT1tguEoR078fn8DIyMfejFoKqqnWTDQEI0dWTVRUNr2vvnkiigtXUE0yDqD1CxHnSGTksXUK2Y95r2QN53LwmEeM8AWn4dU5cQROwY/Frt5gLBipbWblnxI00kSbrnjBSfmZQwWrBYNBkJwmvzBv9ov8T/8n6bnQkRKy/KZI9kJ0n583cvhrmSBPoec7P0usYTX/vblDdnkLoPE/R7OHfsbXp7u1ldvIBUSZPO5ege3kOjkmL4c79BY+YnTC1U+OqBAK+e15Aqm+TyeQYnD6ILMomxPbi8Ed75zr9k184kx9+fpvfJb7H88z+lb3w/kj9Kx+hu3P4OXv/jf2xfirHRQwSFGsuLczy6dw/FyjqnptdITppsnNlSA3oohDa+E+/Rdz6Fy9c5pEPg1gg4AuHW+D3ov77tAmHnnv3MGi4iZpP01HFEWeHJiSRVKUCjLbOWLlHNrdIfC9Cz6wDz5+doyj6yC6foivSSGElS0Fzs7WmzWPVx6rWX77swyts5aS4JBJ+12hLxsLGax6taCVhEWlrNDhV7o2JnB2y37GBUVhKom4VnvtsrCE9PSLgFgZDLIFWCV+cM/uFhiX92dEsgWFkPe+KCnQTojdMXBYIo0P+1MIvfLdK76yCyHCDYP45YXSMxECazXGNtaZbc2rw99ngiiTs+RLBnnPM/+xPkjr18cZfAq+fqqI0MmWyW3tE9NBpVBg89i8cX5eV/8085cGiMD96bov+J32b19T+me8dDyP4Igf5xSnqM+b/+Jzb66MghPI0UG5vrPLRjB7qrxfHT80RjTXIbH82P3rMXafXkdqbdqeMQuKcIOALhnpqOe64zt10gWF4M6Z55xNUIqVMLtkB4+sAYKxsFSppBoVxnx3AfG5spIpEIlWKeyf4gy4UGjbzAwIEJNubPgxIg2Z3k7Zd+8kALBFGSEQwdw4pQaOgoqsteTdlOdERFkbG2ZUql4k2jVt5tgWDlSPKIVlxy8CtbWcx8rq2tBb8KVvBLwQqMiUCj+dHavBR1YRSaBMNxGpUCOjIuSbdTznrcLur1qi0OrGKJq1a9guyNoEoGWrNl/zGbDQLhCKVCDq8/RKtRYe/Xf5dzP/pXVKoagXCMer1GMBCgXkgjekP2toTg8mMg0qrmty5UQSQUDlMq5O3z2IoBQRDamcvTABuqF6FVd2wQ7rnbm9OhmxFwBMLNCH22v7/tAqF3YIharYoVcnlzbdX2Ykj4BDavkyM8FI1Tz2WQwx2ouobidZPeTJHsHyIoa8zMPdiBkm759HO8GG4ZodOAQ+CzSsARCJ/Vmd/euG+7QNjeYZ1aD7IXgymKdka9+6VIigu9dW1XUSttrt68PwJziaKEcZ1cGoI3jlnL3C9TcpN+CkiSgK5f/xwTFRdma3v2S5aBsGC2uV6qEkFUMC2DmotFEiX0G+QsEUQfpnFzOyK7OSupmanBp3S9OALhAbkk7tAwbrtAsJayLQPFyX0Hrhtq2RrLYH+ShaWNy4aV7OlhY3X1mkO12rVSinZ0dpHZXLct/q3kTfFkD+n1ZQKBMOVSwV6xsHIJhWNhQhEP65sNHn1oJ6VqnXaliBBJEpZN+6J84+fvEOrqJ7tx/XDPd4g7lwRCKNaJ2CrRNFWMVh1kD2hl6q1tPmDvwRWE7QqE4YjActHEslf4+Tkda8iyuJWOXbqY6VYSoHnRY8DaiLANW61EYMZWHesz+Yo6yfED5FYX0FsNBKNtb92YgoQkmLQNE1kUaJsiv/lbz/Jv/+RHhHtHKS2fx1Rcdtu6KfDl3/htXv+z/xfX4ASZhSkkWdlKUiWIjHz1vyMSNOlsTPO9v/hL7IQ3rZYdFMw+FqLdN2vbSMSg1dLxRbupF1N2/A+rHcsjwkpz226bWPnodcOwQ2FbrpJPffN3WDn5c+YX5hAlcSsxmSzSarVRZMn2WLl0rLGJAWbPLaObJj5vkEqlcFUdI7YbQcojppaQgJbJ1sPQhH/+hMR/86bOHz4k80fHrxVfRCDWO0xhfcEelyiCrlt9Fu0+W0nAdF3nid2jnCiFqS4ft+tYCdVMU0C3+nqxz1deS1YWaas/TQMUy0BXB2trynpW6hd3naI7n+WJA2P86C/+NQKCPXZJ8hLwC5QqzY/6I29x+uqvP8f3/tOPCfXupLo6bRuoWv2xoq5Yid06dz/N3sEOjvzwL7AWNS1BpQZiiNUsmqja82W188WvP8uPv/tT3PGv0S6+TGJ0nJ1dnbzy6k8JeH0UK2Wbs3U+/P3f+VX+r3/55wiyQtcjf4u1I3+N2xOkXr36vmJtKVrnsLWVJdrnowvpoV9Hf+9P7LFb5/7ddIZxBMKdusM/GO3edoEwsnOSQDBET//glkAQRPbu2cP6xiaJWJj15QtE4z2IgkZN96EYZfKah86ggDfSSbtZYmpqlof27+HMqZN09Y+h1/McfuxRFrJtfO0CitvDxtkTxIZ20BJV8stnactddMV0ZlJtxpNB4iE/uktm6twyuzuDLFRAFTQ8/gDRSAeFfIoPjr6F6U3gD/oJuwzOzaWYGOlm6tQZWjcxErzV6b8kEDr7hjFrKbSabucTr2ktujo8rKwXt3eI+1ggTHQIrJVMHh6TWC/BetHA0EyUpkkwLqGL8GsDAn99ymSpZmDt/PfHReoNk0Ld5KsTMmslg6e6tuos1gysd/1LAqHdbNI9shNT9hNMjlOb+s9kjA6e/vzT/OQ7f8rf+c3n+LM//h5dD/8am2//J4af+32aM3/FRk5j50NjnD5ygsRj32Lt9T/mqW/+FpvLy7h7x9DVHjxqnbnTU8jaBpMjg/z8J39NYngSXQowfugx/JJAtiWQmT9PNbdEq5glv7nM5776N1lfWsI/tJs2ARSlycIb36PWlBj1FJleS3Poy3+b5dNvIske+t0FKnu/xcLPv4MrFGdyuI9Xf/AXdIzsoS0G6PZmmDu/QqNl4o/04+2IoeU3ya/OkhjZg66EyOem0DczfOlhhZWMSatpspQ1aNRN/vEBkf/xmMHhhMC7qWs9mgSSwxO05SBjB57AK8GbP32RZ770FaamPqCeWaG0Psv+3/hHTL/+M7yqzOShJ+hIrPLyqwod5hKd/V28/oP/QNNSdR8rzx9WWM+aaJrBgZDAD87r/O1JkXdnDI5/zMwjMTiJEk5iljcprU9jCB6GuwP49/0qbsuVFh+rR75LJbXAV/7G87zw5z8gfOjv0Pjgz+l9/BtoQpBE/xDZxWloZOgOKCy+93PawShtOUStJeHNnmbw1/8HsgvTZI79FZ/70jO8+Fc/oqPrITZWjzHxyGE2Tk9RakN3Ikkr1MPesX7e+9lf8PxXv8B/+vc/ZMeTX6Upd7Dw6p8QjvSRz18tEB79xu+gCiZvvfhdvvDoGD955QhEBjHzC4S8ApW6+aE42t4N4NZqOQLh1vg96L++7QLBMlKcERVChkDu1FH7Lb+3ewBXpANyswyPj1OYO44cH7TDLWtKiL0DEmkxiVnMcX5+lX4PHJ9fYiA5iMffoiHGGBrqoFots7GWtd/AWuubxCcfIiplWFvP0A6NMKjmOJaCfQMhEsk+zi7nSeXS7Ij58UV8vP/uSSLJCXpjEAp4+dnP36JzcJLJvSMc/2COyWCF48tVGstzlO+SQPCFogS9kC8biK0a7nAHzUqeSvWiL/7NzsD7WCB0BQWGfALeqMBMDqo1g2zResM2eXJQotqEWFTgoFfgn7679XbbFxNJlU37LfaxPpF0yaQnKXLAJ/C/XqwT6NrBjoEkJ4+9R6h7AMHbhVcV2bd/JxvlMmpL5o3v/Sm/+ve+xQt/8m858NXfIff+C7TiE+w/sIcX/uSPmDg4zvKFNHu+8HeZ++H/RtdDXyS3NkNg9CliySE0NOTMOU6dnGK8v4NjR4+w56lfppLbQImNEmqvYPY/xsLUObTMLGN9SY69/Rp7Hn2W7OoMkb3PUdbjmMUFOqUUR197mW/+5m/xwr/7/9j91DfYPHeUQP9u+roDzGa9dCspzs6uMt4X5b2332DP575KOb9Ju57B7wlTaOn0JIZYX7lAV1cH77/5CsHuYUxvD5VGGmPlDF86rHJq3aReNjgUhp8uGHxrv8S7cwa4sEXNsQ2DqA/SH66QC+z/3Jcp5jZRYmMEjU3EvgmkhsLa0hTpxRmM8jru+Bg9XTGCg6O0jTijgyt8/0cCCe0c8a4A7771GmNJkdl1g0shJCyBMLVh0K4a7A8KvLxk8EsdsCYIvLuxJVb8PbvYt2ucpXSR0toFjMoa5WqT3WPdNBOP4jfSbNJHnyfHu6/+mOd+4zd55S/+nIkv/T6NE9/B7H2ESFhFj+9iaeo0AanExomXbG+hfQcfI5tNoSTGiNVXYO83WZg6TfXUd3j0V/4mb/7n/4i/65fILn+foX2TrH5wmtDYPsb7B7iwtMpAV4hjb73K41//dRbfeR3X4CN4Qp0c/8H/jT/QT7m8xFBcZD7zkTDa+fjXcLXTbGohxrpUjr70A5o9X8RcfJHJXpELa4btAny3iiMQ7hbp+/M4t10g7Dv0KPnADFIuwvyJCyAIDA0O0cBLr7fEybOruBQdyeOnqVnW+xJdwxOMdfs4+t4ZIgGVhZVNRoYHWVpYINrRTbOaQfAlCLXSSPFBJEEnPb9K22wiByKEAx5Es0270cAd76ZVzqL4wtTrFVSayKofwe1Hb1RRXT7qtZIdbCeT3iAc76VrbIRzb/6UQsvDgckhjrz8Ko27JBBu+bS5jwXCLY/9HmrAWk63tqtKG4u/YK8EnvzlL/HGD17c1u/9iX4qqaVt1UVQEEefxDj/yrbqj4Xg/DYXsLbV4MVKvzEq8Oezt7aAbrn/9g7vRcvOkCpc7k3ySfqy3bqm4EZVvbS07SceE1zDCO1lDL3F830CP12+wZg9PQjuBmY+y9/csRVI7C7qAxyBsN0z4bNZ77YLhM8mxk8+6gfZSNEShThhhz/5SeH8wiFwlwk4AuEuA7/PDucIhE9pwh5ogWAZno0Oos4ufEp0ncM6BBwC2yHgCITtUPrs1rntAiHZ20c4EmNkfOITezFM7NnD2VOnrjEbAsmeJL5YPxHVshKH9OxZIv3DxLt6mD97gqboZXJigtTaEkgSrUKBVLWBtLHGxsXtAsud7fHHnqRUSKF63DQKNRSPy7Z01svLmMEBvNRoIZMp1Yl6FTuW/9L0CVxde4mHFMrrcwyP7SSzPMd8qUl5eda2gs7ls5/oLLokEKKdPbQrGUTZbVtoC6oHt1ElU7q5a53XY7lIGXbciWbTCrt8/XK3AyW1EjGU1Cdj8okAOpUdAg6BWybgCIRbRvhAN3DbBcKOXXsoKX46/F5OvfEzLLceK03zbLpB0m8giSZuQUcTZeotl/2w93tlRE/Q9u8pZDPUc1lEr4dWtUG4I0JLl9i1d4ylVA2PqeFWJc4fP07PQB+6J0gtu0pLDhBR2ni9Kpq3E6/WQA0FeP+VH7NZ2zKLslzLDh1+grX1eSLxDsRSDdPrpX+whwtvv0x48klUvYLlQ72wvI6nUaQe7mHCV8DVs49KtU52fYmhmJeKmmR++TwrZ08TiPbTOz5IrVK3f9+WPMwefx/tBnYMlwRCuCOJbNbQNWy3sXqrRcAnk8vf2I/aDvRr5bWQZdvN7F4LtdyORjA8Cupq6oG+gJzBOQTuZwKOQLifZ+/O9/22CwTLi2EpWMFT8ZM58QGCINLVP04kFkUqL+DyhSivTuFNjpDN1mkpfkZ7/ZiBLsqb62SLJVz1CoVmCwmFaNxLvSWR7O9Bamyykm7ZD1IpnUMd2UVCWCdfahHuHWBxZpldY2FymovqRoZdjx3myI/+CiSF1byVMVFkYmI/m2vzBDq7cFVq1N1+kr0JKqffohIZoZpbJzY4gSxqJL0yqXQGubRKeOfTlLJpCpUKj+0eoCaEefOdYwwmBTY3RAb2DJNOlYi7KuTaPuaOvkl9GwLBCgXs94lksnU7pLDqC+CSdVKpG1uJWQJBYMt33krWVK/f2GDrrq8g9HWjLD+YUTDv/GXpHMEhcHcIOALh7nC+X49y2wXCwcc/Rz6bxu32MnXi2Idcwt078JanWStfmYRIYM+jT9HtKvDj107cdxwta/LesAtPPMbxt95maO9BRiIiL7327g3H8qDbIJiyhPDxnMj33cw6HXYIPPgEHIHw4M/xrYzwtguEW+nMZ+m3D7pA+CzNpTNWh8D9SsARCPfrzN2dft8RgdCR7LIjKX5w9Mh1R9ERD5POFC773sqcVyxc/tmVDQR9KiUrgs7FYmXtKxfydhbEdruFFUU52deH361QM0RyC9PovjjtctYO6XqvFEcgbG8m7LC9uom+zbgUckilXbzaYNMOy6ybGBfbEVxbKxyXhdQXFeqj3XhmftFYBtsbk1PLIXCvEHAEwr0yE/dmP267QBgen8DnD9A/NHLRi0GgszNBuVLF73VTLubweINEwh7SeQ3J1KjrCn6XFQBllLXlBdLpHF3JTtKpDfzBGEa7wa59u2lIMQJGEZeq8Ma7Jzm8bwJ3IMLqhSlC8U5qpkxCgbYIQVHgrekFooV51rz9CJUcasBHejNDsrODfDZHo/VRApa7PT0fN1JslXMIsoqpt2m0DCSjuS0xoyqyHW+g1WridrtvOIS7bYMQ9glEZKibUGqCaOXHcMFG1STuFex0z7sGRNY3DdJtCEuwWoEe39bfnQHQrOe8DJWyieQW6PYKzBXNrTplSPjA5RFYSF9UfqKIf8iNsVznt3aK/OtTOqOJrWiLogLlkongFuh0wWJFwD8RonIm/1HIBpeftlaxDukUh8BngsBnWSBYht2adu0kbZ+Jyd/GIG+7QLCMFKdNlZDeIn/2uJ3kZt9wH2ttP6H2OoNjY2jr52j5OimWdBpykF29bIVaLhe4MLtEr1ewQy2P9gwhe5p2fPOBgSiZioxcTeHxenjnvePsHu7DFfRRyReIdvXTEe8gm1oj7BHYzIvUzDyF+TnEvr10yToz88v0eCRm0jk6Y1EW166dGGob3G65yiWBEEv24qJKtdTEFAQE1Ysk1sllyzc8hmXJ0W417ZhE1sO/t7f3xvUFK3nOTaLYiVamnEuBcK/TnGC9it98KWakU7RD6OYFkUMBk5NlKNatMMoQ9Qn2/092i7RFgVrDZDFj0OOBtdpWsp6IX0CUBQoVA1EzaQgwERbImgI9boHTaYOQz7I/FdnMbfVHUEQ8IYFaRrej0v3HaYN4cKudYs1EbBiE4hKBtsFsESS/ilFrfjic1sgw0uwFxG2uVtzySeA04BD4lAlYBs6WF9RnseRyOQo3WbH+LHL5+JjviEAojpzEmI2zcTplezE8/PDDrOdq7OySOfLWaXzuJmqog0q1hS5IeEJJJsf7OX/uPD1xD++dPM9jjxzi2PtH6R/ZRT23gBAeJpbsxtvK2ysIb71/mpBRx5XooyuoIPmC0KwhyB5iQYWGoVJT/Ujzb7Hm20Gg2UCWmxw9foZHDh9g9cICi6nNT23+LwmESGcvbqNAtma9bhdpCSK9fTGWF27uHmityOTzeUKhENFo9J4SCLt7RYbd8MKswd4OgfUG9kPa+u9gl0S5bqL6BTspVkMzubBu4FLh810ir6wYBHxbaRsHwxDSIS9DpA1vbBg83SXy6rLBoW6RXBPOpS4KFkHA0+emvlTnSzslXp7RCV5sZyiy1c5cw2QyIPCDCwbeXVFqZz4KoWuqXtpGDeVaSQ0/tTPFObBD4M4RcATCjbe07xz5+6Pl2y4QAqGw/WZr5aavVj56C5ZdXqR2De0aYtUfDKOKbXKFyh2hFg6HaDbbdkAhKx10wB+gUa/QbH16TwJLIFguirdSrLj01iv5TVcGtnsQa1ni1kLlX/NI1v6/fmtD3e4IEFQRczvGJqKAvWBi5T7+WDHcLsSGs+y4beBOxfubwB265u8HKHfgVnc/DPsT9fG2C4RPdPTPcOXbZqT4GWboDN0h4BBwCDgE7hyB2y4QLAPFrt5+xnfv/cShluMdCRKdUZpNgdLmPIFgBNHtIZPJEwt70ZUI7UqaqtamJx7DkCTyS8usVe7MysOdww53RCBIHgbibhY383bXXZ4wulagfcXb+8OP7uXo2ycvG56p+nh+fyenU15Si2cwrmOvEPC4Kde3wkBbYa7jUR/nzsxc1lasd5T+Dh/Hj187roXqiXN4Vx/TUyfJXIxyaTXg9gfQ2waTE+Msz0+TK9w4muR25ufKJdRDjz3MmaNHqVsrWYJId8BkrXT5u4QpiAwO9bA4t3zZIZ55ZIyp2TqJrjDG2ixTuQai2MF4O8VZUSAR7KJn704KK8sE5s5zUrwy5sflPbZWs6z+WStul8rHjcaSPZ1srG5tgx18/CHef+v4ZQ34InF8LjddnT5OnJjeDg6njkPAIeAQ2DaB2y4QRid24Q6E6Orq5qcv/KUdvfDhQwdZXN2kOx5ic2WOaLyLtl5HE0J2aOJS20MiJIOvgycmevjJ0bOszM7i9ivs2beX9998m4MHdxEP+pAlgamUzs6ISa6lMH3sXTK6yq7BJNmNefzxYVKpVSKJXmhWmJm7NxMG3QmB0H/oizzaXWd+s8BGusbg5EHWTkwztjuO3tA5Nb1E3YBfe36A2RmNWqtKOJrg5LkMD+2J0S6sEO4fZfaln9C7+3HWMnnGnjqAsjlDta2i5aqIoSgn3pth//NfwIeOVp3m1FSDni4/M+cNHj7YweLyMrFogJ+/8gZPfeFZ1leXGBwa5cxrbzH82EE211JIlRTJkIwW6mP13Ayjjz9Cfr6ApKY5PZchmhjncHeNlDKI6BGopyvohVn8vbsIKhXkssmR5TSH+vwcX2gwNBhm5myKh8dFvvf6mQ8vgHi8g0wmbf9bECQmOhNInWE6e4MMjvQhr66ykJcR9CZnW708u7+D1vlXOVkIsTums0gf/aE6a6sZBrtDvPbmKl0DEQpHT5P4/JM0yw20U8fwHdhLbmGV7sefYOXIa7hXN4h8/hmWFxvsn4yRq1WZefUVRp95luymxq4BD6ffPUtsJMArb36Uf6S3r5+V5a00ziMTvazOJnni+XGS0UXeebtEX2eEhq8Lfel9evbuIkONt75fQKod5cbZOLZ9T3AqOgQcAg6BrXvmk09/3n59ajbqqG7PLWOxvBjOyzJBQyF34ogtECIdg/T091BfO8PIzp2kz72Dp3sH6XSdphpi35BiezGcffsdOuIhBvp6ePPI2/RPPsp4j5fU6hoNl4/c3Cr9SYmaO0ZxepmHv/Zl3vzxDzBDScLaCoO79jL7zjto7i4CYXAlhnnnlZ/d8pjuRAO3WyAIksLv/I1HeOHtEk/sjaKZCm8uf+61AAAgAElEQVR/sEZYkhmdjLF+fo69h/bh88qsZtZYPr3AWtPD/p39fDBb4vCOML6wh7d+8DKP/eZvMffd/0jV9ND12ARqsBNfcZN6Okeq2qZCgt37R0llisRdq5w+26C708vMBQOlucjIcBeG18/5195k9xefY2kjzURvFwuvvM60YNA1vBt19V3WjCj7do0wf26GiYOHSG/M45bh7PwmjbqX8dAa4X1fR3CZ1GttWJ3CP/4wrdQpRKWT5XSJfaMdvHtyncH+EOfPpgjo55j9yO7QfkO/ZKVthflOhBSGY0G8ux6lN1CAVJrlsgtTq3N2rUh2Y5NAwE3nwDCejXdwPfJ3cReOIzcU4skQL710htVShknRQ/JLXyCzuICyvIRn727SMwv0P/M0a6dO45qZIvqFzzMzlSZUXSIoV/BITcz9X2Hp/BrBwlliPpNKcoS33vlI0CiKYiftuiQQls7GUMQNfuu3x3jj7TLRoAu9dxec/iEMH6LtUnnveB1x8UU+PYuaO3GFOG06BBwCnzaB2y4QDj72JDljCaUZYOa4deMTiFl5GPxJ4uYqM8slZMmwEyK12wbWcu7InsMMRQ2OHjuP1yXRaLVpNaroVrYBE5otk2TMx1quQWfYS6Opodd1Qp1xSrksUiBJn5rmzEIRK7COgcTuQ4/jJceb75z+tBlf8/i3WyDck4N0OnXbCDyya5h3zsxd1Z7b7SPR4WVpeWuVxCkOAYeAQ+B2EfhQIGj1Goqq3q52nXZuQsAK0HGrXgwOZIeAQ8Ah4BBwCNwpAh8JhLbllx6/U8dx2nUIOAQcAg4Bh4BD4D4i4AiE+2iynK46BBwCDgGHgEPgbhG4SiBE4wl6Yz5OTs9f7IPM6HCC2bm1bffJ4/EwNDSI5bJlBfFp623OTp2jsyPOZjpDMNpFs5yi0dJJJLtIbaxvu22nokPAIeAQcAg4BBwCd4aAFbp/fGSARw/u/ciLQbu4xbBjZJALSxs8c7CfhY0q1WKd8d0jbGykkfUqNc2gaar4PSolQya1cAH9ipBUXV1JtFgPeAMIhTSdisHUmbPsP3CQxvoFuib2MH16inA4wGaqgOgOkYyqnD17nrYJbrcLWZKp3YZog3cGodOqQ8Ah4BBwCDgEHjwCsizx937jG3z/pdevFgjjO0bJF4oMRlVC8S6WFlaJdHdQaUgMxU0q5RpreR0kmY1snnI2ZXsafLxYAmEz1A2hGMLmIjFXhtR0jrHBIeK9Sd47s8po0sfoUIK5Exeo+eJoWpXK6nlKbXC5XKiqTLVaw7iy8QdvPpwROQQcAg4Bh4BD4J4goCgy/8XXv0SpXL1aIGynhyG/n1hnF3MXzl+zutfrtVM8W0VTG7zwX/4rHvrDLyIrjpfEdvg6dRwCDgGHgEPAIfBpEji0d/IXEwhW8BkBy7Zgexl4dKmNpMuf5lidYzsEHAIOAYeAQ8Ah8AkIfGSk2Gggqe7r/tQ0TIQbxJYPHPhbn+Cwn7xqMzWNtnJ5LPpP3orzC4eAQ8Ah4BBwCDgEtkNg25EUrYQyn8YWwf2ar1wUrCiQTkLR7ZyETh2HgEPAIeAQuPcIXF8gCCCoAqa29ZC70wLB7/djuVdYxYqdX61uZfJzqQpacys2vVVMd8D+W2iUr0mzvffLyCdfvOZ3fbLEcttK43d1MWUX+GMIhcvdOV2CQFwSsfLyrVzjt0YwgVjJgnF5u7KVpU/f+iwej+N2b63OWG6fq6urH3ZAEEASJVtMCILwYd6Ae+9UcXrkEHAIOAQcAp8lAtcUCIJfRBlxoU64qf+sjJ5uXyUQQpEku3cOcvToO3Y64e7uPtbXlrHkhPXHeqBafywnBGtn4uPv0tZD8sqy/6EDuNwu++NqpcLpU1sZ7i4TCIJE6+CvIJgGwvJppNSFy5sRBJpf+YeoP/pnYF5uH2H15SGXwolm6yq3TKunzS/8HmawE+XNP0P8WLuWZPnvowH+91Kd3YcOMT09TT6/lU7ZKu3hhzHGP4frxX9uj/zS2D4uEL75zW/ywgsv2PW//Qd/wB/9i3/x4e8tURTweVFVFa3ZpFS+/1JXf5YuGGesDgGHgEPgs0LgKoEg+kXUSQ/amTpKn0JrtonZNq8SCLFYN7lCigOTYyT6h2mkVzizkCG2Y4zq+gZhmpRMGTUcQ1VddCoaTVNGocDLb3yU3vYS6Obnfxe8IfufQmED5c1/c5VAsLI2CtUc7aHD6NZD+fv/82XzZLr9NJ/7NsqRf4eYXb7sO1mAb/o9pNs6r9WblwmWSxX1kUeRLrx92e9UAZJeL82Ghm9w0M6fMD9/KYgU6J2jGN2TRM6/bEuiSmVrZeNKgWBl6GtqGjt37rxKIPh9XltYWNsSRUcgfFauPWecDgGHgEPgniZwlUCwVg9cuz0Yx1r8+q/9Gi/++Mdks9mrBEI42kVH1G9HRuztjlMsNfD5vORaIv1RF+VMgWAszma5wY6xflKzM2RKNeIhOD19dVTGJx5/HLdnK910qVTi3XffvUogJBIJ9uzZY3/eajb5+euvfwjXWsJ/4oknQFJAb3H69Gk2Nzc//P6h/fuJx2JY6wrW59b3l0pHRwd79+4Flw+tmOWNN9+8bNJ6e3sZHx/H7/Nx8tSpywTCpYpW9MhGQ8O8uHJxpUCwHv6WSBgcHLymQGhoTTwu1REI9/Tl4nTOIeAQcAh8dghcc4tB6lFR3TLPjD3FW0eOUCwWP7ENQiTeScAFhbpIWNVY2sj9QlSvtEH4hRq5Cz8KBoO2rcHc3FZK3o8LhLtweOcQDgGHgEPAIeAQuK0E7nkvhts6Wqcxh4BDwCHgEHAIOAS2RWDbAqHV1C63NNxW804lh8BnlcAlQ1zLPNYpDgGHgEPg/iOwbYFwp90c7z90To8dAtcnYBmd2oanF113HVYOAYeAQ+B+I3BdgfD000+zuLDA2to6zVbzE9sgbBeEZQB4qeRyOWq12rZ+Kskqeru5rbpOJYfA3SawHYEgiCKSKNBu68iCSttsEu+LkVnO3u3uOsdzCDgEHAJXEbimQFAUhW//g3/A+dlZzpw5w/zCwlUCoatnlFhYJZtNUalpiIh4fS5ajRbVeh23z0tbs7YldMrVxnXR/1ff/jZTU1O2F8GPXnyRc+fO0TO8k6hPYW11BdNo0zRkXKoVrMikUmsS8KgYhkKpUSPoFsnmi87UOgTuKQJXCgTZE6RLqtPXE+ZMysBsVpEUmXK1TSzqRSiHaChFnvu9p/jp//EyTUFGNTWK5a2AYU5xCDgEHAJ3m8DVcRBEkW984xvo7RY/+OGPaLfbdp+u3GLo7tvBQHcAv9JgOS/SFe8APYNUSpOTEvQl48zMLREWmxw5u3jdcf3Xf/iHfOevvsPf+8Zhvvfj1zh2Ps+uw09y7tgRHpvsZk3z024YtFQ3fUkfetPk3MwF9nQISDufR06d4bV3nBwNd/vEcY53YwJXryAIfOvv/zLf++Ex9u3YRad5mr96O4d3YILnH97Dq//hZaRgiWd+9znm36yyvrZOb4fCkSPHHNQOAYeAQ+BTIXCVQLDc9Q4dPMgrr776YVRAq2dys8EvNyr2W7z9b1mxxYPf68JARBBEBLNthxy2IivKqoum1kRVJCq1+nUH94Vnn7W3CkKlN6jWNF6acaEoLlTVyv5ohWDUabYMEARUWbTbdsmCHXPAkFRUQafW0D4VeM5BHQLXJWDacTXt8NlWaYgiL3eOYDaKeHx+BL1OqaYjufx43RKNqoasSigeEb3WQtNNVBGq9euvvjn0HQIOAYfAnSSwbSPFb+XXcWOyZuUscIpDwCFwEwJbRoqWcLbKuFbjX8Z6aFz8t4PPIeAQcAjc6wS2LRB+P7fK98f3o4nWm/0vXsqlgp1rwSkOgQebwOUCYY9WZVb1UHcEwoM97c7oHAIPEIHLBILb60NVlKuG12y1+N3MMn8a6aIpX/39A8TDGcpnhID1dm/l1bhT5UobhD2NCuddXnsFYWtlwYmPcKfYO+06BBwCt4fAJ1pB+MveUXJa847eWG/PsJxWHAI3JuD1eKhu06X2F2F5qwLh0MDFNOsGfLC8JSbkaD/t3BKmazdS6zS3Q9/4LRuh1uWpyk3Vj9Kq0L466eoNUXhUF3UroNo9VGQk2lw7xfu1uulyKWjaR+nlrTrhoJdisYopSkTcIvm6Zbgt45EM6oaJR5Ko28bcEl7ZpGYZSt0LRfLSEzRZzV9uAyaGuqG0bqeY7+xKsLmesgWrx6VQazTp646zvJaxRxDweShXr29DduUwE0OTlFanaTSvz1xwx1HaOZq3gZOphAgplj3Plsu7aSp4PVBvXD6Ht2M6kkMjZBcu0Lp4XUS6RylvzNp2cQ9q+UQC4buD46yXrt4ecIsGDWNrr9UpDoH7gUDA76NcudyF0ApqdKNVBSupVzqdvmx41o11YmLiw8+sRGBWcrMrBcIfPnqI/+fI0atWEGRZZseOHbar78fLFye37kLWffbVaQHfvm8jujfQN1epblSR1DayWKFZWMLXNcZI3M38+SnKDZ3dAyFWhB60zQXb7dgQFHbsGWfm1FkSHV6KuQLNtkzb5cHfrCDH4jRLBQLBAJupEl1DQxQWzzPSF+bMYpZEZ4JSfsu4slDM0xG3krNV6O5NsrKawS9U6OzsZGkljyErBPwCminh0ptYWVSbbZFs2aqTYDNdoCPsIZPX6OwIYvj96LUm5dwm0UiE1GaKjs4okuSikCohuAQ8HtU2SlY8XrRsBjEYxmw2cFn9yeVIxGPkijX8ClQ0k0hYptQQEFo6/VEf06ub7OiLsZIqYEgSLq+P3qDKYl5D0hpUrb66FNxCk3JNx++WqdRN/K42DcnLSDLA6kqOalvHZbQQfUEa1SZeoYUciWBWyxjeAMVciYisQzBELlMgFPRTa+s0qyUi0RjlQglf0E+joRP1G5RbXroSETY2M1QbVUZHu7kwvUwipFD3xEkGBdoNk1Qmg+EKU0ytEh/bi5idI7zzCfInXrONxpuGnz2Hxjh5cp7upEo1X6KutSmZQRJqHTESp15vIrVqVBsSA3sPIfuCrB39HoLbg+KNkluZxevxEu7sZbDDiyJovPr2OaKxCEogRnZ9kXiixxYVhdQqweQA+fV5kt1DVLU2vSF4f3qV3/7mc3z/zZP4DY3NXJVkl58L8xv0DA0jNCo0JB/UWwRddUpNHUPwElIaPLR/F68fn8MttFle20QU/YwPBihoKgo16qKHsFFGUDzMLKT53HPPMHVqGtkKSCa2CQUDrMxPU20GOXxwiPnzM3jivZTWF0gOjLKxtEKit4uNpQtUNYODT32BuXdfs8VeR98wemGNWPcgqaUlQh0d9vnqF5qUWi4e3TvI7PwGcsBLNZUl0hFkemae0ce+hr9ygamp8wzvGGRmZp6JneOsbqzTGQowPbdI177niCgNNs6+TdV0MzLQw3pZR61ssFm497farykQ1Ek3eqqNntdB37pRWTYIHxcIou3NIPDNSJHzmouTNQ8PPfwkJ957A8O4/NUj2jtEZW2epgHdI5MULkyRGBmnJx5kcXERw+Unt7lGo9EgFusgm738JrzdB06sbxRjY4F8a8s188MieYiFZLK5MorLy4HJJO8ct5IqSRx64lF0TcMU6xx//wJ7xnvo8Lt59fQaA4k4EbXOfK5JGwWv4qLDVSWnCRSrOomIh8xmikrDsTTf7hx9WvVcLheRSNTOtmk9xK8UCJY4iEXCGLpBvlS6plB4/LHH7ORlV5ZHH30UKxvp8vIy333hBZrN5mUCwfrulzqivLSe4pWjRy/bYpAkif379/P+++9f1uyvHti6hrQ2/OCkgOfAf4tZPU5rc5aW+CzBxFlam0tolvFwtJtkUGFzbZmGLjEYVYiFw9QRWFos01J8dI4NEJWKHDu9wUjUei2O4ZZF1s8sIHZ0oDVMVGoMjnQxtVInaNYQRYFWIUVD9aJ4OvBpKbySzlLFICDLGJEEQbVNT2+QjTPnSVU8dPRHWFits3NvN4VsCSGfQpc9rJc9JNwVAl7JFhGrSw10QWdgJEE5naLS8tCspXH7Owh6TLRSiUpTwh/y4ArHyK6s0eFpEh4apbS4wHLVxVBEwGjXqehu3F7Qyg2iXZ2cX67SP9jF2rnThMMJZKMIihuMNoJXxRfwo+TXqbZUdH+QSl7Dp0gI7QIl04tXahBK9lFpGEjFddSAn0K+TkuQCLbrmMEQlYZERG2wmikS8rhQQlEK6TyJgEzNsISKC6/SxifrqGKbCm4qDQW/VMXrklnL5fEkRvCpTWrZCoZbxShnKdXb9MZ9KOFORNXD/NkzREJRNEGmkk/Z54SphPnCoTEkn4fm3FmKLZWiL0hXIsR7Z7I8cqgf0WiTzbUJ1NKsrc0zPD5pC1dvVzfzlRDdyTiFEy8SGN5HUs9QKWSZqfXgrpxjx+ROAh6Rl14/TqhnL0OhBqYIK+dnEb1+pMQ4fa4yzWaDxYVlBG8XAbXE2YUsv/rcIbKZAhv4kPJZphdX7PWbidFBDENCSgxy7tw6u3fGIbuE4QsyuqOH9up5iq0A+VyO07OLPP/1r3Hkpz+mt7uHcgMSYyN4AkHq+Q1Wjh8nsuMhRF+cCydPs2eyj9TcFDu6A7x+Ik1HTCLUu4deX4VKqUSmYgUiC6OqJfwueHe6xMRwN6Ze5sRsmi89lODlWYmkskmwc4LOQI24F5YzGidnUkyOdZLoipJqu/FXi5xfL2FmV/Hufo7N6WM8cnCczNoqmWwFV9cInUGRzNoSlY11zOEn8LcyGJUN+3yzhNXS6SM0rnxGfVo3xpsc95oCwffNMM0ZDblbofHzMqZmXiYQPKLBr0WKlHWJ1abCu7WtNM1WGTn4HENRkWajyty5WUb3HaTQrhNua9Qbdd557zim6eXxZx+hsLJIXbcCIi0gSTL1WpWhoX3seWSA9uY8P3zlFLv27CPkd9uxFlz1VSKJDqrVFomYSTSkUsy0aJoCr79zYuviMYM88ewhvKaG1sggqh0szGyQGEkSMjVOvX+UTU2gNx5hJVPmS9/8FdqpC7T8fl772Qc8eWgEsotkxH4kWSasVtBaCrO5JkG3h744mE2dNSNCZnmeqFljuVC4R6fX6dYlApZA+MpXfoljx46xtLR4TYGgqor9pmo9GK8UuUNDQwwPDbO5ucHpM2cuA2utInz7D/6Af/fv/z1WNNCt8/DyUMv/09e/yj/57l9ftYJgBSWz3IWt+h8vv7LvI4Hw4zMCgm8YV8yNtr6AISTtN0DRyNEqLl01yRODHZxdSKP6I7hoIRoGddFFu1Yn0eFhI10hoOiYuk6zLWG63QjohPwBUqUGEa+CXi9R1nQ6w26ylRaC5EZq1xEFE184RqlcQHV5EWQXitzEbIlUixUExYU/INA0RZpaG8lagne5yOTzdCYSFCo1Qn4X6VQZEx1/wEOlXEFWFFugpVPWDT5IsdrEbFpB0tqovgDNaplwPE4jl0UOhtG1Kh5/iHwuS0csTr7SwC3qNJoQDsmUGwKNcoGOjgT5XNpeBg56VUzFD2YdVfGitXXEZsPeJjDaTVscirKKZLYxFR9eoQauIKqoUyhUaRomXsn6KEK9XMJ6D4pEw5RyObzhKC2tgVarE4pFyWXyNitJBEk0cQci9iqMIBhIkkjA76ZhqngUiWw6TSgaR5YENjdTeFwyLdFDQGxgqAFa9QqSP0ops2HPtTvUgVHNooQ6ScbC1DZXkIJBysUWXUmVc/NlvKqJjIEqCZSrJULJAYRmhYbowy8a1JApbiwSjAQJR7tYX5gGUWZoeJhiNk0g3o2WXiJdbZLsGyS1ukDbujZkBUlViXX2kl65gG4xVFTCoQhrGxv0JaNU8BIWmmzmS9Quvjw9/PBhlufPUzVclEt1RL2B3yvhj/cgU0GQgtTrNWRDY3UjjeiK0BMwabmCKGaNii4iSDJGs4nY1DBdPvsFr5AvMDS5hzgZTp1dxDRgcMcoK3OzRHoGya9eoHd4nI2VdUxTw+2xrggvpdw6Hl+QcqlI18AIpbVFrC2EzPIyiktEkQUs73rrOe4PRtGbJZqiykhPD4VchsX1PC5/kP6Eh7Pnltgx2sv5uTXGhnrJFIvUK1UkQbLF+WhPgMWVNLIgEI+GubCwgH7FS/S9eqe+oUBQx13UfljEbFwuEKzBJJUW3UqbYx8TB9bng/s/h9goQb1EUJXwdw1Qoo27sMFyusL6+qrN4qEDh9D1Npnl82QqbURJolGvMTCwi54BGVH28sbLR3jooYPEwn5OL5bILpzh8BOPkt1cp29snFB7mVrTR6lQ5M3jWzdt0wzQ1RMmHPGS7IsjFHWW51IEB+Lk5qYR6wXmqgJj3QnOr2U59NgB8g0/tEsMR0KcnT5FXEiRTz6Pu5Gitn6S6MSzzC8uEFDdtLNT9O95iqlz59g/Mcry9AxL2a39OqfcPwSutcXgdqk0tGuH77a2F77y5S/zb/7sz645yN//vd+zBUKpVLqmQHCMFO+fc8PpqUPAIbBF4NpbDHs9tNdbGNYWw0VLpSu3GG4VoJVLQVVEGvXGxdBL126xZ2AIv2wwfeHa0Rh7Ii5W8/eWYdStsnF+f+cJXEsgWI4FV7zIX9YRazvg/2fvzWItufP7vk/t69nPufvtbnazuQ634QxHQ1njSBnN2LEtSEaUByOwjcAOjPghgJE85iVPAZKnPBhJAMkOAidxvCuOY9mKNNKMZkRqSA7J4d5N9nL3s59TVaf2Cv7/2032xmFfNrehzh9odPe9dar+/1/VqfrV7/ddiuLO4CvbtklEq+raDu4VpPjpR2B5hGUElhFYRuBnR+BEIMV/tLJNZTtL2+flVfVzHwGhchiEd2cM9nEWe7cJguM4iMQjuEEb5L5uxa88VGEZcOFI4d+9pvDMuYd4/uKbJ5qKQHi3Gja2BgeHh7R7PQnqihZzdL9Jk4gYQ7bsdLfG+GiPTqvFIk0xLJPpaHyi4y03XkZgGYEvVwROlCD8Vn1lqQT35Tr/y9V8ShGQWgeq+r7d889qMXzzm9/kRzeAHwVAsT+c0/B0zqzZ/MM/Vnnm3FOE4z7xtM9T26f591d3eGbrDJf6u/i2zU8GQ+ZZzvnz90schQBMdrfvJ85KzDIiHA3QmltsrVpcefuArAx58MFV3nl7xJqf06+act+O56GhUpkO4TVQ3KcUouVulxFYRuALHoETJQj//Fv/LbG2lFr+gp/T5fS+ABEo85jpq//TRyYIpmmytrbGlSsfgA3/8uMV0+mclabJasvkt/9Y5Wv3fYULB/t824z43bAicNb5ulXQzef8m0mArqkEccLTX31K6ju8+eZbeJsPQxaSzce0yoigcUruc9Q/orm6wsG779GwNJJSJVZtkvkIMR9P11nYTeLRMV5oOZYRWEbgz2YE7ilB6LQ1xqMCoRPRrimM5idUVjlBzDUd1Apu0XRhq6GwMz3ZcQVlp2YqBPHJPneC6Z54U9G6rvsCcXx3c/JqKnFQXmehvn88W4c4B89RCBfH++q2FAbjCsuCLEWir5t1hcns7o514sXc8AFdV3ComN/CPN3oqOwNP57CiCi9C10awcDtODC8Sx2XRlcnHuckd6+bc6Kld3s6g/7xQu82QbjTAQQW4tceL+nV4V+8pDAMFClkI5RGiqpCUxT5t6oox2yJD5llhU3NygjT8iZq5a1KjjcyKMRxxP9bLZ/x+IvP0z7RCVpuvIzAMgInisAdE4R2s85kFtBs1BmNjyl8AqR4awWh01ERwst6DmFRoWgqalJg1DTanoqVl7x3VPLQWZ239gu2fIWjsEKKXlUVs0WFpis8e0bjuUs5mqaw3tXoKCUDVMZHOakqFL4UXBVGCbSNikxTScKC5orOOafitRF4FhxMKjZ8hX5c0TQU9mYlZ1c1MsHnnuaYrsoghKZRcTSv2FjR2NnN6bQ0BrOS1Z6GeMDuDSt8wd51NLK4xK2pJNOCjqVQGgqDVDz0SgJFxS5ga0Ul08DWFS5dzaW4Ta+u8PZBwYMbOrujkq4HgwV0rArN1DgaF6yuaOxezWnXVVa3dIJZwe6o4twpnbcvZygFnOpoRIsCz9PYGRUIJwyhQVHqKqYGSVrRbam8u1fw0KbOdFLgd4TmQ844qDi/pqG6CjsHJefXVN4dglsWuA2V3X7JVkNlVlToRYWjq1yelJzraQySkgbgNzVev5CSKQrnWioiB6xZCpeHJVs1SDSVOKoYRyXnN3S5rpanMhoXuK6KbYvfKfimwjitaJng1DSUpCAuoWZrvHuYsd3TScOSTJTEGxqjSYVSljIpDJOKs9sG7+7krNRV6ls6+ajgrb2Cxx82mfZz9kNY1UtywWevShxXpQgKKksjjEo5//M1mCgiFgWnNnRUU+HdyxnnNnTe28np1lTKrMByVC6NKh7e0rlwkHN+XedSv6DjqVwdFzyyqXPxoOThDZUr8wo9KvjWQwa/+0aG42qYaoWqxbz8u39fVhAsy+Qr0ZwLtsc0O6Y0LqWWT3SfWm68jMAyAp9DBO4pQXjwvMGGVbE3qkgqeLCncjQrGU9KJqh0KBjMYWGoPLqtkkawCAtyR2M2KZgsKnptjYYu3uZLRPdivanKt7yFeJiuaczFw1iF/qSk9DQWk5yHtnWCDCa7Kac3NaaCI6uIBOL4zepco+LdYYVla1w8yLlvTUeNCxxHZXpQcKQrPLQlHs4ZD5/Rme/nBDnoPYM8rXhkU+XKqGI8KXAtlUZbkYnDdL/gcgjnVhT2YoWeWdEflJh1jV5LYX8nZ82BzFZ5u19xyoB35yXPPmywNxYPyoqeB0FYYfga4SCTyVM1KXhpAk+f13n3oJJ21okq6NolfgU7cUW8KNn0FDZOHZtlXRjB/T2V168UnLIrqrzi9WFJx1VYXTMI5zmRruOVBd067A4gEbzeSqFnlBS2QlmoCL3e86dVJvOKw0lJWmpYVaGXjkMAACAASURBVMm5bZVLRyXxpJKJVqXARlul7ShMUzi9rnHxqCSbFzLx+PGlgvu3dQxNoT8q2LLhyqzEUhRqTRWnrjG4kvHAKY39Qcm8EGJTJbW6JujXlEmFrVQ01IpxpRJmCptuJXnNvQ2VP71Ycb4Lbx+UPLOl8r0LOYatsm1U1E8ZqOOCeQYJCqtNhcmgQMlL4rrOeD8HW0Vkmac7Gl6S8/zFgiceNagZ8OOLJQ924J2jkmdX4fmRIjfvNlQujisWKfziWZFcVhzOK4bjErepsSKO7asko5yL04rehkHSz9i4z4SDgO/9/nGCIMZJaY6PrFcy6f3priKE52h5Ncbh/FO7RaiGSI4+XkXnU5vUcsfLCCwj8LlG4I4JQqPmSxnaWs1nOju+Kd2pglCrKdiKYEIqdDyFUVxRRAVuXZdvbaKKMBgXrHXFw6SQb6bizfNUSzwAFfYPC2xRCo8reo6C46lMo5KmrVBZClNxkzcU4rwizcEyFfKkot3UCOcFGz2dMCwQLMeiBHEvFuVz3xRvncf/PtNT5bG7nkrNUdg9KmjWVEZRyWZPY++gwFAqShS6XZ0wKOTcrLTErmkkUUkh2hsqxPOKoIBOXcNSSvn2nIQlrqOQ5BXToKJpQlAqnO6ovNsvOLeqsTsu6doKkwx8KixP42iUywrC/l4hRU3mqJxuKhwtYB6UsrJyqqVyNCmp2xxXEAa5FFMRFfJSAc9UGE5Lzq5pXBLxXdPk+jAUiqKSIh/39TT6oVidQsuB3UklfzacFiwKWPFVwrKU26YZ5KJq0VIZJRVxUsmytohBpqusOmD5KuN+IRXJClPjwQ2NVy6mUj1usyaU7RSE6nY/qIizCsdRUItKVh3Obhq8cTElUBQpRKJUFVttcS4q+RDMs4q8qDi7ovHeYSnPo6giGE2dalYg1NXDUqHIK3xVRXOh7ilcOSjkW/6Vfs4pUeYfF0xExqogRbtE4pMbqpxLx6hkJce6Fr+5uG6ikkVRkaoqX12peCdUUfNKJgmzSpFMX1ElEM/PSsShAZem0PMVGiYykbJLiKuK0+JcDEqSxeKuMAiCxdDtdrh6def9G8G3zlfc18nQVAXd0Pjt76t866GneOPKO+wHIad8j4MoYMX16ccLVm2bnUDhr5/yCMqUf7U/Zd1xmRU5ViWU/HR2FzGbnsfVIEDVLdoNn3wxYRIV1JoGpSbEzXLyqGDtMZ/9l+fIrHs5lhFYRuDPbAROhkH4c//NEqT4Z/ZSWS78JBGoipjJT3/rIysIotXwrW99iz/8wz98f/fXWQwCULjRNflffyhAik/xk3cu8Dd7cOCu8KNhxNnOCqvBHr8zmqKpdR6pqfytNYO/++acX3/sSc44Cw7GE14aD3l30eU3uiov773NywswDZ2qyMiuSalbXZtyENOoKww+A2zKSWK53HYZgWUEPp8InChB+FenTpOo2ucz0+VRlxH4OYqAkGoezuKPTBCEBLTAJAj/huvjF85WGMWcx+7zyEqF3/q+yrnVTZ7yNP7t5X1+9dQWv3f1gO9srPDuaMArUYyi2PSUkM1Gi4thxTdaPolo/y0SxlHMZJHzV7bX+afvvgeqhmUaVHkiK19i6J5Os2cy3YlkNWk5lhFYRmAZgRMlCL+ztU58racqQmfXeiTzvkRR206NeHGHHqmi4PtNwmCK6/mEwbEUraIZqFUuNamFzrtS3W4jXW80mU1v9jkwbY88DqVuuHgDqj6kDGraPmn84ShssZ8sDn+miuOtl0ej3WE6Gt70Y8OuoZFJo6mTD4V6p8dsKExYFBy/xuJafH7WvlTNwPdcZrPpyQ95l59wDZ3olieF0KkXmvXL8dERkAlCUH1kgvBhe9psVRL3cnWsyPbaciwjsIzAMgKfdQTuKUEwnBqmrsqHRp5XaIaBUmby4a0aLkYZEkUZutdC0ypMpWIqjFPEG4srjGQSkSkQxwtQdGm5mmWpNG7qrGww7u9QlCqqwDmUqpRmFsfM4xmqWScc7GB4NTTDwcinJKVBEi8wHQfDcEjSBXqZ4joWsyiXJjxxHIFqSEMUVTOhKtAshzhaYBg6RTwjrTRsy0LVdNHGJlossAydOM3xfZ88CVFUE6VY4DXazGYLqipFN12yosTSNcqyIIpCbMdDVQryvCQvSskzFzgC4YUuiGs1o2QWReRqjbavMZ9PUXRb9rBtz6fMYnTdIlyEOLZDGM6pt9cIZ1M83yGJj99SG511ZuMjue8kE1bAKmEoDEMqVMPC1FRyxcI2xdxkw1/SIYVBkaILZGUg3yzFw8goFqRomIZBkcaYpkUQhaiaQy62W46PjMCtCcLXqpSfot9m1vSRO1pusIzAMgLLCHxOEbhjgvAf+x+4M/7T4JhkLkCKt1YQat1tbC0hXmQUmLQbLuF8TJyI/xtYhMSlI53i/GaXOJigFgFBXMgEwTUUcuFUpuoo9VWZMKRJJB9s7bVtynRGFBVUZSFqoFRlimdr0gLXJGY6L+j02kRRjFYGGF5HeqGrRgGqi+0JmdmEaDqjMJqYusKgv4/f2UIR/ddwgt9doZjs4rR6zBeQzIZobgtPONRVkGJQlSphFFBv9cijCY6pMo9TyiRDtR0sSwPdp9VskoZ9mUikSYbpr2ERoZgqRVHK7aPJEKfTIwum5KpDq2HR749kJWE+mtASpvaGR5AUNBs1ouEBs0WMajg0XY3heEajuyblcx0942AYk+YZLaskjHKsdpc8nBMX4Do1FrN9vM42hgqKmoFmEB4dUqo2tYbBdA6dlSbRZIpf8+gPAtAtOvWcfj+i6Wv0xyIh0jBMjThcJgh38129MUHwPY9fUAt+klUM4mO/hus0RyGzLP4tHB2vD8Fe+EuPlTRd+P/eULjYPxlY0HEsdE2XQGPbtqSyohiaYVIIIQzAUA2yMpPOqpYSIX6qKBqi5ZHE0V1U1hSZfAoIg2q6VGkknf6KPEMzNIkavpNjnbiORLItqo5JkmHZFnmWYegqcZJjOzZZmkonVelyWeRUKNQcCxwPs4oZjsOPPAWG7ZKJlwGhA9L2GYwiTB2ZmNtqi7j8cBnpqvJYdTOOBH3lDkOcs97mKgdX9t7/rWY61B2NeRCjKxWxQPsuxzICP+cRuGOC8N/3BAP+ePzX/eMy9p0ShBvX7te7BLOPdjU0nAbZ4ubSuGrVUfLwQ41wPukY1zpbhMMdKfB0fYgbV7NWZzw9vnFUqo1rVSwWtxtBaaaLW28TDncpf5a7zyc98RPsz/XqROFxO+eeh6LSaTcYDpfa/Hcby5O0GJ5++mleeOGF93d9DFIMJMX2/k2Hf/DHgjmxxuPtOt+7cIl5kXJudZvNLOB7ozHNc0/zxKbLqy/8iFGY8+iGqFrpXDic8fRT5/jRi/sUis7jTz7MxTffpO0p9IcpG1tdrlyZYhYhK1struwGqErE2sYaQRRj12oE0v7Wxa3pDMKc1XaLSVrJqlzDKHn7vV3M0kQ3E2oNF91pcXS4R6n6VOJBn6esb/W4snvAmdMrlOGMorlFfXaZtwc5mdbmKysZF8YV+SJHc2poaR+ze4Z4cEmyWkSisdbo0P3ak6T6WcqXfoegVHng4S3+5LlXuf+pJ+hfeBvHW8HODjAUn0e++5fZee53uHAw59Szv8brbxzC/is8dtbnjTdytp+0ybOc2UyhaWn0Mxdn/w3mpslkYnK+WbDylUd44fk3eezJ87z84it89etP8e7L7/LML54hdtocvvo87tpD8oWBcsjrVysYvUeZlww/JLm42+tnud0yAl+ECHwiCYJ4uCqUiJvixxnCC168RXyeQzdEfz374IGvqFJw504r0jQDruEnPs85f/ixFXRdu+mt9Is5zy/vrO42QTAMgwceeIDXXju2KxfjOotBVJNOrVj8gx+qfOPcU/zJxXf5TT/j6upjZINX8UuD/3cwxd98kPM9m4tv/ZR5Usl/W1XIvPUY1mKXS32d0q6zvd2B+Q5llXO0HxIlIa6/xeluxdVxQDTLcOwKf+0U/Z1d1pyE3vnz5Ic7TLQ601FKkU5ZeeAxLr/6Kmu1gl63xU/f67N636P093fp+gZ6NOVAX8MmY7NesjsJCROdM6e7JIe7NFa7VFHKhUFIwywwPZd5mJCZXfRojK2FFPVTJMMrsi0n/ojx5Hf+Alee/2OeOeMwqZ3mxz++yNMbFhf7E043axinTnO1v+AXmodc7P4qu6+/QtvTObh6mb/49W12cwdVSXn5jwZ85299jXIx583vv8dgdERjvUk3GfPTETJB+POPtXn7oM80WKHlTnjq0XX+6OXLbBkVE9ujsdpB85pU45nULRGaK4eDGYeXLxB9vreyL++XarmyzzwCd0wQTusfMBUuXyuVfVQF4TOf+fKAywh8gSNwtwmCKFeX5bEU8vWxWq94ciPlvjWDFy8rPP+ewq888hSH++/y2njGI57BldLCrjIGdwDHntnscnQ0kG2hohLiYWDqOnGhYpkqugpBEFPzBdA1lC0O3zWYhUJmqkS3HLJkgVerkc7nnFrx2J9kpFWFY1tSqjqNAvxag1anztVLV/Eck3CRUat5JGFIVlX4rifbf55nMwtCGp5FkCrUHZM8j5mnKg3XlFgd0doQ7pqNep3pbIZm2uiaUDINpZ6JGG6jQTSd0nA0pguVrc0Oo3nCRrfG7u4+ul1HTSdoUr+ixsZKFyft885hKPFPilen5Zsc7o3R/DrtGtLJ0lAVUsUmnh6h6RqJEO0yFDq9LgcHI4khchotvvrYI7z10nMUlsM8iiXWajG/BsxWLXpNl/7SAfML/K1cTu2kEbgnkOKHHUwRIEVFcK1N2c+8W302w3KkjHCSfDQj4LpmvJiDYZhkeY6AAiR5iW56VElAcUeGg4JpWbKdoeuGvCEK1700jinK45kK0KPQ0r9+09au9VZvXK+iqJhCLOmWxZlemywcY9q2BEx+eIxUKnk8BU0V+vo6aXEzXN2ybClJnaS3tznEfk23hlqm7/eYrx9LgDFV1ZR93EQwPu5hSOyBAFWegPumqAaWkhIXN/TOFZWa3yQIRhLbcdKh6i4GC0nLE+e3yMK72o/rNciTGek1Ot9xvJX3z/VJ5yHWVgmQpwDa6hqKbr3f676+L2GclGbFPbEYTjqv5fbLCCwjsIzAJx2Be0oQDLuJ79nMJ0P8VptwPJRAvlK3UdKAJAowtIpS3NDzCrXKWCSFfFspVIsiDtDdOtHoiFq7S1kIRT+B+C8w1BTdqrMIp1he8/hBmIrMviDNBCXQI88SCWhsNlvM53PKOKLe22CxiFCyBXFxLNXbbjcIokR6F1SVYBcs0A2LSlExqpQ0TqjVLMaBhGrRWtsmOBLKdhqK4dJd7TLsD7FNSGXCI4CEFmUwwW51yNNMAiDF/JqdHsOjPZquKnnwzVaHKAxwbFsyFBrNNkGwoF63iYRSYR7SrHscHo2x/AZCYEd3farFXKo35qXGIsmlL8ZkFlJzNKJEABANVNuVYMh0EeDaJtNZQKPmYtou88mMQlUlG0OcB6cm4tzHbvfkW1i92WQ+HUtWRpyrAp0pmSeiBFsZNZLZgCzPcN0GSZbS7rSZDEZ4rinZIpahMhkfUW92JZ9eVQyqbEau+tgCMJmaNOsOo/FUvqnGaYmlxigiecsLsizBdm3ycIKqamTasc1wGfWlmmOuO9QbLYL+PqZTw1tbl/+ez6ZsnH+cPOgzHoc0PY1JGNNuNWQipZc5US6St5RpUNDtNkkKnWy6j9tZp9ItynCEbnmE/eO3Tl0JSSpdvu2ubZySQNZWp0MsKaceQTSk0eyR5wnt7jp7R0O8fEx9dYPdvYFMUJsNkziJMVEIk5hgHt1TgiAAddfHdZqjZ+iE1xI1wUpJixJdABw/IuNSNVV+t8S4nlgfJ0kfI1O70x1IEf4XxV0AG+/i9qWIq6B4v2ogvo+KUt1VMngXe79pk1tbmzeCOE+6r+X2ywh8GSNwU4LguJ6kvd060izjP+9fvY3F4DQ2yKIp9VaH+WifRr3GLCowHQFQmlEmIUmhoWrCSdChrBR022cxG2AL2mBeYlommkBANzbQiojJZITlCmZChG0IaqKNLZKByqRmJAzGM0xNUA4z8iyms7rNaHjEWq/F4WAu35pdVyQoMVFRYTot0uAApSywax3KLJJ2uLagZGoGiyTBFgr+At2fZGimR7fZQLcUxocjMD0s18GzK47GKbZ23G8kXzAfzKkkYtwkTWJWVlsEmYleJog3zXR6xDzJ8ZprlIsRtqExCgJszURxahKEZpoa2WSfIK1h1TTiVKe9UiNZ5JTRkByTHJd8MaTTbpLkOUlUSfnfRstndLiD7bZIU4E812k169K2Nyt10iyitX6G2WiClk9p9NYI+zuk1hpqOqQqK6zmBnmwh6G7aLbBPFJoraxwdOl1KkVjfaUhk4+juUXNThjNM9m73eyYXB3luPUOehpKqqYjnmqGSla6dJuiUmOwtzPC9y3prVFoYh0TPM/DdQ2mAvSYxyhWDduGLFdpeA0K8ZavBRyNMnwjYxIsaLU3ScK+pIBaeYC9usa4H0pU+krTwbVLdvfnlIqOKiiq4ZjY7ODXHHRVeEYMmUUxW2e2yaKA4STF03OCNKPXbEjWSJ4Vcg52o0Myn9B0c2aLBL19nnjvLfzeKspiimEK180M07Vw/SaTnSt0T60xPJhJWq5m+YSz3btKEESCpus6k8nNeh9/588fP9DjDP7hD1VObTyMm+zz5vB4u7/5C/fzD//kAs92fX4omCe3jNLZ5MzpFswOCPKC0dExwLTRqzPtz/jqg2u8ul+yUTeJ5jOiVKG5vsJ8OpNU5aLIqdsWmmnRWamz884lBvMI22ywoidcESX268Pdxkqu3uCSqXBWSI0P7x7J3z3zAINLb1NZKzQYMLtWmiurFuuNOYezny0G8Z1vP8O//73n7yJJ0dlsCsnxnAcef4gLr7z5foXza3/1P+Olf/Hbtzmk3hja03/uN3moPucPfvd3Sa+pUJ599q+g7PyIi1c+GqT9ZXyILNf05Y3APVUQRIJQJUNZ4jYtmyyJEW0CqWWgqpLyJChKotIvxH1EOV+8tYgeaKUcCx0J8Z0sTaQ+gKA1Cf0AUdYW1EbDtCmyjGZvjdnogKJS0QQYUljcVmCYFgJAHCwWMjEo8kJy9nNRqq8qeeNNxdu9qUs0tGh7gHDa0+UxxcREmd8Uc85LDFVIzyJ/punm8dtWmUuNBtEnFtAMAZhSxG1IABiFg5GiyPmq0s9Bk9SvsjgWgNJ1VeofqNrxesThdVPQuGKp9XC8TpEEadeoXSI5KwQfUa5PUuGqSrZDBJhN7FNWFa55Xos3QxFjsR7RrxWJnKCLiUSsKsRb2PE6ijx9//zolk2eptfaMmJ7naIU68zkfMQ5EolBkYm2hkq9YbOIocoW8uYr2hrNRovD3StUqtCm0NHsDkUylkmSGGI+iP0pGt21LYLJgChOj3vieYJtCT2FVJb5q6pEtmssmzReSB0H8bNKs+S5lteEDIZ6TIelkLoOokcuq0BFJv/OElHZkVxOOac0zVG0YyyNiIlQKhTXmGgbibdpEccsy9CcBo6WEYqyTFVdu34E4LaUaxBmylUlXClFheD4WlIV0aeO0VURu0xeP0JfQ6zPdlyKJJJU1+tCSfWazzPkvFIq9KNY7vtGN8df+qVf4vvf//5Nd5n/9BeOE4Qkg3/ygsqz55+iXe7xp0OD/2i1wan1nH/ykz4P1zT+2dW+3Lbb7RIvFgRhyNmHvkIi5rl/AW+1i1tAMjlgaPYwghFnNtuMrhww1pv02grvXJ2y2euxu78rEyRdJFplynQ2puE7uK7D/tFIzlsUN+576FGS2YzmQ0/y2ktX+c5TFe/89CpFq8fXHmpQHVzlSr6NU8353guv8yvf/RV+8sM/ZnX7DMEs5r5nn6CRLZjMR/zg937Cs7/+nxCXOq//4AXOn64z6R/gLfZ4beDz2P0Oub/O2Z5PvPcyc+8881FAwy6YHV7izUHCqfufQB29xaWpyjcf7vGnV3VON0LM2hZrTkiVp+zsTLgclPzSeRe/VScSjIw39wlVg3feeIunf/PvcPm573OqLXRFVviTH/wJj/25b5NFByzmM9557Q22fvlv0in3eOMHv09uNvnas8/y4o++J68/0VZajmUEvkwRuKcE4csUiOValhH4JCNwK0jxGUUkCOptQkkCnFev1+n3jx/y18evP3Vc/hfthX/zqsK5jQdoV0e8M9PZtgoe2PS5uBOx7Wn83ztCiRPOnr2P2XTGYDjEO/M0TjVjcPkdts5tUk3nDIZz9E6PWhHLlkiSgOa4JNMJk8xAJWU2n2O6DaH+IYXDRrMUSwlZa1pcGX5QNXjk6W+Q9HdRNx/k7dePaFk5njnj9NnT1Nsl2aVddiYKo8mU/mTK17/1S+y/9iL+yjbzecTmk2fRDJ35cMLuixfoPPpV3FaHl3/wAk8/fobZ0WW0+SHvDg3O31cnqjwaWsCV9/ZZOXOatDCphpdp13Uu8ADrxpDCMrjw1mW+9uAqr+wIUzKFvLCwoz0srSBIDWZOg20P7HJIefYRuDpkVBpc2ply9hvfZLH7Dk65IEpidqYu2+ttmrWUnb0+i1lG44Gn0aZXccoJ49iR7c+DCy+QXsMvfZLX0HJfywh83hH40AThL3oWT1om/8s0ZFiUH6mD8HkvZHn8ZQS+SBG4WxbDpzXnqrIx9eR9M6Z7PY5l2CTZBwlCe32T0f7uve72jp/fePgp+m+9JN0zP+3x4JrPWwdL8a9PO87L/f98RuCOCcJfqzl0NJV5WfFKmvFinH3MBEGVKn3Do9Ft0Wm2V0kXMylj/GFDM33UIsT0e2SzQ0qjTpULwF2XZHZEJkr8gOX4JIuQ7voWg/2rd3UmRHvAcV3ixc9G+dcabebTm+fv+h2UYiZpXXcaNcdhLqWSOyThUJbmvVpLtlam14SYbv2cWJOtl4zHt8fqZy3I8lpkwYjyBNa8K5vbHO3eHCfDbcnjCxDgxxmrZx/m8N03ZNulsbLOrP+BytyH7U+0l3rdDocH+zdsIs7pJwSeQ8H026TBzf4ZH2d9J/3M550gnHS+y+2XEVhGYBmBWyNwW4Kwrqv8vVZN3qL//jhgvyhJquqOCYJVW8G1DOJwhut7JMFMGjJlWcQiqSSgzHOFpKq0PJDgQQGyU4sFuuVKamFSKDiWSZJnWGpBXtlomoJplEyCHC2bklQGHd9gmlmQhbiOLamKR4cHcj3igS1YD05rg2wRkCaJ7MHXWy3SUmE+OMCr1QnnM2zXRTz0h8MBtlowX6Syp99cWacU9ETXIY8CJosC27HwbZVwoaBWkUS8iz53MjkkEz4K9SZpFOE2O7Jnn5UVjhJTKQ6VUiJEGHXhH6EKuVgVgaCYzgXX22OxuCaDm6pSla7SdbJ5n1J3cQkoDV8CM/UsQLVt8mh+7JlQpQSL9Ljfr5q4ro7jCq8L0GxPAhJdsX2wxyzVaDYaEoApMCHD4YhG3WU2j+mt9kjnfRRNJGFTVLtLFCUoygLDbrNIMuqeLZkMQ4nqX0FACxZRTLJIqTUbmJZOEMaoAm+RhRQUzAuP9bbLYtanshrSM0LIbJfxFNuu0Z8MaTZE0nhAc/U+gsmQ3lqX6WQiwaedXofxZIZpm8xmc2zTlqwQgSuwHA+lAt/OEblhVvioZMxTC8/RmAUzGp5PPB9SazTwWl2u7o1Ip7snSqA+idvEvSYIX9k4TpLyEt48uEYX1W38bEFwgmTwRGsRrB4R13sslyu6B8Xd0VBPND/JwnB4+LHTvPHKm/IetX5ug/2Le5zebHN592TJ9UmPvdx+GYE/axG4LUEQsK5vexaeovCvw0SKo4hxJ6Ekp7GJrhyD2ZQqR1MEiL0kr1TySpfa7LqWUJWWRI6rtnesDT8fSGCZAPxVmouuHIMVdbVgNokoFBXbLJkvKsxqQa2zxnzUJ1MdKYTiNNYokinRPKDSXZp1V6LXba8utQfKbIEiQIVOXT6gx+MZrVaDcDigEh4G9S5KvpD0QWHmlCmmpFWZaglKiaYIQRlH6hIIQGGaH5s89VZWCII5phBwyVNcty6TIqPepEhTbM9BJyUK4uNEIoNmq04aTSXAUCQJSWlStytJ5RRJzmyekOcZjYbP4HCXlc1TWHrGfBwSZRU1S5Uoa6lNH04IEYh9k+l4gNPaBgH6U4TDkiaR+oJ6l2UKwXiI6rXwCCl1AQrMyLBZBFOagsI3nyIIK5VisAhDDMvAMhUqa1X6QyxGO5KamKQFqruOr0VUtkGZpiTzSIJDC6GPkBQyGao1e8RpgqWpJIsIlRxLUCQr41iE52iXIE4kk8TXcqZxIZMVW6ja5BGThUmaR1JZL88NCl2RgjVpntKyTfJshuJtogiGSJkTBDP8Zod0EVJv9whmMxptj/FgLsGmo2nIasthURpMT1iV+SRuAnebIAjg5OnTp3nnnXduOuyvPfEBBuHfviYSBINvnD7D/qULrK/2eG3Y5ytCxXAS8mC9xgv9AWurq/g1nwsXLh4nzp5PvbdKkcwZHA5oC2prnMrrZzIa0223GE/m+L7LdDan2+2QzaaUAkgrQKCWfWwOVmvIc7TIStYfeorxzsVjEzHTZjqZ0W42GI1mNOsmqWKRRgWGrUjWTqlaVPFYGplNpxPsWgM1jWhtbGEvxuwMIzS3iREM8B74Oldef4n7Tq2xt7tLzXeYRrlkGQmFyMfuO4f/5K8Q7fwR7108wjU0HvoPH+Wn37/IX3h6k3/0L36Io6+w0HM2/ZgsNFj7+uO88kff/1DX10/iXC/3sYzAlzUC9wRStETpP+y/z1kWAknH1LFPP1wCKS/YAp/3ECV1UZ2Igo9Xmj/p/A3Lk3TQOK8wnBb5YnxTQV60WyxNYRZcV3gzccyKheDL3TIMu4HtGIST4RfWU8Lz6+9bDpVoDgAAIABJREFUhN84fcPfJA92pasn6UxwP24billDKyOZjH3W43qCIJQSN9ZWOD8Z8kJaEpTVTSwG4cT59a9/neeee+6mKf61b3zAYvhnL6r8F4+f5//YCXksn6H5Nd6MXR61Qt4MNXZmh6LWIFUILdvm6OgYtGi7Hna9JVkVUebTcxO8TofLF65wrlkxxmEaWvjKlNWmxhuHC+qqQntzlflCp54dSLrwYWXj1msk84TaqXPsvPkqfmuTnhnK+I5ChY0za7z5+gW62/dzeBhy6v5Ndt65yOkVl8FkLHUhVl2D1G0Tj+ec2bSZjRLGCniWzWF/QPehX6B/9RL1ak7LVUg1h35/gO/aTK+Zxj3w3b/Ng72L7L88ocom+F9/iPSPvs/qg/fzr373RZkIfP0Xn+KJr2zy2//zv75rkbbP+vpYHm8ZgZ+HCNxTgvDzsMDlHJcR+DwicGOCsLW+yubBHu+5PpMsl7Tg6zRHwWIQFMwbpZbFfP/Gsx/oIPzjP1WprDrf7tZ5bnef79y3ze9ducR31nv80Tjkma7Lv758OwdftPE67RZ5NJIiYJvra6RWHTMZcXV3wPbmGvu7fVnt0Q2NdrdH/+AAv90lFribSggxVVjtVaaDAZs9h1HpU1Mirh5OWd/c4Oiwz8Zqj6uHE9q2wkIxpLvr9sOPUI0vsXsU0PE0LK9x3BLUhYppxamVtrQOvzLOObXSZDbYI3FWiccHrG1s0O8PWes02Tsa4BlInQoxmqcfpeVMWQQKnnAX1XPadgermvLjVy/JbTYeeoKut+DVF97+xNAsn8c1tDzmMgKfdwSWCcLnfQaWx/9SRuBuE4RPc/GqotxWGRKaHGVx8oqKkCNH6Fbc5YRVXae8wcL6Lj92hzKQEE35DOgMH3uCyw8uI/DljcDPTBAcx5Hl0CRJPpTFUOk+jhpLYRghi9oQUsvCiGV+u9WwEAcSCm1iCLW5hu8STAdSDe9OQ0j/CoOXeZRIkxghkSzBaPMPmAeirBrEJVY1J8qOwVyKZqJWQojn5r0K4R5dyVGsLuTT9/0FbNcnjm6nOgmDm/SGm5xm1vE9g2g2+hD6mCbfxLI0p9b0CKbHZf56a5UsCVhEtzMmpJhQq8lkNpV+EteHUKMUEsofNqTBjucwD4497+9miGNZFMQ33uUVhZbnMw3nN8jb3s3ejrdRzRpWMWdRgO6uoCwEu+SjP+86NRLhl/G+3K+CaxtSUOneh0JN4GgshYPRh7Nk7v04H76HGzEItmXytTKTFYSjcCEFrW4USvo057Hc9zICywgsI/BxI3DHBEFoIHQ8n4P7H+R7zz8v1ezuBFK03BaGZUvAn0CVq1VFHE5JS/BrTXnz9zyfyXhIs90hi1OSNJYucAKw5ugKeRJg+y3C6RGG16NMQwl2DMMIxbBwbPMYRGe7LILJMXBpfu2hqDnUm23SaI5rCte6Ek2zSCsdvYygLIgqE98siDNVKva5akyhu3KfQvlQmO10ej3m476cr1hLodURjs7pdIpdr5NlJb4rJHsX7B8MUDWTdqfHdBZiG5DnKYJuGAwOcBpN8iTBqrkYqujvH6A6Haoix7JdlHJBnGvC1AHDd0F4Eqg5/VlCvbVCNBmgmaYEZkaTI/nQLuIIVShEpqmgRcjEwe+sU2QxhqpLlUPpCoiK6dgMDvdpdIQM9hDDcNGUjBQXBMDPbmFrFcFMGEoJB70FrqVLF7s8E4wQRyZReZxIpcNCJACGSTy4QqWZorEtvRSMfE6u1yUwM5zPJU5g677zkuUQR5E8T4f9ERsbKwSzqTThynVfei2EccnKSpck11CDfXKzjmL56EVInpUYZUSq1tCqkBiHOBjTbndI0YmDuQTEiv66UK4TxykUS8o/G35DAkJRLQlu9T2VSzvHEsOf9TgJSFGcu8UtdN/fuEEo6f959QbTq2sLaft1RtIr4ubRM1366S1Jo+mzlS9otVocLEL60Z2SJpXvbq3w73YO2HJNrkYnT9TqdY9EsFyKiqYJk0RUHDQ2aiX785uzxgfPCM+SAf3EwRLn+4ZfNyyLaZLg1gT1NmU0Pk6sTVu4TMYSayEUR4MopebZTKYBvYbNdFFIwOV4FFBvN6R6ohCOuvHIq1trDHb3pcvlhw9VAiXfu/LRVN3P+rpaHm8Zgc8yAndMEP76+grB409x9sc/4n8YHt+E7pQguM11yizFNBQpNWoaQo0NouRYalmwGaoyxfQ6kqFQRJFMHgRVT7APTCWX8rdZPGeRqtKAScjiJlJ3QCFFw3J90mCCZvuk8RzPsYjiY614v3MKvYgpVRUlnUuL2HAhJJpNlDyizEIavXUpixsvcrKilCBKjBq6ML6JYjTDkjeeKguJFilKkeO6xxLIYSCYEDZFpVFmgVRNS8MJtu1I18gKG51AmkqRh8TCOtd1UCsFw3MpggkLIUPtNQRdANsRhkAhlqaR5xqao6LpDkqwR6B0cUwoFxFJWeK1V6jSkEWcouUpcZ7R7q0Sjg+Jc4XT63VJg5yEBYaSMA9ThIGP7+jMUgVDgDhjYbykoAr5YbMiVeo0rZAkK1ikllTKEy/sAiiXBgM6nTZaFXPUH6PqNqrl06opzGYz6l6HOBNy0hFxXEoPBZHJGXYXo5xTVYL4qYJlkxTC4TBga6VBFM6ZiFxNMdErYchQUZm2NM4yrjFMHMfAcR2SxUIyJ1QhP21qWEJCOU0IFwnN9TPYyUhWiXKjSRGOMOtNCAaYjRqL4Ri7ZhMGBZqlkoQJaiksij+f8vTdJgjiu/WNb3zjNpDirz5y/FgT3kzfe1vBtnz+2laD//1qTKwa/L3HzvHDS2/RdGzePthlbq6w5msMB3POnzvNSxcu8hv3n+K5/X3OrWxw8dJ7RJ4nZb3Peh5+OSe2W7y7v8cj22uSZvpdK+Ifjysatkm7ucFP969wqtXGpuRyGPL4yhqv7F7moc4K/+byVVK3yVfu3yY+ushbBxGbbYcgLJmmGXUBPlxfZTEP6dk587TEqPXkcVzP4VTXJhoNuBA0seIR7bU2l3aGbKz65AuFQi1x2g0GV67iNTvoVUljdZ2jqKAWDlnoHovD91AErTWYc7rnceEgkKZv89EAu76GpUM8PyK5prj01FefIpofMVp4PLpdZ5hWFJNDXr+4Q339HPf1XN5563WipGCz67N7B4+Lz/LmvDzWMgKfdwRuSxBs2+bb3/oWT/z4R/yjecSla/rid0oQPq/JC48FUdX4vIfudFHTAenJW7ofa+qdTouhMDhCodaqMR9/8AZp2D6ddodhf5fsmuNfffU8s8Ob6XPiwILauLW9yWx8JGVvv4hDd1u4BsxuFZZSVLZbBldHCasNi8PpnaywFdrtOqPRZ8MsuVP8RIKQKh691XX56/OTAVdqTRJVkxoc89nxuRMJ8vb2NhcvHlMTr49vnr2WIJTw40sK/+Vj93MhmPGDIxuz0eG7K4I6vMc/fW/If2Ck/NXHT3GUafzWT8d87SsP8M/fOmQ9vsiv3bfNPz9a0Atn7Ogajyoq95/u8oeTnO/mfd6Y6ijbLWynzdPDl3l79VnGszFaNKebBfzL0YT1Ro311bPoe6+xH5XUN88THL3De2aXbz7xAOHVV3jx8pxTHZtJWMlkoKdWJHUX1Wpy1i/4ycU9HMdmoTZo5gPOnltnfrjHG7MWD3VVjqKQcaBy/oHTTN97lzArsD2N9tnzzC5eZDyPaJ05T67o+HkgK2qj0YBoMpGJ//1rPhcOEk61Na7OTSwiKn+VYrpHfq2NtfXAEzxzvuJPfnzIYDjiKxs1LuxOmRUFnfse45HNOi+/8ByzRc5mx2N3eG9W6V/E79VyTssInCQCtyUI4m1S6LAUtzTwv0gJwkkWuNx2GYHPIwIiQbCbW5J2eFOCoOmMR0P5Ji3GdfvlW+fY9Y9/Ip5toxAEHsYV6qZphq/rhEKcigpH1xgnKa6Qk6iElZWCrmskWUbLshinGQ1RLROfs0yiLJNVBOHYaBsWizSVtuBiHoaompUKpqrg6sJtNSMRBmGKgip/ZjBLUxqmyUSon90ymq0Gs2mAJkzEsoxKVVCkRkqJZmhSZVOYiwmbZWGIJgzMRJVRmKiJOUtjNdHqEvoowp9LO7Z+FuZh4gfC+E1Qm0VSJSqIYhvxsiDM4cQcxS1LtLJKVZP78esu44GgAR+3E4RbrbCIFxglQ1qpV5R5dhP25/qSxHrFOVyOZQT+LEdgyWL4s3z2l2v/1CJwPUG477778D2P9rtvM9s+zSwvefXVV95PED61CSx3vIzAMgLLCNxjBG5KECzHldiBW4cAq/2d4Q6/s7VOfIff32kOhmHKzF4MzapRcy1Cif7/8J5wvdVlES2wLYtAAt18aRUsPiEAhvW6T5RqGNmIKD9+K1B1C6VIbvNwF6JNOjmq0yWPx9IyWQzb8e7ov2DLN6YbWQQNqTQYzWd3FBFSNQuqHLHbWlOwMebS+rlW75DGIUlyOxBMzKnd8JlMZxIAeH0IBUghV/1hQ4hCuZZGICyJ73IIeWVHqDoWH4CxBIuh3Wwzng4+1tuR4XQwcoEDqLDr2+TBVSkF/FHDr7VJF5MP2CpCKdNQrzFfPurTH/F7RcGzDWquwcEXqCR8PUF46skn2dnd5RtqwXNBwvaDD/CDH/zgIxOEXu143eIy+byXZTkWidANv2UIxs516/F7PIvLjy8jsIzAFzAC91RBsP0ViTLWNEdKD5umxXQeInrleZqTxKHUzxfyrk3XkqZHfr3JbHiA1zlFkYVYus5sMqY0bBqNhqRHOpbNeHhAvbMifRSk1LDp4zfaJEL61bcpsgW64ZEqgm4Qoas5ieLgVAEpwgtBwyhDdCFnPJ5SYqBaHq1WnUW8kAyHfCE8D2popkXS38Pr9YijWMpBW2rE7sEIw6nRrDeYzjNqnk6ymOP4QtjlCLchQIsRmmfjGAbz4R5Wc5MkmuL4LSlPK/r9cRDid7sU8VwyNw7HC1qdrpRDFkwCv70qkyfxKBfrExLMkVBC1EySeI7f3pQl1bon/C4mkvIperGea3PpvXdor56hjMd4ti/NrBK1jlItyK0Vmo7GaHiE77mMx3NsQygwOmRphe0aEvQp4iC8JILSwTQcmFwkV1wKr4klHlLBEYbfRbM1giBlPDzk/kceleyOUb9PzTWlLfDm5ooEJap5SlDaaPERAoC+sd6SMs/KdIfSbqO6TZL5WJ77KjxA9VZRsinz3JDSvqtrmySVTjgdYSgFtlsjCOd0e12yUqHKMjwhnT0XNFKDPBjRqsG7Vz97U6YP+05fTxDqjQZbm5uoLz6P9dTXuLB/wP7e7vsJgicAg77P4aFQQ/xg/O1vfSCU9L/9SOXR9W12+rsERYWhG5gKzGT7QCPB4C9trfFc/0gCBEXbQNd08lLwWkoMTUNXNbl9TVc51V3ljcNDXLWUhmeieJ+iyuuqyhMWacFqr8ksqOi0G6RFwOBwgqIdtwNEjq+pwpSrxmh3hGYYNJtN2r0GF9567/j3SiVblaJKL9qWer3DiqfRPzyUrRBB6RXrKKtKtjNFa0DIiUsmkaLRsEpmiWh1ZogEWUizb6310Ci4eOmI9dNbBP19Oqcf4PLly2ytrRAN9/E8h91pBosxabFsEXwBnznLKf0cReCeEgTLX8XTU9I0IceUD6ykNKjVLKLJlKoSfgM2szij6dssZjP8ukf/aEx7ZY08j4mnQzRVZyHYA7WORK0LMybxkLdYEAVDIoFiXzvL9PAKfnsNz4Q4mKI7TcJFjCOYD2GfxtoZaRITJ8IgKqfhGQwOD6mvblIKsKWqoJoeVZFKqtw8WOAbOVUaESU6qmOhCoqcUbHIdXxT3AwLdMNmMkto1E3iRYLrusz7BzjtDovZHN2z8UydwcE+9ZUt6XNgNzrkAmlv+8SzgMpWMUwfZX6FQF+lVa8RjgYYjoXidqiSmezzhtMJcRzQ3TzHZE88qHU22jZW5zTBaEiRL5iGOaudDumsT2zWqTs20+kUv16XjANTSVBrq3jpobxBZ8aqNDUKcl2aZIWDHTY31qUnRn88Q1E1mQitrfeY7u/QbPiSPZHpNloF48lYcC3R7Q51QYMsZmDViOZjdHuVPAtp120W0z7D1EA1PFquznA4x67XUKoK37c43N+l0+lIKWhhOCUeCMPhEEPJaHZXmAYJWRzSW1nHRPhg5IR6W9LgFoKuqsWEwZSGW2M22ycuXWp1R56DKI7uWsTns/h+/kwMwnAofQmuj1/+5V/mD/7gD26a1t/95eMEQRiG/vYPVL79yFOowQ4v7IT8xi99i//zxy/zX511mWh1/seDAu3gFVJ7lV/URzzz8BNs99/i9/sJxdo2T5Qzxk6X/+tin0e8EL17lt/YaqNqHkeXX+S/e+foGLugCfZOIR/SzWaDxSLh3FqPoqES7MwJS4Mgqtg8v83exXe5b0Nld+iw0rI43HsPp9MgnKi0z6yykveZVD6LeU7dhtWOxg9evMTWqQ32DiacqVXsBQVGa4u2ETEKdHoNi9Jx2X/7HXotk26nK2mx+4HBYp7QbQm2TcKoQtKMD/Z2aZ55nNF7r7Bed9kPCs5sdriys49lGfIaXo5lBJYR+PgRuKcE4eMf9u4/KTji19sDd/+pT35LIZJUZaLd8Mnv+7Y9ilaF5zIPBIpawbJ0EuH8dG3opkPN95iMR1TXaHy23yMO+rftShhEtTsdqUVwveXzGazgRIfQ7YakQMbJLTd0RaHh6UyDjGbNZDK/8w3/xnbWiQ78KW4sEoTpQsWyHXEKeTSccVG0txQBxkvfFwwTUssCaBeGNyPm/8Y3r1UQchBSy5u9LZr5jF/faHLU+wo7l17h4jhgyzH4w6Mpf369x+vjGU/1GgzGM/x0yrRUMZqrvDmb8UynwR/ujVk1YtZXT1PkJVZ8iJ1n/P68ko6frbpPkQRMo4z1psUgUui0uuh2zGRvRlaoZKXG9mMPkw6vkiQhQVDRbnocHh7hNV3K0sJK52ysNhjMS8KsxNJVwryg5dpS2MuvuczGI0kV1k1Lth9nYU677hCrFtODXVY7LRRDZ9jvo1qOpNBur/XI0znv9lO2Oi6jwSE0tgj7VyVDQlQmOjWP/nCAoanE1+iNn+JpXu56GYEvdQRuSxAE5eqhBx/k7NmzvPX227z++uvS/GXJYvhSXwfLxX3CETiJDsLdHrorNEGigPvPnOfFS7fTV+92P3ezndASyYQw1x1GfWWD2dGdRYT8ek3icbqewiD6LLLp2yeoWS5l8sWqKN1NzJfbLCPwRYvAbQnCs9/8Jpubm4zGIzbWN3jppZf46WuvfawE4QMKlyL7kbca0pwkGKIMLsqfn9f4uBr2t8/3zrG4l7fgG2OjagZlcbtz453i9smt6fM6K1/c434aCcIXd7XLmS0jsIzAlzECd0wQpD/9hXd4/LHHef75539mgnA9CRB/K4oucQftzipKVcgSeZoujiWAdSFJXMgkQTASHNeV3gSW26RR9xFuxEJiN0xLiXAfj48BZ4bdxLdyFqUrraWPQUyK9JcX6o0i8RDj+n4105W9fOF1Px3sEaWCU12+zzcXny1LlZWNLWbDPenHcPxZRSpBJqnQyZe06/eTGt1wWdva4mDnqiyDHg2F0qPAELoSRJdcc+M71tcXf6r353N8bMEMOX6bEqBFTS0oBdf7+taVUIy0SBfXRIuuH/zaFSe3u8YDv75ecZzr6/LrDeazqZz0+uYaB3uHH8z//Rkdz+z65wRjvLW6xuTo4Np+VKmeSBZRKur7P5NrOQ7w8Tqq64Y94nx/MIfjA4rfH2+v6oYEK1amS3Gr9O+X8Zt0y5o+6QRB8Py3mjWujGdUZod6NuQW9eKbZvCdh+/j373x3k0/E8JB1v/P3pvHXHbe932fs293f++7zcrhzJAUF1ESJVmRLMlybUvxltiGYzeFk8BJGiRG/ynQ/wovSeACLYo2VYMEyB8NUDdugyoJHDR14sqxHZESJVkSxZ1Dcjic7V3ufs++Fr/n5ZDD4ZAcckhpSN4HHMzwvec+5znfc95zfud5vku4y7XzAutHb8Oen+XiQuOOT97BM9985gNwhlaHuEJghcCbIfCaAkECmuSPrPvL+r+sjb5eWFPQP0QhnumejWvbpMsxi9LCrJY0hk9gNYpgaBoOVruDZ5kk4ZQoSej2h4TLGVWt0Wm3VHZCQks9gOTmGi0O1tPb7Q5VY9Jotlp/9IIudTpDQqJKYbSnY9zuBrZeKHJgaa+hVRHddpskDvEliCmaUts9RYarRIKYFvhrW4SLEe3ukEVcUcd7+K5LgUNRipmKp7LuJdugCuf0j5zk4gvPqEyGRSiFiUHft6kNm8pwKYWoKfkKhpC9TMI0Z3ujx+VxrEiVutvFM3Jy3cdrEuW9L8qNsrLU+q+oKqpkhN/fRFtcojQDlUXRGC0GgU4VTxgVnlrPLZYL4jxRORK+VWMEW5SL8yyilLW19YPch942elMTRgvcOqGw22i6T9tYcu7CJSy/j1HE9Na3lEudUSyxPY8kqSgk28EJDkiatpAEx4ymJS1foykb5bVv92+jWl6i1QrIkyUdt2E0y1SYVm4OlEIlDYX57lIWP5zApDe7+N/Nz2+mQPj0j/2E+v1LkxjX8/n+n3+Tn73tDtacJbuTlH9zOWHoaJzQc745X/CZE7fxvfMX+PGjR/i3Zy/yl46u8yMfOc23vvUI38k1tkyLR8YJX7r3Pr76yEMkrQEfvesEyeUneOxiwpd+/DM8+p3HGR47xvantnnmj56hLBa468d47pHvvib07N3EbdX3CoEVArcOAjdFUrS8HrbjoVWxejsVDwNDPPbdQD3o8yxXTnKSD+94lnJUS5IU1/PkFZO6SNRD3nFsRf7Tqlw5q8kD1tAyFYbkt/rin6YIUo6tKb9+UREkWaGCYMpsSbu3Rl2liG9bnNVYeqP6LNIE07YJRa3Q7Sn1guQ60OhUpkinXEUQk2wH16zUQ1/GY5oaaSb0/zlBd53FfMbW0WPsnT+LY0viYIZM5YtIvd0dKGVBpbkqEbLX76sp/jKTgKkOhtdWagZxbcvCBS3XJMxqdMuj221hm41Sgch6b1LadAKHyXSuXsbF7U3Y2FpjMJ0vaLU8DEvkazZGk1HKPpcj+v2u+v4yKeh1pDCK6Iir3XhEqztUSg+jSbBMg8Zo01BRqZkdU50/SdM0qlAdQ62Z2OQU2GSLXXqH72S+ex7Lc/H0ikIPsCzwtYplnGLq4jZRq4Amv9UmiUJsGwqti2E3pLPRa1w5b53L/90byc0UCCdO3cn61iGm433G+7vkWcYnj54kTvZ5fjRjXzvCL3V22Y8KzpsdPprt8H+X23x62OWTTPinF3f5zZ/+MR69POP8Czsk+ZJff+BOvnzR5NIzDxN7HU4d2yIbn+OFUcanT7Z4PDpK78idfPhjCQ9/5Un8Iyc4lp0hnE74zm767gG16nmFwAqBWxaBmyoQZIo98A8im9+I3R90Bupt8mpzoDdGRMMSjXb9Rolr7z6msrbv2A5pep28Ak3DEA33VcOw/SGe07CYjg+m5YWF7xnM49fmRph2i8B3CKcjqlfWDd79g3oLexBTKSniro3jvprnYDotlch5bZNiy6hLylv02N4CDG9r05spENbWN9S1Ey0WbGwf4vwLz2M7Afe0DR6bRuS4rLsWdpPjWDo9x+Px/Sn39do8NV1yR79NbGlM0xKzrmgZBs9nGkdNeHE549qrsR+YFFpLzYjlboOWG1TxDH/9MC8+/6yySF61FQIrBD54CLyqQJAIXVmHv7ZJfv3fGZ1/S06KHzwoV0e8QuAVBG6mQFjhuEJghcAKgVsBgZuaQbgVDmA1hhUCtyICqwLhVjwrqzGtEFgh8FYQeEcLBEMIe7WG64plqqxzp69aehBugpaE5KJCcHto+YxrvUwkr0AsmzXRMfs9bF1luJHHc9JKw3Q6uEaOYfnM5wdqgnanQ7hcKCL9lea6HSzXxrF1wsVCRSCLXfHVzXPbJKnY9UJLsg6yV8sog/42VDnR4voWvqY7wDYKtColEhnGy03DsiRlrsBwemjF7DWZBTI1b9Qp2UvRzDd20jRM4SAUV+1L8hUk2ljFQL/1ZtoB1KlSmHRecmJ88140Dh/b4tJ5UUscGPrIcoxoNeS8vxNNjUt3KNODc/xeazdaIAifRsjAS2UbfdAOFEGitqm5In/9C6fv5utnnnhdGJrG5b+4fci/OnuBqxkD/aDNNHql7zfCUXPX2Tg0QCsiFjsXiF+6zIK22Fq/Ojq71etQhjEDr+Ji2sEq55QNuK0OaXiQK3KobXJpWWLSpuRgDNvrPWV6dHH/+ud1cOQETj7j8t4r13PT6HjCZyle66sgbpwbwzWgYDxLWRuus3PxIie3fC5GFuu+xsXRTG3TGAa7Fy/h9Tf57APr/Pv/77G3dFmdvOc0zz3+av+J9Xu+wPzpPyMv3951f/T0XZw/8xSW49F2NSbzN49fbx2+By86x/7slaU9caqdhe8MV8R3XOIs5dhHPsuak3Lxie+zt8yUiunkbUd47oUXX3Wv3RSL+iTh6IbL45c07GpCVlR0BkMWk5HC+KN3HOa7z1yk7W6xTHfUz+7+0J3Kev7PH33quudh+66Pc8ia8d1Hn1V2+9KaxqDbtlhc51ht1+Oe06fAKPj+955i6+hpJmHI6RO3sQgXbHolDz/yNA984ac5/9zj3L7e4clnLvDAXZt8e9fijnbEs5dDbj91jO9889svj0ks3sO9fVJNwxse5/ahzgtnnieqNDaO3cbswgvk12TSdDaO0UrOcWn55stz8rt+eHPAhZ0bt4o3LZu2UTJNr9qxpnH/HUd59JkX35ahX2fjOO30BaVmevle9KOf/4L6rcvTBAFYbla3HT/O5z73Of7jn/wJ58+fV4zq6xklyQNUYlttA7U0ISQ9Wa+3vbaYgJiVAAAgAElEQVTybW/SXEWv6o6jYlU9sTAOC/xuh6LR0YqQsixxHZe6SMmLWhHeDNMhEa/+oI/r2sq3vuuWTKMKy+ursKbG26Lf9VQwkvAf0rym3elCtVQXp2QldXptluESoykoC4NWvwV1QRrFuI7FMm5UNkMhioAqJRFFgdZQ1Q6WpSE+AWWRUmUpfrvDYikkxAHJYkqNRtHYtD2DOA5pt9sHeQqmFEkmXmBgNAZJZSorZ0vLMFyffDFmmVW0W20qzcY0dOIkp+Vbyucew2Oyf56NrduUrbD83Aj6aNmCtDKo80w9jA1Lo8RHr3OqIqepMuxWB6I5lRRRnoslhMpliF4l1G4b29JI5jF5lmB4Aa6oOpwh2fwScbigPTyCVhZKcikxvWEU0vJ8CsvFMQ3i2YwynxOntQpIclt9CddV5EvJurAsg0KUHK0OrpZTe4dIp+dYzOZsHTrCZBpSNxXtTpsqS/D0nLQEz6hJsNFqqL0eVbLAbmISLSCZ772lm/itsvGNFggy3s985jM8+OCDLw/93o9+XF3LQk6cjkfsXr7Ajxw7zWR/h1Y65fShY/zRhcs8cPg4e6MLFIbJU7OSn940+U+zis9sb6GR8+ily9x99BhJEnMxKzm6vs1TOyO8OuTMeIzELx07dpTpdKYKlEMnP4TuBVx87NsMj5+ka5Qkk4vkjhCFDRyrZnl5rAjJ5vYWTrzAJuK5eJ1Dmw7R7j6D47exv7PDbZs2yTwj0cSCvGDj+IDA1iiWY+XGuLNsOLbZYzTZZ2u9y4svhjgtj/bGOtGlZ2nsgPWOThSXzBONnlNTC+/HcjDKlNrQmI0j/OMnYH+H1GhRTi9hHbqD2fmnuPtIh0kdYBgW40WJZ5QUmkG13CNvDNb6vrIr1yyX+e4Y3ZbQCJsiyjg/ifnsx0/x8J+f5fixLnFSc2TdhLUNvMWcyztjtM6QtHbYuPNjRNOL7H//Ybbuup/8/BPUro/l2CS1wYnDW8SXHueZ7BAbA5tsNEG34PzZfW4/7uMevY/JmUe4PI2468QR0sWc3vE7FL/k4iynFe3QrG3QlBVb/RZfe/CbHLn/8zB5iiNHb+Pr33qBY4dstgcdnru0xHVg/9KMY0dblI2BXSc8dqHh7ts8ZuOcqDbZvPNO0ukYz7epwhl2MSPXXfQ0xBgexW5Knn3maY5++i/xwte+wtF7PsmRgUe69yyl3WaemnQ8g/DyJUy9IQ226FkFjhHy0PMWd9y5QXb+BbbvuY9nnnqGT3/kEMtxyijO2XthSf/UUY6v+ySzHaKs5sz5kI/dd4qnzzzJPXed4LHvXsDpdwgOHaO58G2WWpc7jklOT8L5nZgjGy3KqqAxPaW0irKM0cU9vJP30A8vMA49HDuhHxg89L1n+eQn7uep53c4vtnm/KUpt330R3nmwT/g9rvu5syjj/ETP/ZJ/tOT+9y+4fLssy9y5NRdpGXK+ScfZ/vIcdaHHZ5/ZpePPHA3EvPhV3ucfXKKudajt+lSj0KypqEwPHX/n7/4GE3nMKf7jZJ4u5snme9dogrk+jlHafiMlwWHjwz4zre/r67rVn+Lw+sBRdGwvT3g4m4CBlSTcyzqNhutStn4iyowmU5pjIbFpYzNOw/RCEm+qlkzEtxul9ECdscTPnT33VyQ3B9LbOsTxvtLTp0+QZxHpIslo7Dm0JpDho1NxTSGDXfJk2cu4A5vY+/8GV4zgyAPuv/8V3+Vr/7xH/NTP/mT/O+/93uEYXjdAsH2B/hBiyKeYdkG0SJSb7gyU1DJgyvJycocy+sS+B6UIfEywRG2eyYXlCgeHPJoTl2U1IaD22qjVRVxNMPtrJGFS/yWzBaE0ORoZkA3cFQio+H3qLOFetPSzBa2KznzDXqTE4Upjjwwm0o9IJMULEdX6gNLa9SDeTaPcdpt6nSuZi2KWt5tGsTCXR5kIvfUtJpkKfLKlrKGlUCbPFqoQBzDbkOxxPHbOKbGfDon6A2oJeJRrzA0U2UO2IZOnc0xgw2ixcEDz/E6OK6PVudK0hjP9tnY2sKoc/JoRGn11c1NlBdpPCdLcjzXojQ8VUT0uzaOfpCTUEhBlFd0un3SLEOX3ARd1BzQWD2W4QK/I6FUFlFY4ZmyvRRKC4b9gKzQSBuDXuCqAi/oDwj3dzGCdXQtR0vGysahsAfoTaWkk1IErfUGJMlSFQZx7alj8aUIzDKyaMHaiQ8zv/g8fmCjNZCbPTp+RR7GiJtCklV4UqgtZ/QG6ySi8nBqRkUXT0sp4xnpjcRF3ipVwVXjuNECwbZthsMhly694kx4+kP3qgJh59IFFdy1e+ki9x86xt54xIdZ8t3SZN/o8ylfI8gX/NE8QtcCjukz9OAQjebyF48H/OEzT+P1DnHa03honPOJ48f4yne+zn9711H+4VPn1WjvvecednZ2GI3HtI7fT8uuWOycx9XB1gpms5jaCxj2W1iBQ7U/JQ0TEgmZqgsCD84uu3T1iZIJZ16f9baF5ZQsLo5IdZfJbsKxO7fYk1wUoybXbSahjqfFrG+sUdY5exdi0qrk8Mlj7Jx9hqPHj+AGFuHOiJ2Z2DA7irisfl/n+5xPPLbWfMLaZuhqikh78cKLtDdvZ7HzPKe2WpwdZfQ6LnLrEFWT3e6pz8RLRWRCH7vjmMp+mJy7wKRsaHsOnuESmQYd32P33D69gUGtt+g0O/Tv+xj1048xixu09UMk+hql11fX7JnvPcJ9xwfoi32eurRDMOjjb52iHZ7n4uU5n/n0SeaxzrPnQnQtYfdiROBHHP3ojxG98BhGlVHaIoGuMAcbXB5N+ci2z87lJUvPBn+NYrRPmje0Ng4RNGOasuDsBZ21TkbP15hkLk0VspzKeYnp3v5x5i88wiI2+NRnP87OmedINZ/eHfewe+YJto8cZvLi06zbJZfnKZ7c66RAXy5Z5jqH7vkIixcfwzUsBkHDi+f3cQKHwfo2VruNI8Tz5YwXQo1+y2Zt4PDdF3T61ojt9QEz2myud2n1dMLnLzAuDGbnJhz6yGl2XzzDRuCxrHVm4xJdCzl68jQGERceH7EbR5x64GNc+N6fcMeHHyDoBzC+zCNP7ymvl7ZT0nhd/GLKN85EfPLeQzw/hY8e7xNGCS+8cJ6jR7Z47szTWDSM0pqjRyVIr+Dohz5CFo/Ze+5pLu3t86OfuI9vPv4Cp0+f4MLz5wn6Wxi+rgqE4yduV746uzsJQVBQySxbEDM9l3AxXPLxz99Pcu4Cl2cxm7efZiEE3wvfIbGHHG1XdF2LvahkN4R7b9/AyOY8f/YC+EP6m+tcfvp7THOd1uAoh3ooJdl6F0ZlX6kCN52Ys+d2ue8zn8WrQp67OIH5iHOTOZ2iRdOpOXLiOIv9Pe4cmpzdn5OLVN9og2bjr/UoljOaZIFVNUzSmMobcqTvYdcZrm+wqFzsIuTMTsKHj7V49LkRm8eOc/a5Z19bIAwGfX71V36Vb//5n/PxBz7O7//+v2A6m13fSVG36XeCgzCfN2iNZjLodV82P/rh3s81uoMNkuUEIV++s02jN9ggnO9RXpMkJ0sngeeqt/LrNd306XdcxpNXpl6FoZ5dx09e+lpf32S8f+ngZncLNst21WzC9ZphSRpnih0MyKP35hLCm0F+owXCm/XzTn++3tvkU0HMv7342mUHXZOCOL1lr6mrsegPt0knOyRv4fofDjuM5PXqOs30Aj5x/72ce+EMl3YOrknT6OGYS6Jrlh7ls7sf+BR9O+HBrz/yTp+id6y/ez70YR5/8vuv6e/uz/8cT/3Zv+XoRz7L/mP/6eWlpHdsxz/gjg6f/DBMnuHi9J1ZYnm7w1+//R4+fnqbP/7qV8lkve0Gm1pi2OhzYfeVe2HnyB38yB1H+MZDf8LypWWET33yw3zjm689n05nwGc+/CEe//7D7C5eq5i7wWFcd7PXzCDIYCWC9ktf/CLPn30e13F46OvfeFtWyzczsNV3Vwi8lxG4VQuE9zKmq7GvEFgh8INF4A1JipZl0ZU1jdHodQuERjcxqd+Cx8HNHaC4Dup1wXsx6t0WDsI1ngqGaStjpbebUyHfr8pc8RKED3LF0vkNUdbE38Eiy364FffNXQm39rffjQJhEHhMokS5iMp0Y/oGLyn3bA95/PIBQexKa5wOVrZQPggfGvZ4cnQQOb0WOIyjjE+tBXxj/OpUybs2uzy1+2qC4pshb1hyLQYY9YLr8Arf7Ourz1cIrBC4RRC4SRWDjtseKjVCrVvKubAl1sjCIUhibMtW/IOirGh5FvFsl9p0yZIIxw0UAdA0bbL8wJmwN1gjCUNMyyKOEzq9AYv9C8qMSB6Aa8MN5osEz0iVO6DlBGimB7msiYtpkYFWZyDWzparrJVbgav6ClNJvK+FAolWiZWyc5AbsXmExeiCsnIWwqPtBUohIbbRQtrMUnEgNGnqQq1byrHIFLkn7o91Q5pGWI5YLReKFCjb66aDqTWKNS12x0XVYAixUD84DnE6FDdJyWNY2xgy2tlHPKEMaspaxxbyAOLmmOPY4u6I+q5YKAuzX7gYjS58CwPPgTSO0J0Opi7cjVDZ86Zpiud6qg/bMtVyivydpgnbR48z3t2Fl/YnzpOyJJAVBbrQRDUDXY5VMiaqAtNtK7KNeB5puo6uHbhgCs6G3lDUDY5YbSep+tv2WhQICencLXKZ/+CHcTMFwrETJ1XBKPhLXPSl8y/wycO3se7lPH1pypOJRV9L8Km4mGUc7fXYWSy4vdPh6dmCu7oBv/a5j/F7//FhLlUabV1nJy45dft9fMitubx3Fte3eXaeMQ5DHji+xoVxxv983yb/4okLLAfbfOfF83i2xV/70dP8T3/4CCU6pmnRN3JeTCv6/T6+53Hp8iXFaN/a3mI+XVDlBe2OTZidwM0eZ/4WlgB+8GdptccVAisE3giB6xglma/ZXgKNrmeU1BkeJwoXdNsey+k+g+GQ2f4ewfCQYsML3TnOdUVY7HgWZVUpwl4aTtCCDUytVgTHOi+IG51ut6eKjLTI1cOzE3jMJIQIsIOhelCLCkGsnf3OGkU4J25cTMRKOKdxWnQ8k/ksIikhMFI6/XXiRB5mYv9cUdSF2iacRxSNQXttncXuOez2OoYoCiYXVRiOIQ/McJdObx0tm2K3+yz394iKEj/o0RgO2XKC1x1iNTG275OWHsnkLJ3+BsswZKPnU7sDymhKnBUHLOmyZjjwmE5TzCYhTXM83wSrhaNrNE6gCh95AAuGMrugtwJVPMz2I5psirt2GF8LCZseerLLZB6ydugk4XzKxnqfPM2UPXR3bRMxwSuzhCJLSKMZWV7i2r4icAZtj3y6y7RwFMNc1BbO8BgBCxZlmzreJYoStjfW2JtXCmchbuZZRNeFZelgNBW17ZCEJUFvjXC+S6BnlO4mi/1VgaDrUuzBfWnIGccnVUFYB+Fgr9e2jxzj0JFjSjp29tmnlLzsR46dIk5GnBtP2eEI//XJij944iyXjBY/Z4f8/tLlp24/zd3ZZb58fod/8LM/wbO7Y3YuzlnTUz51apv/8bzJR5yCZHyOT911FPfyhP1wwje6t1GffYz/5mMn+VdZn4vPPMXjpcNfOHSY+08b/MlXn2Kse/yVB06xn+v84299Q1moi5R3uQxV0TjcGtI+/gmax7/Dmh3xaHRsVSCsnj0rBN7jCNzUDIJm+XTbLfVgaq8NWexdxggGtBydeRjT9l2WcYah63Q6AZO9PXrDDcb7ewyGGyRpRJnGGJpOqZm0A5dFmNBpBySFTltkONlS5RD4nQHxYoLtdWn5jtLX9ta3mU3HuMKejmb4g8PU+YJGcyhFXuJ6Km8hnOyhey00eRv2u9T5nDRKaTQDy7GIwxixt10uZgTtNstFCGVBb32d2WiEKZI9uw/FQj3g/e6mCmfq+DphWh+oAQ4fI9Ai9nfHuL2tg6CddpvZ7kUVxmQg3g+uUJ+UP0PH1djbG1E1miLsDTePk0Qz6ixEp0LcH6zWFkUyRffaikm7nC0YrvUVkbEqMjUrI+egQsczTZLFCKO7AVmE4a1h1qEiY8rcidPZVkqJUvrVYTDcZLZ3ie5wi2mUKuWD+CCM9vepq5Lu9imi3RdxHAjaAyZhzqBtES9SvJbDdFGw1nUVUbK9cYx09KLCMqp8ej2P2e5ltd8ParuZGYTjJ0+rGZzR3g6nPnQvj3zr6/jBGl/aMPh3FybEdDjZcgmaGN8zOdzq8IfPXeRnD63zxxf2+NyRdeaewYVlhlWUDC2Tb8Y69zkwa2qe2rvMF44P6Tt9vnb+PK5n8uPrm6TJhN8/F3EiAM/pcMzUyLoGXmYxm07ZsdscLnb42vKVAudKseMFLqbX4p4Tt3Huse+zl3cxqn0l/1q1FQIrBN6bCNxUgfCDOOQrcdI/iH290T6uZuXLG90VgyD5jqgKJAipyLOXQp1RfhKy1HK9ZtmOegi/3uc/7GOVqR+RgcqMz7VNF85EKRLP149xlhwGWb75ILebKRA+yLitjn2FwAqBWweB1y0QZI3x+PHjfO9731OjvZ5R0q1zGKuRrBC4tRBYFQi31vlYjWaFwAqBt47AdQuEo0eP8he/9CW13vx//ct/qYxU3kqBIBHCQkCUm+TrNfslnbwpBkV5rgxhiix9+Q1crCTFUlisVCvhM9xAM20PxHjodWxPhfEvZL88z2+gt1c20XWD+i1aCAv5sixfvR8hYgoJ8FqPhBsdjG0aB5aumo5jNDemtdWE9GiQ5zeG4Y2O5ertZJ1dzKpW7RUEbrZAuDJzduXaCxyXQ12fM3sTxZHpFGOWNzB7f996n0f3X+tT8rdvH/LPnn+1ykG4BLIotDqXqyt5hcAKAUHgugXCHadP8/nPf55//a//tXJYe70ZBJlql5uKyOs0XcPQbaoqw7Jl7d8micSURO5imiJmyYNEpubrSkO3PXr9Dulyjl6mRI2La1UkYnmoGRw6coSdCxeUxbHYAAuFXp7RstaZpana50F/jYqj7a6toVsBWtMw2TuHdvU+5QCaGs/vksRCepTxyJiFme1R5JEigqn1VCGVSZ/qK+KIKI6BXWbz2YGMUDsgnckNXLIdrtxUQVcs/1qOU74rjH80lU0gCgbp2++IW+BYOS3qYkVdX72WW6sxKFdIRWxr1H/qhn0wYhX5m6UhptuCLKZUx2Ao8qVM66t9GVfkjuLlX+H3jpAvLilOw0E/sDnssDtavDRelMWz2q86MNl3/ZLXunbQ30vfE1SEPCq4y7Ebhsmg21IEzCh6tTzug/7rdTMFwud/6mcUfMot1DB55NsP8wsn7qJrzZjOcn7/YsyJlsWhKuJrsyU/P2jz7dTkx4cGf7Yo+Oxah39xIcapCz4zaHh8kvOpDRfHXePrl89z/6HD/Gyv4u98+xz33nM3rVabbzz8MF5wjE/c67Fb9xk99iwLsc82TD5ywuChR1/4oJ/S1fGvEPjAIfCaAkFsX7e3tnj8iSdeevgevKZcbwahs36UcLGk320pi+Ikmit5owSPmFZAv+MTRXNlDVwmqZD41cNlNh7R6vSVl4FI9HpeTam3WS6n6sEkQT3dTod4ucRwRM6nY/uiENhHsx3lc54XDYPhGuVin9FsSXcgvuqBmh1omQ1lVRKmpdqmSBZKLVBXDWki225QJLmyPE1y7UCmp5fKGllyBJK0oNdq2N0Z0+r2KPNKeVn3PJvMdNGwyfOEIl3itTdwtBRNio+ooNNxmE5mBJZGmGR4vS3iyQ7tboBVp8o6ubQHdAKH0XgJpkNda8p3Xty3wrDEthrKPKLRarTGxu4PWEwWdI2M0TJUhU6WJQTDY/iiGMhCHL/HeJ5i1MlBNoajs7s/5vBai1jrYpsmBiE7u3OcoINt5FSlhS/Kk91dhh1DBeT0hCw5uiThGrheByOfYm2egtFZcn9IPAtpyKkqC7MJsdp9yjAiya7vEPmB+4166YBvpkC440P3sraxqayW43Cpiq9PHrmdONnjudGckXaEz2vP0XPbnMPi58x9Bqc+ypefPI+WNJgkPK0d5pjd8Fc3Iv7g7IRLdUXbtpjb25wIn+fv3ndUFQj33H037XaLbzz8TZygjUhe28NtmnlN1trkF3/+dv7dH32Lnaeffnl274N6TlfHvULgg4bAawoE8Ya/3hT89QoESxITnYAmn6liQqax5eXXMF1l3qNMgMoDjwMh5EkQkm6YVHmJaVsUZal8/LOsxLYtdNM9kEC+RISTh5qEqTR1qWYQKvFLMK0DUyHNxLQMqrIEeZM3LUUWpCnVW668cYvngWwjWn4Js5DvyZuvY8v4SgxLTIYy9eYs5DtZ0pCApkp8B5qCojpIOIziVEm68lw8w2tcL6DTW2M6HVEXObrlYUmGQl2iie9BYyDTHbLCIhkUosCY7F1S46rrEs/z1du9qA9kBkBmDqRf6atuDOpGoxGfbE9mN3KVq1DqPqZWUhcFjSUhTaVKz7M0MalqMExLBUjJcWkyo6AbmGTKu118CQQX0zSVYsMwNOXdUBSZeiA09pAmHVEbNjJfkGWy7wDXk1mgWM1MWLZNkaZKqqlRUeuOKpB63R5ZEpOsTJdede+4mQIhaLVVX2JkJZkMs8kYSUrdcjUuxzkiOG1ZJoacU0NCz1JGtc0hqyZsND4+aPGnuzMOeS5JVbDMK7IGjrYC9qOQ7ZbkimRcSq5ZdtJ01no+8yjHMgwcKebThp5bMIvevSWqD9pNd3W8KwTeKwjcnIpBM/E9mzh+84jS9wogMk7LbauH3/WbRtDpEi0OXOikXXEzvN72XrtHkRykVt6STdNwpEjLXzs+09AUX0ItedQSr7RqN4rAzRQIN7qP1XYrBFYIrBB4NxG4uQLh3RzZqu8VAu9hBFYFwnv45K2GvkJghYBC4F0rECS3vclTlXV9I02sg8UauEjm1Jqplg2aG/zujfT/ettc0fXfTB9CUPRbHnH47hD1gu4a0fyALHqliZ2zGCq93ZkJieQu0gNyphAub0iloRlqvXr5krvl28ZME9vsgzTK92tbFQjv1zO7Oq4VAh8cBG6qQBAyoa2XihyYJQuCVpf5bEa331OkQL3MSRsx3TGx9ArN9MlScSNs6LZ8ErH9dSyWy4ju2hZ1HqoshvZgyGJ/B783VKRFi5TScAnn85fWzwMM6bus0E1DrdWHs5Fa87dbGxjFDN1wkaRkvQrRDImxrZFZdM8xKWTNv8woakOt8Y73duj2uiSy9m5ZhFFEp9UmjEN0q0VLD8mMNYp4jmNr5LWGqVVoTosiSZQzYWNoaJWw/HNavQGz2QLPcwijFM9CZUeIDFP4AUG7T7Sc4Pht0jCi1WkRLqYKHxlfbeiYTU2UFji2ozIihNQ5m+4r7kOVJ2xurHPpovAGwNZRka1tT2KzdGV/22l5SEqtyCobkVuaLYwmoZQsh0rHNgoKUUIYXTqBxWS0S2ewznw6pi/4i3ul5xMlEZ12i+l4zNHbTjDa20Mcr6NMJ7DADVosowTHzMlqS9lhR2EIeQJOF19PwO7SVBGG49IkEb1NUahcRrMcxYEo9Bbl8qJSWbxf2qpAeL+cydVxrBD44CJwUwWC1z1EFs7pdFxF7KvLAsMfEE52VJGQL5dY7R6eDVEUUze6ejB6nQ28wKOOFkQSJuT3SeMl7bZHk8SEWUZTNbidrspuqLOFsp7NsoLadDCoyGtd+SaIg6GEJMXRAWdACoQmGeH4fdptlyTLMYqYwvDkUyXD7HQ84iilLIQoqKFbHYxqgeOYLMME3e6QLXdptzuK+KelY2gdpuXqLKOYPKtwXYsqmpBqHRwi/P4APZ3RuAOS+ZTKDMiyGMNqQ7ZHXjZ47XUkdz6e7BL0BpDMaXUCcjrEk7PojqgNGlwKKn9AtlwoomRjthW5cr2jMVtWUCYHQU6OqSSPpuVg25oK0xFMslycojN62xuKoBlOUrLFHu2NTZpoSuOvUadLllHK+qEjLOZLBi1dBWHVmoPf7aOXC/IsJ45z2l7D3jjED7q4tkWr7TDb3SHSO7QdKKIF7c1DVMsxub0O+VTt36gKcnedJhzR3timXo7UNZLpQtzskk73WN/osMh0JruX31e/hasC4X11OlcHs0LgA4nATRUIolaoS/HmFyb7Es9vES6XtDodkihUvgGWqVFqLhYFeY1KgEvSHNcxydNUxUSLc4Dve+TC4i8rPN8nWiwUGTBNYyzTUoqDKFyq1EGVHBjNcIMOy8UCwxS9vqtChHTDIQhcNQ0uZEPJT+i0+4RxTNXo2KZO1dRK1aBLVLWpE0cJrZZPmmdKaSC+Cp5rYvs95uM9lVAZzicq98Axa6rGQGtyDKdFnibqDV2m7LuuxmQub8qemvp3HJs4yVXCpMxueO0heRIReCZxVirFwXDrsJrxmEwXWF7vwMbYdYllf0qVIUpIm6bR8YIWvtmwP9pX/Ym6o9UZqtwJFe6klBsahtOBMkazfeX3kMapmgVYLBfqnDgy5aA7Bz4QmkaRReBIPK8UIz6WlpFFoXqjN7weRTSnVttKLkNPLXf4suwRpxiUKj1SwqFEadIZbBKO9zCNCq+9ps6PYCuFlUqj1HRMw1B/emsbjHZ2aJR51C1K4nybt4VVgfA2gVt9bYXACoFbBoGbKhBumaNYDWSFwC2GwKpAuMVOyGo4KwTeBwh0u10VTvhKE6PAhqIomU5fcUx1HIdet6te2q402U4M8RaL+cvOusI/GwwGSgJ/1YaqzzTL3j2S4vvgXKwOYYXA20ZgVSC8behWX1whsELgGgQk9uA3fuO/5Is/8UUsy3rZ2/bKZjJj/eDXH+Sf/NN/xuc+/2l+4ed+ge3tbfXx1YGHUiDs7u7xf/z+7/H82XP86q/+Mp/5Cz+qEpcPfHYPxOzK16gobr5AaEwPRyvIi1Ix4ludHkk4v24SoFDmWm2PcPkK2188BPzggKSnDJDepNl+V5EF392TUnAAACAASURBVGxLy7Ipihy/1SJaxgRtX6kM3MAnfckWWEiDnuuomOcrzWsNSMLJVaPQaXUDwvkSy9BozBZ6sVTLJVc3W5YbshDTaVNny4Ppecsh8DwWV/V/9XfkcyEChi85SL7ZsV/5XMyikOWYt6DycIUQGb/a20EUHO3AZy7LA2+jtYdbLEc76pvdzSPMdy/cUC+t7kAt2bxbTRQeYtD1w2yrAuGHif5q3ysE3l8I3P/he/ndf/gPabVar3tg8vD/+//gH/CLv/gL3P/h+1/3eSoFwzce/oayV/+vfuM3kLyX12s3tcRgyJp80EXLF5JvTJUXikkvgUJpqanZDXmYZeES2w+oiop2z2OyN1aMfgkRkhtpkkYM14aEoRgu1RiOr9j+4sxo6qg1f3H/EwD8do/leBeJTM4rTa2nS8yyHKTeSNyyQdloBJ7LfLFgY/t29nbO0el0CRcz+utHGO2cVXj4rT5JvGRjfY3FMlQZCUFvQxUrNjmpkgHY9Db6GMmULM1ZlCam7MU06a0fZrx3AVPCDHSPpilAs2jyEF1CpjQTW8YZzVQ2RZ4lmE6gwqQc+yXHRHF5bDRsvaKodeU02bULloU4QJZU8jO9IRWXyqZU23Z6XaqyUfwJFd5U1aoC1KuIZVoTtFoKOymSkiQmaAWkaalIoFUyp8DF0Gp0u00SRRh6jm566qFqWw5lXSs3RceR7QrC+CBzQhQWmmESRxGu4+BbuiKZJnnNbVs9RpMpheaoLAtRl+j5EqwORVUqMmm0nGMHQ2wtV/1E0RLX9Wn3N1mOL6GLgiRc4nsBWZ6rcy7uljKlZjY5uahENE/xWpKswXfk3MeY4raZLdGdFm5njXA2UZhXb6GAeqdvJ6sC4Z1GdNXfCoEPLgJ3nj7N//rlf4Q4HTdPfZPm2e9CsoS9F9F+/u+hHb1L8c1+67f/Pn/9r/0ap06dIk1Tvva1r6nvyP1ccnW+8IUvqBmFRx99jAcfeoi/9Td/Xf1cmixRfPWrX+VLX/rSy4XITRUI7eER0jim7VtEi7kiFVbLXSqzhRMMqIoYzXRIlktFWmtwcAIdrRJqm4Vt1CRxRJantAMPzWpTpiGW3ybJSrqe2DCnJGlNren0/IaotNDlgWObRLlBU0YEVsM8jGivbbHc36FGiI6BIjUOD59mfPksQWdAOtuls3U7070XVRCT3x4oqV+344Puk8czaluY+jquWTEdLVWB4HQsjGhMjUnUBBhFgttqobstciFnujbzeUJZJNheB9+SYKSGME4UKdBt93H1SoVOua0BaVZQpQtcy2C6XDDYPKyUHpNJrDIfBl5FmJuYfotKbIzzglZ/g+XoPKbbw6gy9YD3husUEiJlWcoGus4yCWGg32kRpzVZGmH6Papwj/baOulkF123aWyTuhYSpo/rWUznGcNBn2R6mWWSq+Kit3kbnpaQC/lRsxBXxeVciI86VamrWZbbTp/i0vkXMUyHqsho2TqBkBSjVElP55fPU5mmyn7wbZvJbEJ3fZtKVA+Bx0jUkMsL9DyHpHJpjIayNCiSfTrrp0knz6O5A9peSRqVVJqO1xsQz2YMtg+xf/EC6z2TvUlC1y6Z5zqBbZM0Omn49mZF3qlb0KpAeKeQXPWzQmCFwB2nT/GPv/y/qId98Vt/Getv//dU3/4azd5Z2NrG/Pm/p2YMfvO3f5u//mt/TRUIslzwyCOPMJlMVNTBsWPHuOOOO14qEB7law8+xN/+W3/z5QJBUP7n//yf8/zzz/Nbv/Vb6uc3VSC8O6dNY7CxrbIL3moT+WS63HspifD1v93qbxNO3zuyOlEzdG2YpSWm24VkRnnV27FhB/itjjomtUqjmWyst9jbe+1D0vR6mLaNkYyJ8uqtQvwD2V6O13VtkmssvHVHpKRjKsPCllmO6zgnaHaLttuwWLw7plU3CsCqQLhRpFbbrRBYIfBmCFxdIFR//H9iff6XD/gCpkX+7/83zJ/6G68qEE6fPphB+MpXvsLJkydVptATTzzBL/3SL71pgfCd73yH3/3d31WzCLdggXCQ+PjWM+lF6igxxLfmQ+/NLoA3+vwgivr1bYRkWUKWZCS06aBp6FqjpJDXNomFNnRehyNyM6N8574rfg5l+dpwIAmgUhHcV5Fp3rm9vrM9rQqEdxbPVW8rBD7ICFxdIJR/9hWaF55GWz+G8aFPkv4Pv473j7/2mgJBiIuPPfYY/+E//Af12c/8zM9wzz33XLdAOHPmDN/97nf50z/9U6Vq+J3f+R31HL4lC4QP8oWwOvb3BwKrAuH9cR5XR7FC4FZA4OoCoT73BMl/9zfQ1o6ib9+G9Rd/DePkR9RL5G/+9u+oJQaZQQjDkIceeojPfe5zFEXBgw8+yBe/+MXrFghPPvkkDz/8sJo1eMc4CG8EnJAQmyx+FVHMFvKhBll6Y+mPnZbPQhEXX78JQe1gxV9XpD3hCTRlApqBcAeFwyDNeWnfYrykmm7R8mxlq3ylGZanLJgPLHsaXD9Qhk/yxmpoDZWYEwkBst0lDmd0Bj0Wk4NpfCFrColQOBXXa7bjgSJe5i9//Mob8esfn4plfotRyrYQIotX9qPG57agisnEf/qtNk2jbRsssxLNcPCNguhaGcd1+tQMG19sptNXxmLbB7HZ70STCG4R52TFO9PfOzGmK32sCoR3Es1VXysEPtgIXF0gvB4Sr+YgnHxdwA5IitfnIFz7pZuaQRDnP5sMy++SxnN8v81sNlcs+yzN0MsC8dqzbQtbKylrnSSN8Siwe1skwmK3bfJ0gdVeJ1vOcdptinCKFfTxjYp5UmNqNZrtUCdzKsNXjn5RuMC02+TJFLfVQ9NMxfCXXIN0skNj+WKSTLQcqWNu+z5x0eCR4/Q2keV3U3IarIDpaIRmHDgVOppFUUdEcXxgSKHZiqDXdmGRmyq6uTXYJI/mOC2LJKqhSDD8NQzLIJqO8WyNOKvwXZtKiB55TFNrRElMZ22TcLqPF3QV4UQcIcXxMVpMcDsDyjxTjo95NMFw2vhajtVZIx3voAv/QG9wXI/x/mUst6VUI0lu4Hsm8zAhcHRKya/QHeYLyVVYV3HcvX6fNEtZTqcM1wcsowjf8ZRb40zUHf0B89EemhRJtq3yJSRPISl1Wp5GmBZodYXptXFsi+loj+H6NovpZfpr2+zt7bE2HCoFSOB7StFw9OS9jPYuKczjCgI/oOOZjBYJRl0QZdBumSo7QuyzRYUgao6l8Ad0i+76Gk1RoNtSCOhMRjMGgw6j/X16a+u0PYvFcsZsurjl7h6rAuGWOyWrAa0QeM8icOfpU/z2b/2m8jaQB/z12mg04h99+cv8yi//MqdPn0bMkq7X5CX18ccf5+FvfYu//PM/z9bW1nW3k4LjpgoEr3NIPeB8F4pKlI4Olt8jnFym2++SLRZ43T6mVjKZL7AtV73t1WWDbZVgtrHqBa3eBovxLlmh43cCZVucjM4TdPskWU2aZqxtDCjLhnQ5JylhY9hhPM8o4ysFgqEUB+niEr3BkOlkqvpdTg90+lIg5JjUhVgpp2hOh8CGKs8o4pLaFYtmnzKOidQbe6UeqqJOkDWZenGeTPOoGwe75VFUJoGXE02WZHlGMDisMOg6OaPJHNtpo9s+gV+RRDlVEpGUNb5eUFaODBXNtFSoldgk24aNEbQOpKJGyv4yY22th6gYl8sEz9RpDPlO64CjIU5XyylBq4fjiyrEoes37I5LfDMlTqUQOkK0mKlCiyJTlswbm0OyvGAWN2imi2Z7rDshe5MFljWkqGrSfIqtVSpHImibzCKHNX3GIk3A6FDWFfbaEZLds3TbYpFdU1pdSsEt3sMfbNGkU6wyofb75Nh0zITpVEK3DByjRjM6tHsGuztzeh4sUk2RJ60sIsHFa7VUhkNra5Nq/wLG2hbzWY5GTt60KONd/JZLU7nE8auTLm+Fu8CqQLgVzsJqDCsE3h8IyAzCr/+Nv66KA98/mImXme0r7ohCSJR//z//7v/lJ/6zH1fOiJK8eyWtVz6TP8LRkxdG6efhb36LT3z8AfUiLMXElbpDiO7CAVTb/ejnv6CobJIpYLsSaHT99ncnF/mDI9ukynHpoMnbp+QBSFhQVeZK61/k+YEUoygO9PCSdKiZahngYNpfbCEL5WOA7uLpCcs4x7RFKic+AqpjlQBZ14VaOlDU/CsmT5qOmCsFrsFsKf7+hdLoa/KOqTVivECtfiaEtprA0VgmJaZpK48F8SCQfZdFrgBRAUd5dnAMdYkw+3RDvAdk/yWN7LiuMExLDUP1LUZFKo5aUDDU0oGmW9AUVPXBcoSMW/qXfykDqFpIg43yRZAgI/GHqMsSXdfQDYuiyNTJlPyCeL6njKDE3EmKC9M0DvDUdDa3D5HFErQUqQArUTVU8ZSizFVfjXZA5JP9y7ZyfvZ39w/GUVc4jqckiSqESk6OdvC3vKnLPmWoTVMhSyJlnh5cNLotu1aZE6qoaEpVrFki52wEeSmnDi5WQ45Z8jVeIk1KP3JtyDkTnCUvwrRdyjxRmHZ660xHl0E3lFeCSCxtsQkNLKZhrpaJpG8pPmR7mlqcMlRmhTBzJaSrlKSwW6ytCoRb7ISshrNC4D2MQKsV8Fd/5a+o59UbtX/1b/6NeugfPXL0DTZrePqZZzj34nm++JM/+YYGhTdVILyH8V4NfYXAu4rAqkB4V+Fddb5CYIXADwCBVYHwAwB5tYsPHgKrAuGDd85XR7xC4P2GwE0VCK3hceLROWVX02qvES6vXgsWiqAsDej01zZZzMa0uz3m0wn9tSGTfYn5VQsVtHsDlrMr3z343rUSft0K0Or0NT4H64Mu40WKbVSk2euw2dVc/ys9NrqH70CSJK86n921Q+TRmCS9vo9/b7BJGs0V2e/VTaM7PEQ+v0RSvFlKxPUvIcMK6HY8xZ3o+CZzYfApeF499ivfdjpHKJYXXuN1YJkeQW+ATsZkdEDQ7A6FgDjBcgLqGnq9NkWRspjdiNvgKwEe4rfg2TpR8mqFxBv9UpjuELMYkV5tT6GbrA967L80vrf6S2U7Pcp8po694wcsXkc5cu05OnTkOLuXzl3lF/FW93zt9ldho2usHb2N/XMHNt6rAuFmsV19f4XACoEfNgI3VSD4/S0C16JKI0UmtD0XvYrBcNW6tdVkyhffGWypoKRBN2A8DVVKlGNWB/7Qlotv2UR5iWUdhD0ZZURjuRRRSFJb+J7YK+dEhYGj5WD5UKWK6yAKh2UqXAGTurEIfENxCYRxHyUVvjAodZsqHmO4Aala04eybvCDg324vsdyPsPrH6bOl9RiLUxGJsv+Dfi9LnUyIV2EaLaP4bVpGpH82eTLJUGnRV5VKlegSkJyyUYwTMLphKDXpxRraEMjyWWUCZbVOlA0dEWxsTiwha5MjCYlTjJMr39A+KtyAk+yG0IM2ydLEyzTVJkTSdMiaPkkszFeyyNZTnGCPnkc4w/WycM94gS1D/SMNK5VKNZ8kdL1GtK6oswaPN/D9Fy0PKFSUaAprXYbwzEUsbHRbaY751UwlOe20R0P3zaZhhU9T85FQFNVTCZ7DNY2lXqj59sU0Rg36FHWEXnTVRwGTWtwLJuyqWnKjDwrFG9lsVwwXF9XElOKBXHTIk0qbDNDKzPCyqfXbRHNp3TaHnavQzRdMhrvc/TEHeR5SpXluFrIPHNwXIdON6CeXWJet8nCEZgtPLNA3BjTaIrnBnJimY726bd84sWEbqdNHV+m0lvshyVb29tMRpfp9YdITdQJPPb2LtDt9pmHGRtdk7iysPMpjt/n4t6Y3toauqkR+D7f+vMnFaFU2n1pyBnHJ1WmV83rMpF/2DeE1f5XCKwQWCFwBYGbKhDaw6O4RkaaFFSYdNot0uWIRrOQnKPArAgXIXZnTb0JW1pDFs/wOussFhOKVDIN+lAXWCrvqCN0NMxKvAiE/NfQ6EKALEmTBNPvUEb7DDYOqzd5SbC2bJ24kLCJhqK2aOqctqsTJhma4aFTUdYarllj+y2Wu5fBDRQpUm+KA4JdOKLWTIzuNnWRE3TaZMsxjeGjVRW6K0RCh2I2ZpHm9AcDilLIjBpltMDwOpi2xWz3PG3XoLJ76njLJMJ0XGwvgDIjSmvavkZZWxRVpdQdil6ZjVk0bdaGfRbLiroIwfTxLMkliKi1SoVRVVmC1x1QYah8inbLYToeM+wHLGczDNuhSHMMz1VESPQ2HV+jajLyVMidmspoCOySWpe3XA/HajB9CfMoyJNUqTRano5uG0RhQpPnJNGcxnBo+SadwZBoFtEbeOxONXyzxNRSxvOYza0tFcglhZ94UcyXEa7XxbYqvKBDmWRYekqUQm24VFXBYG2btMhJ44imiCVqS0lBp+OYlquhNRmd7S32L4/xnIb9aUrX94ijGLPVwzdyCs0isCwl1+z116nLiMloX8lce5uHifYvk1tdnO4G/bZBtthlMYtYP3wYXa8Z705Vwbo3mnLqxCH2YhO7jPFETppZVGXN0F2omZOcniRyENcB3cDA9VxmO+cocg27u4ZdRdS2Szy6yMW5kHRXBcLqdrtCYIXAexOBmyoQrhyysPAlr1q8CW60OV6LLBETolW7goAkREoxdCs2UUdIiJUUEleauG5JtLIsH11pssRRiFHVNc0SCaPtqkKgVnbJt16z3A5mKTLa6+uM38qIV0sMbwWt1bYrBFYI3IoIvCMFwq14YKsxrRD4YSKwKhB+mOiv9r1CYIXAO4HAqkB4J1Bc9bFC4BoEVgXC6pJYIbBC4L2OwE0VCLbfo4hnSnEgOQt59kpugiw76E1O1Vh0+utqOSEIXKb7e4rwJjbCRhWRl7UiEeqUr0pwdP2WMsmJVRbCK6012KZYiJVymzKeq77EpMigQLq60tyX7J/l/4UgWEiQwlWt3e4SLuevUUu80QltdTqEi1cvo7SEwLaYvr0USU1XzoZ7O3vKTKrb8VnM33yZxnQ89GtyHSTyucrfXsSxLB/YwkksKyTtUQielmGQXbMUYDotymy1LHQjv/SrAuFGUFpts0JghcCtjMBNFQhed0PlDgjjPi8lxKiFVsYkeYVmuFgq0yDH8vvoRoOtw2K6S1FrmH4fz6jRNY00ScEO6LaEfDZTboSDjW2i+S55cSB7rBob2zqIdC5Kcdtzme/t0t/YUooE0jGNM1Csftt30Q1b/dzTM+U4GOY6jqUzm40x7BaWqamHoOU4WJaQ/kS6Z1CG+5RGC8dCfdY0OlEUYRk6eaUpFn1ThBSVpdQWpt8jKxvKMqXX3yBOUyxdo6wKkiSn3+9TlRFZLi6ONZZWKbKkKBLqRsczSsJoSeOsE5ji5CjZFn3G+zv0htsqk0HTLJZJSsu3mc+m9NaPEc6nbG4NmI5nymVyOOgxny2w/IAskULBIIpC9DrHDHp0HJNUc1X2RZ3NqCUnozExdQPb6xBOdxiI/HS2wGgKNMtCk/NErhQiyzhENyQ4ankrX8+3zNhWBcItcypWA1khsELgbSJwUwVC0N/G0XNFXGs0B8eq1UPJEuvgxsTRM4pSV5bEjmKxR2h1QpQWGG4Xz9Io0whTt6jdDk0+Vw/DosjprG1QF0vyTCyKa9W/WC/7jqEyD5osJM0aHN+iagw888DSOEsqDNdUDzPPFWvngjSMqXWPRtcJ5yM668eoy4w6ibE9nXQ2o7u+Tq0J4W6CZjn0fYM0qxE6XYlNKrLEXo80XGIbjVJZiLLCdiwsvcJqbWH+/+y9Wa8lWZqm9Sybxz2e0T2GrEqqCwnxD5AACXGFaLWQim66ukoF1dU0oiUEtEAMQkL8C4QQ/RO4L3GBoFBf0Fx0laqU2VkZk7ufYQ+2bZ7Rt7Z7uEeER4QPx6cMW8rMk36O7WXLXrNz1mdrvYM1QnGLhBWKysEK1zTZhmC5RHWNllS2bY/jW9TViLItwjCiqlt8z6DIa50IWbc9/uISW9WU6Z5KJKCOq4OOdlnLbBYQ2gZVcSBrHXqxcB5EpqiwPZO6NugVzH2HujzoccjqisgATctgs6lQdsAyMrUCZBYZNGWnC6+i97Bdh9gqSTLRplQ6qEkCosauoKqekhRf8Zn7SXxsKhB+Erd5usgJgd9oBF6rQHiCjKQR+o7J4fDjxjvCepfJ+eumDNZn99hdf6WzCt5Gs7yIvsq+sb1wcvYxdb4jfbylYbgznCGjek488mz9Ca7VciOSyfexKZOT9Zrb2+u7GZ0yEAfwdnz/Mg/u5gLvvpepQLh7TKceJwQmBN4uAndSILzdIU9nmxB4/xGYCoT3/x5NI5wQmBD4YQSmAmF6QiYE3gACU4HwBkCdupwQmBB4qwi8kQLBsH0sAwLPo8j2NN9SEHzfFYYzyRAYSF9kq+JxHLP0Jfv4RVUTWCN53eEES4Z8S/ck4PobJ1QEYUzXdTrSWNQPEg1d5il1ezQpcqM1TbFlFPKj/Nt/Qvx72pGw/V1joPrWtYldc7V7RDyPOSTft+WisGxbR06LB7FnytK9TdV9c39/Npvr6OQ0ez4xcLa+hK78znm0HbMVYDs2uThCvsbOjVghuxYvlb+gTBePmvIZPyRRmixmMftk+0rjscNzzPqaqhvx4ns02YPv5FA877mazVaU+e6pikUZOJaiESLLKzThzvRVoj8ZiM244VB/KwvCc22KsmGTTU6KrwDx9JEJgQmB9wSB1yoQ/PlHeDa0TYnr2vR1gevFNEq+mdNVBaNI5oIQxBh57Kl72c+uEFle11SavLi/fqQDhdrmSJRThgdtptn+bVkQiH1u22oHPpnQm85AHGy7fqDtOu3w19U1eVmyOvuYtspQfUPRDrqvxcyjbiqdGeCIG2ALTZFiSN5DXdF1NavYY5tWoCwuLs/Ibm/oRgvDiVmsYpquY+h7qBM6I8RwfKqrLwhPzzTxUKSUynKwPV/7+wtpMi1qHVAl5oiBq8iSvcaiLWu80KNXDh4lpjGy3ZT4WvHQEp2s6bMtXTtom9+iFfVEQFnmRJ5NVihc3wFrpBV75H7UORZZ0RH7YNkuaZIxWo62RpZrCSJb20iLo+E+bbSkUiyURZ46Wh71/gY3XukcC3d+zu6zP6ftO8LZOZiK0Auo8ozAU3TKJo4j/vqXf8n64lO6KiPyXGgSGnOBGkta55T5LGJ/8xVhGHI4pJrMaVgOo+BqQRT6qCqlaytyIkYc7PxL+l7RRGtcCXAoRZUyx4l99ruC3faan//u72pC6e76isgd2WYj9z46p61ShjwlHUMorkkKOD+fM5gRpA/AnkF8RpVc45oWqrzFCpeM9Zai9znkOReX99nutpyenDA2Itt1eLjZsFzOGQyPE79nVyuc4pouuNChWrGniE5O6LIdqs7ZJBlZXk4FwnvyR24axoTAhMCrIfB6BcLiI6LAJN8nxIv4KDGM1hRVg2ePFPtr6sHWEsf58hT6jrIVaV+DKX71EpQUzSl218SSpFin7LcSPnRCke44Ob+kyg5EJxcMXUnXG1Af9Ntf3XT4zoAfzrm+3nB+75Kbmy3rk1Md3jM2LW4YsEsqljOTIq9wXR/XVdQNFNkOw3Aoq5zL81NubnegRJ7pM5QHVh//XKscZKXB8GOd9SDZDVneEtotQ51R5gOj7+K6oc58sOK1Do9q01v2Wc1JaHOdFISLc4Zii20Y2PGcZHtLuDjB9zwYCsxxYHOT4q+lEKrxZz5V1WP1IjGENGuJY1evdFiWYn+bI/FU82XE7cMviOenuK7FPik5WUmok4Qz1ZR1zvreb7G7esTZxZo62eLPZmy2NcuFx363J56f0A41Y5VjBmutFHHCBdef/QUyi18sXILzn5NvblBDwW2mOFsvaW4/I3PmLGdzikOCH8Vsthsco8OIz4m6GyTvqTTPtSw0bW0sf06xfcD9e/eoqz2bfaqLSDuYcXnvnP2jRywXMUMvBcZC50Ckhw1FUeG4MbMoxrFEgulRJtc4wSV5lXG2jKn2X3FVmBhOxMk8YH+zhdk5nmPq/IubR18RRzMtU03zWq8O7Xc3OrPi/scfs816hjJjvrykMS3SJMGTFMq2RYX3WfkD+6xiMfO1hHSzvWIZzOn7ksCfkey/pCDSGRqz2OXmy19PBcKr/U2aPjUhMCHwniDwWgWC7S/oqv0rLRm/6PWPoyKIY8rn5DwYloelep0O+dpNGRhq1DG9U3uCgMJxTBrRbT5ust0ihc1+9zR/wQlWekvm203unRRsSbJ9bzMmrHCF2SRaWnoXTVI8h77TkdLTFsNdIDr1MSEwIfCuEHitAuFdDXo674TA+47ARFJ83+/QNL4JgQmBH0PgjRcIpmm+mg3xj438OT9/E2mIErP8sumD4g4png6yJSAcjPetmZZEGH971UVhWRbdd77/YqM3LYnlPvpbiM320L/Yqo7retR19WIn+YCOmgqED+hmTUOdEJgQeC4Cr1cgKKWtkodh0Ln38lU9Vg4cmfNigjRne7tHPHZ836OqZDIYOD27T1sX7JL9sQ+ZUPUQ5X+Py/zzk4+pkwe4iwsssQf2Tsg2XxKf3KdPH7HPjxOSWBKnt49YXX7M5urLr7c8ZF+8zFLtsGgYT8ZpEkQzsjRjtVqw3dzq8wlp0ugL+vF43HEoiicTmIxKrm3A4GR9QVNnpNlB72UrCY0YR+QK5IjID8jKCjdYUudbfUmL5akew+b26jFW42Osjl/nZz9jrHYkSYIGyxAipoNFTTMorWb4JraPMVqsNPlRzj4K9oKjMhjHXuMgBc44Hj97vE8mfuhT5sXj75v6fLOzS5Lrh8d7oAztXin3Rc4i5z72o/91xFffezndCMrkk0/P+eLXDxgwOTmds7ne6AJJPxNyoGCqx3XsS4oux49oyuxrPAQf4UF0+e1xvHLfZCyPiyy5Lv14CdaPHxP5IrtCx+ev/7pvOdYKT7DsgHL367f+6z8VCG8d8umEEwITAneMwGsVpAM7JgAAIABJREFUCN7skq5KkRCjMt0iAUh0qbY1lhwCZfsEXk9Zmxh9i2E7RLMI+pq2HbSCQEKXXFtcGDc6iyHPW3plaovfvFE4Q6pZ6Eaf0VoLjC5D5H2qq7m5eaTh8MMVtmPgx3PStCR0Rh0KNT+9wPICbr/6jOXpfer9hrwpODm/T15UqL7WZEfZYw9nS8yhpGtKzfzfbQ44rqOJkFllUNcFJyen2mI5efQregyC2RlGW2B6vpbRjWPHKnIpipq6F4toi5PTJX3bUonNtDIoe5dZYJMfHhHGSw6p2FRDHAfU6YbedFhFFvttQtk7RHZP1zdEqzPaPBVRJnXZUdcZprg9GoO2fraX9wnNkkM1UiU5VrejtpYYQ8F8saCoR03eHOoSw18QueBYPbvbFN+GRgVYwYwiveX0/BOaoUeNvb6/RW2wXsWYtkguB5p6YG6mNP4pY72jKDrmsa+LH2v2EU6fsAgdOhWw3d4yW19AtaPrO9LKwrMb0jQjnH9EVWV89PEFyc21drH85GJBUbTU7gqqLXU9UFUNttkyX6zZ7vacBsfiqLaXGF1B415QJVfMThekV7cs5z5t17Cc+XyV+lS7z+741+bHu5sKhB/HaDpiQmBC4P1G4LUKBH9+H0dVOmzJ8V366hgoVFQto+nqN0yE1Y5NXRZYbqDfJpt8hxfO9cTZjSam6vTb5NjXlHnNoEx8kQWWnQ4LihenVJlMmAZGn+MGC/q2pC1LBssn9G0dqiQSQlEBNHWNbZlgeRjGSFE0hL5DlR6wXBflBLoYqJpjeJKW+dWNDpMyHVsz670g1hJKyYUQdWPbVsSzOWWR4fuRluZ5rkeZl4Tr4/i8MGJoC9pG3tjR/buuQ9/mGIKHoSiqgcBFpzeaouKrevq+Iwg80mTH6vQCRaUn4apu8G0LbJtBJKN9QzW6zCOb7S4hWH9KW+wIXZumKWnKktn6BNdx2dxuML0YZywxgxltkdKJO0FVEMUhVVFgqhEvlITKHaaEVxkDRngPx2hpJbRKrrtXKGeBq3JGx4eupilK7SVRNzltb6Fosd0YwzIxhpahH3Qx4noBvRngS2Gx29L04lExx6OlGpSWfgZ+TJHc0hgRfVfiixpWubRdSdNbegUiNIU8WjF6a9TQ6q0QKQTnsUdRlCzigKwocUPxqxDZp+R99Kxin3YcSQ9vP4FyKhDe7z980+gmBCYEfhyB1yoQbG9OVydfL+nLkrJr9FRPSe8/PoJXPOK4jP4+ZAOIJ0HwOEHxFS/mJT7mepH2eZArV6YDj6WQT7oI45UuUkq9lXM8xlbiHfFddYYbrHDtkUOye4kRvM1DFXEck6bfjcB24gua9BGmG9F/TwS1skPtx/EudClTgfA2n5PpXBMCEwJvAoHXKhDexICmPicEfhMQmAqE34S7OF3DhMBPG4GpQPhp3//p6t8QAlOB8IaAnbqdEJgQeGsIvHaBMNozAqOkrI+ZButZxKFsaOryOxfheiF1levvm/6cwFaMTU5WPV8SZ7oxniEsfotx6BhGg3losUue7imvTi44pAXukJC3Rx2E5caYXUr9LYWh8AACo2II7tFVW81VEInB6uwe2+uvvjNe0zDonygagGh1SZtvGbrmqbf/Nz5lYtmWtoyer2MO22MWg/AtNEEx++5SvmQ6rEOTbd5+I+56dnKPw+2D730QlGnrTAHhTrxwUwqLkWd3G2RcvuNRNqJqeOGevj7Qic60rXEzQHDyc+rNv+BFojdcf0lX77WhkG6Cw8xhk3z3uXnpUSmDy3WA7dp8/tW72T6ZCoSXvmvTByYEJgTeMwReq0AIl/e0BM4xj4oEz3NJtzc0I8znaz0RietemhUsVwuqg0zavfbmz6tG8xVE8ih5AHlyizu/0OFDtGIVnNMIWTGc0WQ7TG9GXe6JAo8kFY98ML2l9siv0gTb6LRiYRxMPVkJu92goXeX+EZNVgrRbSAwa+xgQVUW2nJZOT6LxVzLEct6wB5rBneBLVbRtzu8xZy2U/iOwqTk0dUG2w1ZLNcc0hpHlTqDwfF80kcPsOMZ9AP2LMQeFfn+EcpbaT+E2WxGW2c642GoGpxZAEOP1aTc5rA8OaXcXNObSis1mmJHXfdYYjNtWCiZwU2DPMs4uXefvqnpOxNHHQsWkVzGi4ivvvyS1cXPaPayRx/gqJ7WjjWB05uvMceOw26H41pkWYPvmphCULRD4sihKw50Ta8ln2YYw2jQJ9c6iwDfoM4bInJKa0YQROTJlkOe8dG9c1or0sTNwFGUdc/pOmZzu0WN0DsRY/qQtDE4P50xWiHd9gtaK8SKVvTFnr7riVRFac2x+pTeCrT99uVHn9B2PdkhZegG7fA4mB6R02tr5+L6S6JzCcq6ojc92jxh4Q082B6flbfdpgLhbSM+nW9CYELgrhF4rQLB8hcEnkMjrH/fo04THPlD3xZ0bUc3jPi+TzsoPM+mzuTNf8RyPaq6JQxcasljCHwOh4JoPmfoG1qxVVYWg+Xge66eEIMoJk02+J5DNxh6hULe6LPNI4L5GleCiyRVzwm0+sAxFV15wF+eaXVE04gUvydwDZJ9iiuSzAFM22Q0PJ31YCoo8oLA6fUk1HQmhutoCb/rmFTNSOCa2kzItF2q1iByB8qqxnFcyv0Wb7GiqUoMx8I1DQ67PcHilLbOsbyQoTpg2gG9DMhWWt0goUEFMVHg62LHCQI9+dFVmKZBkR50iNLi/GMOjz7XMtBPLiKKUYKfStqmomp7FrMlQ5PTmC6uYeiCJ/AM8rLAUR34C5x6SzcaKHeJ67okRa39DqrDlhPJWCgTnTkg12fq4imk2Fzj+SGN3FNl4lgWyeGgFSDYMm4Xo03o7RltmaJsSaGsiHybusjIBxtJeAwtyPIaR1IQ+wHfd7UPxWq9RPW9Vm3YrsfhkGjpph8vtRxSTJ3mi5VWSEgOghGv6bI9ynGhLamLg85DKIotDQGODRKQmVf5U0+Lu/7N+ZH+pgLhLQM+nW5CYELgzhF4rQLhzkfzgXVoWD705QvFDt/FpfmuQ/k9WwqG6bBeLbm5ufr6VF60psqeZiY8+YFkJJycX7C5fngXw3ojfUjxaXUHqvZbShWlCK1BbyeJf0P5YoaNb2SMP9TpVCC8dcinE04ITAjcMQJTgXDHgE7dTQgIAlOBMD0HEwITAh86Ah9cgSDkPIld7u/YAsEyDLpnCIk/emPF9vex7bBlm3pL5b1qysAzxZPiSNx80iR5sat2r5ZaqQwcE5pO7JNNbSv9IumXphNgjRX1t1cD3ivA7nYwU4Fwt3hOvU0ITAi8fQRes0Aw8DyHXtsMD1i2rbMWPNfBcgK9N2zZLp3pE3s25eGaQVwLi1zvacveuWU7Ryb+OHB6+Qlpssd2HIo8Y7ZYc7j5EqEyaoXEyRnJodREw6wscbwIZfmMzUGPocdEDRVKYqBtF3soGf1zquShViMow2KxWrPbbBCDwq7rGDF07oHZd3pPW9wdbdvUjn9DW2oyo2XZ2pJZrquqCu0QKPbMru9SFxVB7NG1g3aLDGcr+q6ha1q9Dy8ZD21d6r31oetYxy7X+xzHdakFKy/QHIr9zUNsxzw6Orqe5jGIwkIyFQRLxxLmpU2V59i2Qzsq7fxYSd+Oh4FkL4gNYcOAhWUb9O2A7Vh6W0LG3nYjS0+RdkqPRQocZZmMbYPSBZIENpkMTaEVI+Jo6fk+dXbAsD282Zo2vaFqGmb3/mX6/ecUlfRtH10fPZe275FiS/gKorIQHsR6seBQlFqxYgWxvpeu6mgG49i35WIavSZa9n2vXRolwlvuhbhxOkGouQyOHzJqBYmB50ihMmI7LjPfJA4Uv/zsu9spb/9X6njGqUB4V8hP550QmBC4KwReq0CYnXxKtv2COIrplYttKoq6Yr48oU62NKOB61hUvSK0Ff3QYxuKKt9jBCdYxkhT7BllMo1O8GyZIEtsU0hwO+LAJzkk+lqd6EST48a+RfUFwWxFkx0o8fTbqTk2jG6sJ4tkn+k358Cs8AMh1/XUjcw0HkHoY6uGbdoTqFZ/xrYU6fU1VuhjWhGmMeq8gAcPb/D8gDBecMg6xjYhCCNNuGuTDe3Q4jo+9mKJ3TU0xS34Z9ryeLFearJknuYYXY8R2NiOjzeU3KQN0XzFkO3YZwdOP/4daA9sdwWxPZIKKVPInWLXXJSc3LuHYVnsbw4sYpdSkw57vOWSB58/ZHl2n2x3i++Ca1m0ZqDtr+dnl4xdT324oZdJuxIppRhfV9jBkjB0UXWqORRN3eIuL2jbHpVeMRo2KvbZPbjlZGFR9iauN6MsDhRlxaeXJxyGECX3g468aDg9W5LtRHlRYs8u2T/8JaPpEUeuLrjIbjkUNd7ikr7NqA8ppwuTYvQx+obGjCjSPXHkYYcLiqyAvqXOc6xoQaBq1Ow+ZvoFavUzyK+RvK4q3XI5N/ly/xKSz7v6DfqefqYC4Q0DPHU/ITAh8MYReK0CAcNhFjp6MpLUhPksJs0rPSEUeaWlc34wY58kWo64ub5ieXLO5uaK1ck5ZZnR1aIeMGhF7uf4mt0+iyOKZiQOXPo6ZZccCOIVRbrF8WeEkluwuWFxdo/d7hbP9XWh4a/uMdYHRsPVoUtBELLd3OBHc0zD1CFRvRnS1RWhb3DIKm1DTN/RjzZKlhUMSysV9mnO6WpNkhVaWimBTYsItrc75qsl6XbDbH1GsrtBmSZRvGC3keu6R5ZcY7lzhnJDsLgg328ZLVEsOFAnmmk/n0eku4R4MaNoDcamIIo89vuDVnLML3+Hw8NfMBoW95YOmVoz5te0w0DdjpxffsTh+oreNplHIYe8YzELuL15hMGALfLEUlIewYkvdWEmb/Gm5VBmW87PLzlsrimaVicnSgT0Yn3C7uFXhIFB1470zozIM9lJwqSssFi+zqGg2WEvL8luH+qgLAnoCmYnZLcPqLBQpsdqHnBzm+F4ktwIy1nA9fUVp2dnepWkqRqi0Od2t8WQkKvlnH3WMPQdKwlbGh1dfNin9xgPNwz+HFXn3F5dc35xj5urr7SNtCgxjGYga9I3/svyMieYCoSXQWs6dkJgQuB9ROD1CoS3cEUyeR1jht9tU4YNQ/vWfP1lqb+TtCTJuzJNBkmMetwkLtk05efN1+ZGpuXSd8f46282heM4Wpr5dYz1u4XyuyMUjwfEp+JbzlYobFMCo0Ycy9Dch+c1wUK2Jt6nNhUI79PdmMYyITAh8CoIvPcFwqtc1PSZCYF3jcBUILzrOzCdf0JgQuB1EXgjBYKQ5o7WyGIU2GkbXYk2ft5bnmEcY4+FIGeqQdv02pZF0xzfhsUK2BAbPsNl6KoXe4NXhl56rjXR7/nNkSjipvqGlfL3HqyU5h4UWaq3KoRL8aTJ2/x333x/4LYoU1/Pt9/mXc//wfH+0I0WU6O+PeLlakLf0c76x5rtBrT1m3UafH9SN38Mjbv9+VQg3C2eU28TAhMCbx+B1yoQJEfAMCR2uT9O5KajrXJdR2G4IWMt0rZaT4ayVSD/lclUJtXF6pT99lorC+LVBbYSt8OetmmpyoxeCgudY7DCsRVNb9GXG+3dL8I9MQEqso1emkYZWgUhTHw7ONEkRlmatsaGpOi0zTHCQRgHDGXQ9SN+GFKXmR63KBxMQxH5PmlRPh7nKOIGvb1hOwHxcs7udssydrjdHomT4eKCJrvRSggpGsSRUJQHMqZO2PyWpbcJ5Osg59bFxKgLIrGoHlD6M4Ny8OyRWrIh5FqGTuMi7cn2ikgKxfr4eA65ZqW3HUzT0lyLPD9idnm64mabPO17FLwGXaQJ/rInobE1bE7XIZttytAPGKaBI/kI+YbBMPT3TFE0yKkQCkKn/y3j1mNSx8JO7q08AzLmUR0xHpWh+SRjlR75IP3ztj7e/sP+Ns84FQhvE+3pXBMCEwJvAoHXKhBmpx+THg6s5jEGI0W2p2hMHKNktEO8viVra0LXx5mJVW5HURaU+YHl6pTd9loHFM1Pf4bf3VKMAW3bMgp7P93q612f3td2w4e80UFJXrTAtUDynXqkaLhhvr6HqVp2V1cY0RlGX2DSEs6XjL2iyPe40RpjrKn2G02aG2SVQ5nM4jlZq6i2X2ir49YIaMoUy1tAdYO/uk928wXLj36b3aPPCFyHQ1boCdyXfXPbww5CBlELNA0mNabpUVYlF5cfs00yVL3HX9+D9CHe6oxyc8Ng+DhOT6PmuGGk7akPuw2npxfkjz6nMiXfwSOcr1FtpfMorNkay4JkV1JlO+xwiVFvOPn0d/nyl3+BbMMHUYhr2ixOVpRFqaWfY1UwOpbOZbAGi9vrX+GEJ/RNwXJ9StkqsutfEfgRnRVTHq7w4lOs9hZr9bvU139BOTicnYj1cU2vLBaX52y/+IL1OuT2esP5zOQma4iE7+DP6fKSskiwRPr4Ays5b+Khfh/6nAqE9+EuTGOYEJgQeB0EXqtAsL1YBxeN9V5P9PL2Ly+Tmq3/7Fv0YOPZg35zlaRDS8zy5b10HPQbqry9y9uxGo++BLLtEDkd27TW7Hp5Y1XKwrKUNiTSBD7tlCRvukffANnSkDfZppU3WrCEuCaZCXq7otV6eVnpGJpGb1OMhpxHtj5MrdkXqaP+vtgNmAadJE0NNUG0IM9SZqsVh+2tLlZkVcAQw6ahxxR/g16KGlFA2ATxnCHf0naN/rfkDOw2O729IkRBTbqTDAgn1OFWATVZ3Wj1hkzmMm4pNOStXbYiJFFSxil5D7ZlokwpxUytVBgwtVrDdRyxbNJyTtd16NpWFxdtVWBYnl61UYPcG8VoOHqlRQiN42hojwfB0lQSzmTqZ0lknnI/ZAtmfXbB9uYW05HrbfWKgBhDiayz1qsiHv0gqz8NruPSto3+/GCGRL5FIgqOd88xfZ3fkVf67FQgvBJs04cmBCYE3iMEXqtAkGVrMccRXf4PNfEikHTGD22ekC0UyzL0qsaLNMlmcK2esnqixxcW/kj7HIK9qCIC3yHPX4wv8CLnv+tjtGFTXX2nWzE60ts2UsRYjo6/nto3EZgKhOmJmBCYEPjQEXi9AuFDv/pp/BMCbwiBqUB4Q8BO3U4ITAi8NQTeSIEgZDix5qUt9FL1kyZvm6qVPexv5gN8+2qfeB98++vxOCE7avbe1ysSXjinr/a0/dN+LcvVPgFPTmVbDs1jpv+T81mW+AN8/9uvJvU9QxT87l05juXbPg2yTRIEruYA/FB7WY8HSWH0goC6/OaqQxDOKPLDKz00QtJ8Qh6V7SKJpX6RJpkYlqH0lsIba49JlW+s/zfY8VQgvEFwp64nBCYE3goCr1cgKItoNqPMDoTxHMkrUsJmH1s6IRf0A2Ecs99tiedL+r6lyzOC5QmjKB6yDYYfkW9vcMMFbVtp731hwZt1QecvCF1TOzW6FCTViO0vcceM0Z5T1RWu2RDOzzhstziOSTe0OpfBsmJmixjGipura5Sy8aKQNhdy34qxLRh6k17O1RfMFguSrMJSoyZAhr7FYEUMbUWR7pgv1yS7DfF8rrcFIpE9Noa2bRZSpOEvOOxudH5EmWWYjokn/Aw7pE2Fu6Co60JLOPOyJpivtCXzfDZjc3vNfHVCU9d4tsFuv9ckQdXm2GEIbUWLLVpQoMXzPHb7A8vlAvFSijyL9JBTKwuny+iMAM+zMNVIkjUEdk89GNi2gTW2KHtGKTj4M7p6YDRHxirBC1aYFmy3W9brE/aHjFngklY989Alq1pt8Sz5C7/z80+4utlRlSmYof6+ZfT63G19wJCcjFHp3Ia+SIiWl5TJtc7VkJyMwPM10dJyYhgKBjvAMRRpJpiEWvmRZB1NdSSrfmhtKhA+tDs2jXdCYELgOy/r/9q//m9qaoCEAzme/70I/cPtV/zvH11SCQPwcZMshjLPtHd+V2X0TUPetPhBjBt4dGlG3tTM1vcoD1viyKaUTAOjR7kzrKGkLlMW61Oq3S2dchgtE2McyYoCL4j1ZCj+/K6qSetjgWB1e+zonPnMJUkyRrFQxsWLFzhjSt30lHlHMAspswQ/8PV5vcjR4VD55oG2X85LxWLpUdYdqthqBYMOhlIBw9hrS2eZ1M2upREZpR3qbImxzEirCstbEriDDn2yhoZWApuGDsed4fkGdV7RKh9zrDH6DGcu9sRfaJKi70VYvnAzCgxH7Iv3mpOg7Dl1+lCrKAaRC7Y57vKE7rBhFBJgffSMOFnZ5LUQJAvauqJra4IgoOsGLMfSgVcSCFXuD9RtR7ReYdoGaTKQbx8QrdaMxZbo4mckD35F0SqWJye0zcDpOmC3PejcBtPx8D2lSajpLsUyB9K8ZtTF3wIv9Mluv6KzlzqQqtk/IlqfoYoN5tm/QnXzlzrfIQxDqjHEMAcCR5EmCaGDVoSIekSSNAdcwuWcm+sUu9tiRzPS3VQgTH+2JgQmBCYE3gUCr7WCYNgBy+UJ2f6h1r0XRa4tcS1XPAZyRKLQiT+A5bFcnVDntxRFrZn+ktYoqX+271Me9lrfPxrmMYXRcajznQ74KdIDfhRT1R30JSMWYRiQpYlWAkhQk5grif+/hD91o4mleu33b7lS8BioLtMJgKYlWwLH3ARjqNjuUz0BqibF8uPHbP6Rphm0KkDSKXUAVVESRrG+Pl/SDctCT2iiZBi7Wvchxkx5emB1cklVpHrrQkh+stpgWzZ9J6mPS9LkOOE5bnjMQJC37tHW6ozT83Pa7JY8T3HCpVY0tL0EPqU6LdNWBqNloQyXxWqJ2R7YJamOvhZ/iNlsQS4mSb2kIB79DyTeucwTDNvRls111eqMC1kF6LrjioVpe9Rtj+84VPkBey6pjQlOOGfoSp3uKPs5VrCkqQutRhFlgj7fIcEPA8pm1GTFKPTIi0orRhZnH7G/eqiTJW3ToB5MfHtk7AxG1TKYMY7ZcdhvtJyzSiVl06AiIA490t3tB0dsffJLPK0gvIs/Z9M5JwQmBO4SgdcqEO5yIFNfEwK/SQhMBcJv0t2crmVC4KeJwFQg/DTv+3TVbxiBqUB4wwBP3U8ITAi8cQTUP/rjvzv+s188eCUOgoxutAI81eh9bmmmHeDZkBdPvRGU5RKHAYdk970XJKY9URzoLYgw9EmzglhilvPs8WcUniP+iB5Wn1G/SHifMpjNl5rDINbHz2uytD3WqV5yf5nmhQuqfP8SHzGYrxYk22/uqfvxCVW2eaXESq1qEMvoIkPSHMU06kWSL21/jjk2VG/Q4dDx5zTl0ZL6p9imAuGneNena54Q+M1CQP3h7//747/44vqVCgRdDERzqA8o06Jvas0D6E2PTv6/7OGHa81H8F2TOt2hbEdPaHYwZ+xbzeovi0LzD+J4RtvU1E2r3QnDxSnF5sGROGg6LNbnej8+dCS3oDo6NjozVLPXe9WtOAOODYMh++0unqp01HFVVZqEp0OSxPxobLQjoGQZxKtTkuvPMd0ZfVtqYp9m+R82uL5DVzc4jqVdFUUdUdQtrh9p7oHjRdR1qXMdmvro1lgcbrG9UEIKCGJh6Pc6pljOJU6KnhtQN7Ue19g1zGLhbjQ04so4DnSGj+c6eg9fCKCObTIYNo45UudCaPRFKqL5FVXZ45mN5izY4TmW6qir4khOzDP8MKYR+2XbIC8yLNOgyHMu712y22faEVFko317VEa0veRkiERVoqOFx5HTFjmRFFlZjmkKL8PDkYyGJgMr0hHYVW/gOjZl2eL7Bp4fkRTQpF/9Zv22vMTVTAXCS4A1HTohMCHwXiKg/viP/8PxL3/x169UIMQnH1GXpZYElulBT4h1lqL8GEf8CkzIGwlzarGGVmv4hZiY7LZEq3OGvqZKNjqjoRTy4Uze5nPaYaQXWaJqKCohxQ2Ey4+0K6GEBqnmgBXMMZRFXjVYNAx1gr/6GMes2e9KLbMMrVZP7r3h6eyDoS2x3EAfc7hN9Dn8OGJze8vp2T36saPa3zBYM0zXoS92uMECiocYi4/JN49ou5YgOsH0QurDDd5MCH3XLNcLGgLS688Jl/cZuhx7qCBc0iRbBilmTJ9+NFhHPYdS0dclVdPSdyXrs0+0RFQZ3XHM/UA3+AxNSnCyph97sm1Ne7jGX58y7r/EPfs5VXJDXjacXt4j2R50AFNZ1JSjw3Ie05Ub/fNhdLDGnO0+xw0i1ss1JhXbmw2ts8S30BJQ/+QC9l/Qzv4lhvQRXVexWH/EoQZ7LDDHllzuudnRmAHm0BMsApJdy/J0zqOHO0KzwIpXbK8evpcP/dsY1FQgvA2Up3NMCEwIvEkE1H//3/234//xf/7fr1QgvMmBPek79H09Ib3r5sZndNm1VkxIwmSVP90qEFMoUWEsrI7b4mjLHIjqIUufM2yl1QTzMGJ3eJktireLwOnZGTfX1985qeMtaaodzuwT2sPnz1UZhLMV+eHDlCfeFcpTgXBXSE79TAhMCLwrBNR//A/+/vjP//KX722B8K6A+fZ5TQl/+h4eg9gpiiRR/BCetB9ySZQAKh3w9N6GUzzfIVKuTZwXRXIpaZYSkDW15yMwFQjTkzEhMCHwoSOg/uRP/mT8i7/6xVQgfOh3chr/e4XAVCC8V7djGsyEwITAKyCgfu8/+IPxwVdf3EmB8OStWRwQe7EH/oEUxCCMKcsK3xMSYY3j+nRt+fVbeDRfkO0T3OBoTPSkSaTzMIjl8DebxDo7XowaGm1o9LzmuIE2DxKC49M3/eMb8Q81+ZwYBL1Mcxyfpvnm1ohkHRjiHilWiq/QQtchrxskByE0e7Lmx/tRpkvgGN/YpnFsS0dc30WT6G2Fon1m9eQu+v3Q+5gKhA/9Dk7jnxCYEFD/4I//aPzzX/z6lQoE0/IJokirEmRCr+sW2pQORzPmDctlbBJMb0mVHfDjmLZMdAZBuL5/lNmJ42Cf0YUX1MnVY1dEm3kYkuU5s5MLmjxBSZBQVuCHtg6jBXjRAAAcAElEQVSAkryD+SwmLUpc2yGIQprRRo0t6X5P6NukeckiDqn6AUMyGgaLqkyIFqdU6V6rDbRbYZ1iORFVccAJF3r5X0iOTbbDcEJCo9OkuzrZgBNhqB7HC9htrjCdgNi3KVuTMHRJDymeKA/oMZTINPc6h6KtG53nUJQp+SFjtZrprIM4irXbY5bumC1W7DcbTDfANAY98Zr0FA341kCrLOhqBmUhEdriyjhfnFImj5itL7m6umJ9IlkQe3w/4PZ2w71P/wbJ/hbPhLRqiDyfMHDZHHJcU5FVPbFvkecHTMnBsAJcoyHLOzBs5qsZahzpxwHTsNhtdzoD4vb6muXpKYHnstveanXE1J4iMBUI09MwITAh8KEjoP69v/13x6uHr+aD8DSLwSXfX8vsQtPX2I6P7YS4dktRiXyvYSTEciQnwCW9faQLhP3tQ71yMNYlQWCTyEwoNsT+nDgK6bKE3na0tXBbbnGA2nBxRAaoPEzPx+0SNts90WKJaYdaIhkYpbYg9qJTfYwzpBRlAwOUZUZgKwYVYdmdtlfOyw7XGjAMFzcMyPOSpdNwc6iYzWZ0o6EtnwNfPjOAPdd5CCKXFDJevLog8Eaa0cdVOZtEQo06iqplcf4Jh92GyO60aqGvKxZnZ7qYKnsbw/EYlM3STLjeHXC9M9p+ZOgzPVFjzZnN4PbgsDQOJJLd4K6oq5rZ+QXpw18ThAHiRG1FS9osYSi2xBefMojMsOlR8UpLT+fqwKOrAivycY2O3pyznCu+epCwCiCpTeglV6IH19e20m1yzezyjOLqGmO2pGgs2ioDd0Wffkm8CGm7gPzw01UsPO+PwFQgfOh/GqfxTwhMCKh/59/9m+M+ObzSCoLlzVguV+xvvhCjAi0BNEVHb0j2wHEpfOwbTMvR/v26SeZC36NMk3EYEfKf+ANIsLLtRcfJxzAYJevAMDBMi6EX+Z8Q+xoMw3y8JWBozb5kEBjCpZcQKYkuHjudTSDjkJ0IOUa2ECRsSA7TmQZa5y/jO/Ytx2JYDF2r+3CjE+rsRm9leJK9UEnRY9M2x59fXN6jqXKSg0QsK+2H0JUpXd/qfAVJo5QcilEpzi4uoe+5ubnSpER9fsdl7DupVzTpT/rQ/xl6+RiSoiAEQNvx6Nv6GFlt2GJLpfvCsjGQkKgBy5ItlxHDlK/H/mUMahy0l4Kstsj1yqqIYck11JgSxy33RNIzDZPZ8oxke8VoGFiGSdNIjoR7TIksWwbpw1I6bVKyLJSSpApTYxhFEVWZ60JratMKwvQMTAhMCPzmIKD+3h/84fjXn33+SgXCbw4M05VMCNwtAtMKwt3iOfU2ITAh8PYRUP/VP/4vxv/rn/6/U4Hw9rGfzvgbjMBUIPwG39zp0iYEfiIIqD/4/d8ff/XFV3daIHiuTSWExWfac30BDJfl3Ge3OxoGPT1GMT85J0tSfFeRZU/yGGQJ3SJeeGTJ4+/J+vv3GAqIamA2m3M4JMyigM3mRvMb2irRH3H8mDDwSXaynXA0JYhX90i3D54ZucHybElys9FR1r01x6y3VINspZgMsl8P+MGSstjhhGv6fKPtofX544jt7dVzDYXk51EUst/efCNDQXY8Hg/nuY+hRGuPErus9x5erIWzJfnhm1kY0s9cnCQ3Ny/WybeOOvnot7n98ld6i+T8t/4GV3/9Vy/Uz/L0kt3NU86Ckm2jxzi+UAc/cJBs2YhxVS8R1e+wTQXCOwR/OvWEwITAnSCg/o1/698eu7Z9pQLBmwk5z9ZZC8KS7y0XoyvohVPgzIEeU/IJ9im+b9IZLkZ7wHFDiqo7+v+3GYbpUeUNfmBphr7kHog07+F1Srxc4Fkm+80N4WJNXZRYvoVjWpR5hW0bKMenbyr8xZI+29ANDm3f0Wdb/JNPOOxvWS7m7Hd7wigk3W80JyGIJGNgz/n9T/U1DG2DP1uTFTkBOYe01fbIs9MYpy0oDgkZIQ4DtucSL07Zbq/wLIOqMXE8W+/T07e4nkNRd1qlkGxuiBdzTWj0Z6fUZUMUOjqDwrQMmkERWS1lZ2KaNpHdUo+25h80nYllDRyyCmusaHqD1TrEtOa4rkletYxti2vbmM0NDw89pyfn5HlBEIbsthvWZ6cckoqLiyXN/ksqZlhGz2DG5FmBK9bI/pKuFCJmTD10pGlKHM9xVMn1tsawLBaRq0mVYk0thUUn2RCuwT5r+PTihCq9pTDnmj9iOTZW/ggVXFK2DVI03j78gvD056j6QDiPub25YjFfEscRSbLDdgNurh+yWp1wyHJsx6QpCmazBS4ZRTvQscSXc+Y9q8imzDd4/pw+fYQVn+FFoR5fkWxfqoC6k9+mZzqZCoS7RnTqb0JgQuBtI/Bacc/+/D6OIfJBg664YXH2CVV6oyeIbrB0yJAfeJS7G6xwrqV5qi/Ibq8ZTRc7WmGZEhDk6O9Z8fGYKt0cw5SaFjsMaA8bDCEgeiFd0+NEHp5psLm+wgnnOrugawf8SMiRIFxDaKmzBNccSTuL+Xyh5X9WsKApDrR1QTA7wVADdIW2Ty7zBNwFUeBgUZOlDYOoFUITVwqf0SLvHahS/HgOTsgomQumwSGtMaVIGgxcEwxzJC8lC8KmlwLAM8lS+dxKr6701UHLIXfpQRcoltGR7Ev6vmUZKMre0sTFpqwp6pqTs3NuHn2JE6ygq5gHAZ3qaJoB0xFZqU2WFriBq1UaNQFjmzNYIdX+EYvlnMNe7I8tZssFTSNjM3EtSIeYRWhzuP5KT8JtOzATZYbZktU5quuFNolhBgxjTatC8uSKy/ufUJUpTd3o0C0hbq7P71EUFa7rcfvoIcociGYLbMOklMROD9qywbFs9rWNaqXAcuhGn5Gamphq92vWp59QZ9cQnhGOic656IZWF1xFnjGbLzgkCbYNdTPSlQndCEEwp2qa4718h20qEN4h+NOpJwQmBO4EAfU//I//0/inf/qnr7SC4IYntMXtDy6H38kopRNl4HmhVjI0Tf1a3brBnLp4txPIy1yApFZ6Rk/R9pi2z9iWWgHxpMm2iesYZMnuuJWhLJYzm13y3QwL010Q+AZNuqd+T5UHvhhtdbVWUzzbxE+DasdgWMfky+cYXIkxlGuPVC8Z3/0y9+NFjp0KhBdBaTpmQmBC4H1GQP3j//q/Gf/sz/7slQqE9/nCprFNCLxLBKYC4V2iP517QmBC4C4QUP/z//K/jv/bP/knU4FwF2hOfUwIPEZgKhCmR2FCYELgQ0fgtTgIlr/ANqHO9nrJ2/FnNOWBcbQJhUBWtZyuVtpGuHjukq9idX6fMrmmfObnpiVGRs/fRhAim/AHJE3QHntaw8E2R70cLY6Ljh/Q5rtvLMHbpkIZDk377T5FLXGJ1eyoVUAnJk12iNEXFOUxryGIl1SHHat7n3L78LOv77frR9TlU3XFkx+4fkhdlsyXK5Ld7beeD8X68pT0+pbmmeV9WRY3TQvajG58VplgsFie0bY5+beio71wRpWLUdPjppTmW4ijorRwtiY/bF7q+bQtj7Z7mlMhH/a8mLbJtCHVq7TIcci+tVXwbD9iKmUZ4v/0dNNEuTOoD89VfvzQGOLQ033t0m9ew6uM+3U/MxUIr4vg9PkJgQmBd43AaxUI4epjjLHGGHr6oaNXNkHok1zdEK8X9KIKsBS1ZC64c+hrmsHEU4UmMYoTYDhfkGweEC3vURcpjB2WN6cqK0xDZjsDW3UYphD2KlojxA9c1NBSHkpM32McG7xgQbbZYM/nDGWG7TiiocA3a51pkBYjri+EQQMvcOhKKQJaZqu1ZurnaaNJblEkIUsN+50Q+iCI1npP252dkSVb7WDYVgXz00tN9DtsHjFbnVHsblG2pf9/st/jqo60qPA8l6FtccIZfdcTzh32D7a4ka+zKHSWQjOi+gr6hkHCqMocM4hRdkC9+5IOizgOtYthJ4NUJrOTM6o8wVIjWVHimAa+UfNol+OGc8yhwTBtnLGms2Ltqig8juywJVhcYDR7RmeFQUc/Glp9YjmiIIFDUeMLe9EwiSMhDw7c3iScX5yR7HZaaTGMBpZj4Lk+u+tr/DjUxNC2GbAYaFQEXYLrB2SHvVaqWKbShE7Tj2nKFEMpzPiCoT7gu56Wm0r408lqyWef/TXx8pymzinTFFMkmfOITrlE7kijQsrtIyw/1EoU27LxXQfGitvtdwu3t/2LNhUIbxvx6XwTAhMCd43AaxUIdrjSLH2rrzQz3/Qiegk+kinCGLBcH3uotC1v0406QXCxmGkZo/gYjIaD4zmkea0lj5Zl0dcHBsPX1spjJzJAh7HaoOKPqJJHGFaI44jHQEBxc4UKZniBp0OfqjTHnK90lkBdCdN9jqLR0si6tfECi7YXsqNBXbU0TadDnZTt0uQp46gwHFcHTYmscjQsTk7WdO2IFYSUeU5f7BCSo3xG/ArSrNCSzLbIkXImmK1Q41H9QJ1RS5/DgBMvtFWzFyiymxRbihxD0fXQtiOuI8S79kgcrCs6w8D2Yxxaqg48s0dZNk3RIJqCYHWmVzry9KCJi5L9YI01t2nNchEjNhSD9DWK+mDAcBZYtqNJnnV+wPVjAs+gakd8u2ObgzNWVKJumH+E6muMNtNSy74pOb24py2V09bWIVyG7TKzMnb7A4Y5p+1G+j4lCl0kxDOKTJIqYmZIDkbG6J8yNAmW2GA7BnVnI6XE5YVPW5bsdwcMO8btdnSjST6YBGEE5UEXhXYQMRYbrChCFQmG71EWI4bR0/SS+HmL57io0aCspwLhrv9QTP1NCEwI/PQQeK0C4W3BJW/Oq5NzNjfPGhi9ubOL2Y6kDXyfAdOLnlnUB+PYMfSjlvrl6TeNil60n5c9zvE8murpMvuoLO5/dI882ZAcjqmLbrSmzp63BaH4+GefUGYpt7fHVZT3oV0uXB7uayLfIZPgree0xSJmv0/fh+Fq461NJgWMZG3Av1pl/MINqOTZGkdtCja1CYEJgQmB9xmBD6JAeJ8BnMY2IfA8BKYCYXouJgQmBD50BKYC4UO/g9P430sEpgLhvbwt06AmBCYEXgIB9Z/+w78//n9/8cvXljkKE38189k8zlV4MgZZrg8sRd7KHrrLIvTYJQnB/Iy+2mM74py40/v30oR9X+QHFnbDrjouw4piQfbY62PswTeaK/kIZoBrDdpe+NkmS/x2P9KZA73EJD9ufhhrZ0Bx5Hu2STaC65hUhUQ3P2XtyxaHa/aaC/D0ukyE0SfLxXIe4RCU5cv4/xsEUUDxTM6EEDJXp6dsb65e4hY+c6jh4rlKEzy/rz1vayEOXNLi5c2nDDEssn3a+v1Y1n810N7Mp6YC4c3gOvU6ITAh8PYQUH/7935v/PLq5pUKBLFalmyFIF7Q9R2uOaCGgRobY+ypeoXRZbhOQFl3KCEuWq5WA4Src5r0msH0abO99s1XpqdJgcX+ltl8RtcPNIMDdPhmh+ylF0Kqc2zSssdWjc6CKJteE966wcS1FV3X4TuKsW9JdyVmHONaHaKkFOKibTlU5Ya6MTGNkaq1iQOTsUm43SUYpquPa/KC6PREEyCtoaQZPdpalBMzxiqn7UoyOSaeafJjFIRkRaaJmG3T6bCmmwe/ZHn6EU1VsFwvdaZBXTc0VaszK1wvoGpqjRFdrvkKtgGtaWO1Ba2zJIwCTAXJ9hbPGmjskNA1yDc7RtNBWQa+73HIFWafHDMf5mcoUTIoE7Ov6f21JoIGRkmSNViqIe8CHKNCDSM32w0Xl/e1SqHqBuL5CZ45QJNi2h6qTSlUhFALy9HDtgaMNuFQmTTlMWxrak8RmAqE6WmYEJgQ+NARUP/lf/KH4//z55+/UoHgze5RHx6xPr+v3/od1TA2JUT3MAYJFrII3ZF8v2W0YrzA1qqEzdVXGMFSE85c0yLZX9N0HcH8gmL7iPVHv4VLrVUDLSKPG/Bt6UfUDBc6VfGQ1fhWj22bZHlLPw4oOyQOHfI0Zxb7VGlCkbWoKCT2FPXg4gcOfW+iuj11a2LL6kYl6soSyxiJo0hLAb14TZrscQIbSyZks9FFQJ6XuNGcPt8iQoVDmulj/XCBTUOLzf76Sz75rd/WaoZ69xV9cJ++afTqRLp7QNUYBK7N6Mcow+dk6YrkgO3mmroeKIqCi/u/Rd2UGPUOxxgw1UjvXnI4bJmfn2H5LrcPDiw8yIqUPEn4+HJG3rjUyma9DHn06y9Ynp+zTw5aWuo5Nt1oYDpLqq7Tqy4324TYjbEDE2PoaJwzThdQbLc6kTJNc10A3dxI9sLHukiZex23fIwqrqHeUrbPGj9/6L8SdzP+qUC4GxynXiYEJgTeHQLq7/z+H4xffPHFKxUIdzZsZaLG/qWNcb59ftuN6ZoUwwowh5ymfztM8Wdjn2VMhi0xysfUyO6xwZDnOlT1d9n3sn2xXJ9SHG6pmmf2MO4M3FfryDSlkGp0OFRTPF/NILJUWa2Z2ncRmAqE6amYEJgQ+NARUP/5f/aPxn/6z/75uy0QPnQUp/FPCHwLgalAmB6JCYEJgQ8dAfU3/9bfGjfb/WsWCArTVI/tcg2UGjV57000ISwydC+82iDHi4NfK+49P9KEUGnIdYh70TNN+yI8Jznwx/q7y59bjkfXfIt8qAxMQ3B/DnvzBU4u2z1993xPgRf4+EseovQWTvcT2Y2YCoSXfDymwycEJgTeOwTUf/RHfzD+1a9eZ4tBaetfz7W09bDY9vpBSF8lejJ4YgqzWJ1p0mBWVMycjm12nJj8aKX381tlaGWBuBmKh4yszItToTgmNlWOMgxMyUlQg85MGA2Toe8xTJMRg/XqlKbOyLL88WR+7Gd1+XPK/UO9ry//lmNPTxZcX2+0iY1YECuOxkiuHaKsgbqutQuh/Fwm5qHv6Npan+vJ90eUJlSW2YFc2I/CgVCG/uo4DrVkQ2gzHLkmA9fzqXR2g2K1Xmsy4PD4M8MwYJoGwyDbLApTj+topiM/U4ZJGPsUackwdIh6QMa9vv8pt19+rq/reOxTA55jn6bGQpdqUrBJAaSNk4+R0GenMTdXW4Zx1MfK5w0pOIZRFx7C6aBOj1g/LpAC3zuqRZSpbadlvPoy9U0b9Dnkmi3H1UWn9Cv9qK6ErmUwLfqhx5D7bbkMTfHCxd5799vzAwOaCoQP6W5NY50QmBB4HgLq7/y9Pxq/+PzXr7aCYDislnO22wOrkyVDeaBpFGa0oD08QHlLXNXQDiOePztODOIsV23YZsc3evHbd10hLyqqvJDFAXplsYgNttlAYPQk6YHV6T3yssGkxug6cmH+9wOd4xHOFuyvPtPWyKFrYfkxfTvSYxDOlwz1/9/eufW2UQVx/H+8F+8lTnxJmoS0SVW1UCHoEw+lgheEVAoCIcET4gO0VSWQKj4DQnwIeOIjUERfeOAFqUKoRVBoH2hDWhLHWXvtvd/QnKQXorbkntieI0VREns98zsbe3Z2Zv4thH4CoagIEypsNKUuhIIYJHqkpl2kqo1eO4BdsxF1mvCTEhpTs4i7DoI4QqlcReIvY6TSABIXyHJ0wwBZoaA6ZiPOdNQaI3Ksc+K5EAZpONAo4xxxrwXNNGRNgmY3IPIMah5Cr07BVmMkqoluqwcEi1Dscfg9B0dmpuBGCrK4h9AP5Phpqyxg2xqcZRdWKUSYaSiPVhGEIerVhuxuUPIEadRDmgpYpo6SXiAOMwReCgMu1PocRNRCxwNsPcPychP1mTm0F+Zh1urIwxjWoaMAiWUFS0iFBdPQ0HYjWKKLuDQqCy3rU0egRw4SbRRpyUZN7SIJOnBCRXZhCHMS3U4Lh49MwWsvwvciaLUG/JaL2kQDeRzCaTscIPD7EhNgAkzggBIQ7517u1jxg60FCKTgSKnvLIdlk4qiCwgNhW5AyUKpGZBEISzbBkq6vDVAjzW0HJ6fyA9w6sFPCk0KIpGeQ5HmyEUJelmXV7tJmkNV6MJUQxhRO6CGNAygmyZ6HRdCEfJqVdfKSGMPqmHJDx+qncuFgGFVUGQecmqB1HXEpH0QdqUglKnECIIYo7aCnp8iinOULV1ewdNYANJpoA98uqsRRDlGbAMRZQvSACXKFIxUEQQeyqRBkcXQTB1pnMlWT7pLQS2UlHVIKcDQDXiug9FDxxD5HZhqgShJEPs9NKamoasKlpeWoJhVKEkPqkWCRr01UasUZmUMSRhAU3IYlo1WsymPrQjq/ngOooiAyEGaC/kltDGUsi60yqpoVtjzYJsWgsBFmgnoZVWqX1LbJQUybruDSrUGn2ZUlFMkGZCVbOTQoMKXehQpBEYsE2nYhWFX0XY9KAhhmCZcGnEsVIzV6/DcNqr1GjRFk8WXMQxQveiIbSHotKXNcVZIQareynrFywP6n7JJsziDsElg/HAmwAQOHAFx8dL54vqNP7YcIGzVo72+r182bJk29/3V4Ug04KeUBUil4mMKP9mjjgdKqz8mZU1dDHZlFLHfla2etEgMiWYYPEli2bRrKCGBt27I01b3Yb+eJxQNIkv+I8u9X7bsxutygLAbVPmYTIAJ7CUBcfmTi8VPv/y+oQDhm4lphGviM3tpJL8WE+g3AkVOA7hYrKnf9o3tZQJM4BEBcf7SheLXGzc3FCB8VZuWanTPWlRMWFCx2rr1qGBv9Q/084NCvAcdD1QgR1devJhAvxOgc1qO4WY1x37fSrafCQwtgU2JNW0kQDBGaERxR3YhUMX+yVMvY/72bWiqhonJSdy69aeEfe7N13H16o947exZ/PD9d/J3tm3KSYW8mEC/E+AAod93kO1nAkxAfPDhh8Vis7WlDMKJV95A3RTIwi46i//gyPEX0ITAZNHFcquDO/db8DoOVE1DvTGBPHRxb2l1Kt+p5+dgH5qF325hoZ3hzOkX4fx1EyteGVQG/9v1nwey/Y1PueEgwAHCcOwze8kEBpnAtjIIk0dPSg0BxD4quoBeqaJbAHbSwUonhGqOYmnhjqy2P37shBQyKmcObv3dwUzdQrkyDsePQAqDM5M2vMUFrHQzORPBad4fZO7s24AT4ABhwDeY3WMCQ0BAvPXOuwUNEQp9D7phPtXlCysL+Lo6jYCLFIfgtGAXt0uAA4TtEuTnMwEmsN8ExOdffFl8e+UKosB/ZoDwkXMfH7tNTvvv947x6/clAQXA+7MvySLfB8W5fekIG80EmMDQEBCfXv6suHbt2v/WICCOcHhvRgUMDXx2dIAJrHUxUFcPLarZvaeV5XcOEAZ439k1JjBABDZcg5AmCWyaiMiLCQw5AdLqWBWgePpaf4vh8UfS32hap6ZpQ0eS5MGzJ7RBDx0IdpgJ9AGBDQcIJFg0Ozu3JkDUB56xiUxglwjcvXtXiodtJ0AwDQMTExO7ZOHBPazjOOh53sE1kC1jAkzgIYFNBwjMjgkMO4H5+fkdCRDGx8eHDmW73eYAYeh2nR3uVwLi9Ktn1tSAH0kFP8kZUgsm6d5BWCSrTKnOHVtCQNf0HTscH+hgE6DzZ9tLCCl5PWxLyo/TmwkvJsAEDjyBhxmEA2/pDhqYJDH8HUxz0jjdyujYDlrIh2ICTIAJMAEmsL8E/gXRf2sclkK+6QAAAABJRU5ErkJggg==;" vertex="1" parent="1">
          <mxGeometry x="-460" y="17" width="520" height="273" as="geometry" />
        </mxCell>
        <mxCell id="GWbPV3JY_pYgFVm3MeyI-27" value="A 调用doGetBean从缓存中取不到" style="rounded=0;whiteSpace=wrap;html=1;" vertex="1" parent="1">
          <mxGeometry x="-800" y="650" width="120" height="60" as="geometry" />
        </mxCell>
        <mxCell id="GWbPV3JY_pYgFVm3MeyI-28" value="" style="endArrow=classic;html=1;exitX=1;exitY=0.5;exitDx=0;exitDy=0;entryX=0;entryY=0.5;entryDx=0;entryDy=0;" edge="1" parent="1" source="GWbPV3JY_pYgFVm3MeyI-27" target="GWbPV3JY_pYgFVm3MeyI-29">
          <mxGeometry width="50" height="50" relative="1" as="geometry">
            <mxPoint x="-530" y="720" as="sourcePoint" />
            <mxPoint x="-550" y="680" as="targetPoint" />
          </mxGeometry>
        </mxCell>
        <mxCell id="GWbPV3JY_pYgFVm3MeyI-29" value="A 调用doCreateBean把自己放入到三级缓存中去" style="rounded=0;whiteSpace=wrap;html=1;" vertex="1" parent="1">
          <mxGeometry x="-610" y="650" width="120" height="60" as="geometry" />
        </mxCell>
        <mxCell id="GWbPV3JY_pYgFVm3MeyI-30" value="A 调用populateBean填充属性发现了B，B也需要实例化" style="rounded=0;whiteSpace=wrap;html=1;" vertex="1" parent="1">
          <mxGeometry x="-413" y="650" width="120" height="60" as="geometry" />
        </mxCell>
        <mxCell id="GWbPV3JY_pYgFVm3MeyI-31" value="" style="endArrow=classic;html=1;exitX=1;exitY=0.5;exitDx=0;exitDy=0;entryX=0;entryY=0.5;entryDx=0;entryDy=0;" edge="1" parent="1" source="GWbPV3JY_pYgFVm3MeyI-29" target="GWbPV3JY_pYgFVm3MeyI-30">
          <mxGeometry width="50" height="50" relative="1" as="geometry">
            <mxPoint x="-570" y="850" as="sourcePoint" />
            <mxPoint x="-520" y="800" as="targetPoint" />
          </mxGeometry>
        </mxCell>
        <mxCell id="GWbPV3JY_pYgFVm3MeyI-32" value="&lt;span&gt;B 调用doGetBean从缓存中取B获取不到&lt;/span&gt;" style="rounded=0;whiteSpace=wrap;html=1;" vertex="1" parent="1">
          <mxGeometry x="-800" y="765" width="120" height="60" as="geometry" />
        </mxCell>
        <mxCell id="GWbPV3JY_pYgFVm3MeyI-33" value="&lt;span&gt;A 调用doCreateBean把自己放入到三级缓存中去&lt;/span&gt;" style="rounded=0;whiteSpace=wrap;html=1;" vertex="1" parent="1">
          <mxGeometry x="-610" y="760" width="120" height="60" as="geometry" />
        </mxCell>
        <mxCell id="GWbPV3JY_pYgFVm3MeyI-34" value="" style="endArrow=classic;html=1;exitX=1;exitY=0.5;exitDx=0;exitDy=0;entryX=0;entryY=0.5;entryDx=0;entryDy=0;" edge="1" parent="1">
          <mxGeometry width="50" height="50" relative="1" as="geometry">
            <mxPoint x="-680" y="790" as="sourcePoint" />
            <mxPoint x="-610" y="790" as="targetPoint" />
          </mxGeometry>
        </mxCell>
        <mxCell id="GWbPV3JY_pYgFVm3MeyI-35" value="B调用populateBean填充属性发现了A，A也需要实例化" style="rounded=0;whiteSpace=wrap;html=1;" vertex="1" parent="1">
          <mxGeometry x="-413" y="760" width="120" height="60" as="geometry" />
        </mxCell>
        <mxCell id="GWbPV3JY_pYgFVm3MeyI-36" value="" style="endArrow=classic;html=1;exitX=1;exitY=0.5;exitDx=0;exitDy=0;entryX=0;entryY=0.5;entryDx=0;entryDy=0;" edge="1" parent="1" source="GWbPV3JY_pYgFVm3MeyI-33" target="GWbPV3JY_pYgFVm3MeyI-35">
          <mxGeometry width="50" height="50" relative="1" as="geometry">
            <mxPoint x="-420" y="850" as="sourcePoint" />
            <mxPoint x="-370" y="800" as="targetPoint" />
          </mxGeometry>
        </mxCell>
        <mxCell id="GWbPV3JY_pYgFVm3MeyI-37" value="A 调用doGetBean从三级缓存中取到，并从三级缓存中放入二级缓存" style="rounded=0;whiteSpace=wrap;html=1;" vertex="1" parent="1">
          <mxGeometry x="-800" y="870" width="120" height="60" as="geometry" />
        </mxCell>
        <mxCell id="GWbPV3JY_pYgFVm3MeyI-42" value="" style="endArrow=classic;html=1;exitX=0.5;exitY=1;exitDx=0;exitDy=0;entryX=0.5;entryY=0;entryDx=0;entryDy=0;" edge="1" parent="1" source="GWbPV3JY_pYgFVm3MeyI-30" target="GWbPV3JY_pYgFVm3MeyI-32">
          <mxGeometry width="50" height="50" relative="1" as="geometry">
            <mxPoint x="-420" y="840" as="sourcePoint" />
            <mxPoint x="-370" y="790" as="targetPoint" />
          </mxGeometry>
        </mxCell>
        <mxCell id="GWbPV3JY_pYgFVm3MeyI-43" value="" style="endArrow=classic;html=1;entryX=0.45;entryY=-0.033;entryDx=0;entryDy=0;entryPerimeter=0;exitX=0.45;exitY=1;exitDx=0;exitDy=0;exitPerimeter=0;" edge="1" parent="1" source="GWbPV3JY_pYgFVm3MeyI-35" target="GWbPV3JY_pYgFVm3MeyI-37">
          <mxGeometry width="50" height="50" relative="1" as="geometry">
            <mxPoint x="-420" y="840" as="sourcePoint" />
            <mxPoint x="-370" y="790" as="targetPoint" />
          </mxGeometry>
        </mxCell>
        <mxCell id="GWbPV3JY_pYgFVm3MeyI-46" value="在这里三级缓存基本处理了bean的循环依赖，这个时候a在二级缓存中，b在三级缓存中；在最外层会把他们都放入到一级缓存中，并将二三级缓存的对象删除掉" style="whiteSpace=wrap;html=1;" vertex="1" parent="1">
          <mxGeometry x="-640" y="870" width="370" height="60" as="geometry" />
        </mxCell>
      </root>
    </mxGraphModel>
  </diagram>
</mxfile>
